999
dxfrw 0.5.10
0
SECTION
2
HEADER
9
$ACADVER
1
AC1021
9
$HANDSEED
5
20000
9
$DWGCODEPAGE
3
ANSI_1252
9
$INSBASE
10
0
20
0
30
0
9
$EXTMIN
10
3.97
20
5.96
30
0
9
$EXTMAX
10
116.059428789
20
36.35
30
0
9
$LIMMIN
10
0
20
0
9
$LIMMAX
10
42
20
29.7
9
$ORTHOMODE
70
0
9
$LTSCALE
40
0.0125
9
$TEXTSTYLE
7
Standard
9
$CLAYER
8
_MANSFEN_
9
$DIMASZ
40
0.15
9
$DIMLFAC
40
1
9
$DIMSCALE
40
1
9
$DIMEXO
40
0
9
$DIMEXE
40
0.125
9
$DIMTXT
40
0.2
9
$DIMTSZ
40
0
9
$DIMAUNIT
70
0
9
$DIMADEC
70
2
9
$DIMLUNIT
70
2
9
$DIMSTYLE
2
AEC Bemassung 1-100
9
$DIMGAP
40
0.1
9
$DIMTIH
70
0
9
$LUNITS
70
2
9
$LUPREC
70
4
9
$AUNITS
70
0
9
$AUPREC
70
2
9
$SPLINESEGS
70
8
9
$GRIDMODE
70
0
9
$SNAPSTYLE
70
0
9
$PINSBASE
10
0
20
0
30
0
9
$PLIMMIN
10
0
20
0
9
$PLIMMAX
10
12
20
9
9
$INSUNITS
70
0
9
$PSVPSCALE
40
0
0
ENDSEC
0
SECTION
2
CLASSES
0
ENDSEC
0
SECTION
2
TABLES
0
TABLE
2
VPORT
5
8
330
0
100
AcDbSymbolTable
70
1
0
VPORT
5
31
330
2
100
AcDbSymbolTableRecord
100
AcDbViewportTableRecord
2
*ACTIVE
70
0
10
0
20
0
11
1
21
1
12
152.721749544
22
27.9731965259
13
0
23
0
14
10
24
10
15
10
25
10
16
0
26
0
36
1
17
0
27
0
37
0
40
162.363574729
41
2.2008797654
42
50
43
0
44
0
50
0
51
0
71
0
72
100
73
1
74
3
75
0
76
0
77
0
78
0
281
0
65
1
110
0
120
0
130
0
111
1
121
0
131
0
112
0
122
1
132
0
79
0
146
0
348
10020
60
7
61
5
292
1
282
1
141
0
142
0
63
250
421
3358443
0
ENDTAB
0
TABLE
2
LTYPE
5
5
330
0
100
AcDbSymbolTable
70
4
0
LTYPE
5
14
330
5
100
AcDbSymbolTableRecord
100
AcDbLinetypeTableRecord
2
ByBlock
70
0
3

72
65
73
0
40
0
0
LTYPE
5
15
330
5
100
AcDbSymbolTableRecord
100
AcDbLinetypeTableRecord
2
ByLayer
70
0
3

72
65
73
0
40
0
0
LTYPE
5
16
330
5
100
AcDbSymbolTableRecord
100
AcDbLinetypeTableRecord
2
Continuous
70
0
3
Solid line
72
65
73
0
40
0
0
LTYPE
5
32
330
5
100
AcDbSymbolTableRecord
100
AcDbLinetypeTableRecord
2
DOT
70
0
3
Dot . . . . . . . . . . . . . . . . . . . . . .
72
65
73
2
40
6.35
49
0
74
0
49
-6.35
74
0
0
LTYPE
5
33
330
5
100
AcDbSymbolTableRecord
100
AcDbLinetypeTableRecord
2
DOT2
70
0
3
Dot (.5x) .....................................
72
65
73
2
40
3.175
49
0
74
0
49
-3.175
74
0
0
LTYPE
5
34
330
5
100
AcDbSymbolTableRecord
100
AcDbLinetypeTableRecord
2
DOTX2
70
0
3
Dot (2x) .  .  .  .  .  .  .  .  .  .  .  .  .
72
65
73
2
40
12.7
49
0
74
0
49
-12.7
74
0
0
LTYPE
5
35
330
5
100
AcDbSymbolTableRecord
100
AcDbLinetypeTableRecord
2
DASHED
70
0
3
Dot . . . . . . . . . . . . . . . . . . . . . .
72
65
73
2
40
19.05
49
12.7
74
0
49
-6.35
74
0
0
LTYPE
5
36
330
5
100
AcDbSymbolTableRecord
100
AcDbLinetypeTableRecord
2
DASHED2
70
0
3
Dashed (.5x) _ _ _ _ _ _ _ _ _ _ _ _ _ _ _ _ _
72
65
73
2
40
9.525
49
6.35
74
0
49
-3.175
74
0
0
LTYPE
5
37
330
5
100
AcDbSymbolTableRecord
100
AcDbLinetypeTableRecord
2
DASHEDX2
70
0
3
Dashed (2x) ____  ____  ____  ____  ____  ___
72
65
73
2
40
38.1
49
25.4
74
0
49
-12.7
74
0
0
LTYPE
5
38
330
5
100
AcDbSymbolTableRecord
100
AcDbLinetypeTableRecord
2
DASHDOT
70
0
3
Dash dot __ . __ . __ . __ . __ . __ . __ . __
72
65
73
4
40
25.4
49
12.7
74
0
49
-6.35
74
0
49
0
74
0
49
-6.35
74
0
0
LTYPE
5
39
330
5
100
AcDbSymbolTableRecord
100
AcDbLinetypeTableRecord
2
DASHDOT2
70
0
3
Dash dot (.5x) _._._._._._._._._._._._._._._.
72
65
73
4
40
12.7
49
6.35
74
0
49
-3.175
74
0
49
0
74
0
49
-3.175
74
0
0
LTYPE
5
3A
330
5
100
AcDbSymbolTableRecord
100
AcDbLinetypeTableRecord
2
DASHDOTX2
70
0
3
Dash dot (2x) ____  .  ____  .  ____  .  ___
72
65
73
4
40
50.8
49
25.4
74
0
49
-12.7
74
0
49
0
74
0
49
-12.7
74
0
0
LTYPE
5
3B
330
5
100
AcDbSymbolTableRecord
100
AcDbLinetypeTableRecord
2
DIVIDE
70
0
3
Divide ____ . . ____ . . ____ . . ____ . . ____
72
65
73
6
40
31.75
49
12.7
74
0
49
-6.35
74
0
49
0
74
0
49
-6.35
74
0
49
0
74
0
49
-6.35
74
0
0
LTYPE
5
3C
330
5
100
AcDbSymbolTableRecord
100
AcDbLinetypeTableRecord
2
DIVIDE2
70
0
3
Divide (.5x) __..__..__..__..__..__..__..__.._
72
65
73
6
40
15.875
49
6.35
74
0
49
-3.175
74
0
49
0
74
0
49
-3.175
74
0
49
0
74
0
49
-3.175
74
0
0
LTYPE
5
3D
330
5
100
AcDbSymbolTableRecord
100
AcDbLinetypeTableRecord
2
DIVIDEX2
70
0
3
Divide (2x) ________  .  .  ________  .  .  _
72
65
73
6
40
63.5
49
25.4
74
0
49
-12.7
74
0
49
0
74
0
49
-12.7
74
0
49
0
74
0
49
-12.7
74
0
0
LTYPE
5
3E
330
5
100
AcDbSymbolTableRecord
100
AcDbLinetypeTableRecord
2
BORDER
70
0
3
Border __ __ . __ __ . __ __ . __ __ . __ __ .
72
65
73
6
40
44.45
49
12.7
74
0
49
-6.35
74
0
49
12.7
74
0
49
-6.35
74
0
49
0
74
0
49
-6.35
74
0
0
LTYPE
5
3F
330
5
100
AcDbSymbolTableRecord
100
AcDbLinetypeTableRecord
2
BORDER2
70
0
3
Border (.5x) __.__.__.__.__.__.__.__.__.__.__.
72
65
73
6
40
22.225
49
6.35
74
0
49
-3.175
74
0
49
6.35
74
0
49
-3.175
74
0
49
0
74
0
49
-3.175
74
0
0
LTYPE
5
40
330
5
100
AcDbSymbolTableRecord
100
AcDbLinetypeTableRecord
2
BORDERX2
70
0
3
Border (2x) ____  ____  .  ____  ____  .  ___
72
65
73
6
40
88.9
49
25.4
74
0
49
-12.7
74
0
49
25.4
74
0
49
-12.7
74
0
49
0
74
0
49
-12.7
74
0
0
LTYPE
5
41
330
5
100
AcDbSymbolTableRecord
100
AcDbLinetypeTableRecord
2
CENTER
70
0
3
Center ____ _ ____ _ ____ _ ____ _ ____ _ ____
72
65
73
4
40
50.8
49
31.75
74
0
49
-6.35
74
0
49
6.35
74
0
49
-6.35
74
0
0
LTYPE
5
42
330
5
100
AcDbSymbolTableRecord
100
AcDbLinetypeTableRecord
2
CENTER2
70
0
3
Center (.5x) ___ _ ___ _ ___ _ ___ _ ___ _ ___
72
65
73
4
40
28.575
49
19.05
74
0
49
-3.175
74
0
49
3.175
74
0
49
-3.175
74
0
0
LTYPE
5
43
330
5
100
AcDbSymbolTableRecord
100
AcDbLinetypeTableRecord
2
CENTERX2
70
0
3
Center (2x) ________  __  ________  __  _____
72
65
73
4
40
101.6
49
63.5
74
0
49
-12.7
74
0
49
12.7
74
0
49
-12.7
74
0
0
ENDTAB
0
TABLE
2
LAYER
5
2
330
0
100
AcDbSymbolTable
70
1
0
LAYER
5
10
330
2
100
AcDbSymbolTableRecord
100
AcDbLayerTableRecord
2
0
70
0
62
256
6
CONTINUOUS
370
-3
390
F
0
LAYER
5
44
330
2
100
AcDbSymbolTableRecord
100
AcDbLayerTableRecord
2
_MANSFEN_
70
0
62
256
6
CONTINUOUS
370
-3
390
F
0
LAYER
5
45
330
2
100
AcDbSymbolTableRecord
100
AcDbLayerTableRecord
2
Walls
70
0
62
7
6
CONTINUOUS
370
15
390
F
0
ENDTAB
0
TABLE
2
STYLE
5
3
330
0
100
AcDbSymbolTable
70
3
0
STYLE
5
46
330
2
100
AcDbSymbolTableRecord
100
AcDbTextStyleTableRecord
2
standard
70
0
40
0
41
1
50
0
71
0
42
1
3
standard
4

0
ENDTAB
0
TABLE
2
VIEW
5
6
330
0
100
AcDbSymbolTable
70
0
0
ENDTAB
0
TABLE
2
UCS
5
7
330
0
100
AcDbSymbolTable
70
0
0
ENDTAB
0
TABLE
2
APPID
5
9
330
0
100
AcDbSymbolTable
70
1
0
APPID
5
12
330
9
100
AcDbSymbolTableRecord
100
AcDbRegAppTableRecord
2
ACAD
70
0
0
ENDTAB
0
TABLE
2
DIMSTYLE
5
A
330
0
100
AcDbSymbolTable
70
1
100
AcDbDimStyleTable
71
1
0
DIMSTYLE
105
47
330
A
100
AcDbSymbolTableRecord
100
AcDbDimStyleTableRecord
2
Standard
70
0
40
1
41
0.15
42
0
43
0.38
44
0.125
45
0
46
0
47
0
48
0
140
0.2
141
0.09
142
0
143
25.4
144
1
145
0
146
1
147
0.1
148
0
71
0
72
0
73
0
74
1
75
0
76
0
77
0
78
0
79
0
170
0
171
2
172
0
173
0
174
0
175
0
176
0
177
0
178
0
179
0
271
4
272
4
273
2
274
2
275
0
276
0
277
2
278
46
279
0
280
0
281
0
282
0
283
1
284
0
285
0
286
0
288
0
289
3
340
Standard
341

371
-2
372
-2
0
ENDTAB
0
TABLE
2
BLOCK_RECORD
5
1
330
0
100
AcDbSymbolTable
70
2
0
BLOCK_RECORD
5
1F
330
1
100
AcDbSymbolTableRecord
100
AcDbBlockTableRecord
2
*Model_Space
70
0
280
1
281
0
0
BLOCK_RECORD
5
1E
330
1
100
AcDbSymbolTableRecord
100
AcDbBlockTableRecord
2
*Paper_Space
70
0
280
1
281
0
0
ENDTAB
0
ENDSEC
0
SECTION
2
BLOCKS
0
BLOCK
5
20
330
1F
100
AcDbEntity
8
0
100
AcDbBlockBegin
2
*Model_Space
70
0
10
0
20
0
30
0
3
*Model_Space
1

0
ENDBLK
5
21
330
1F
100
AcDbEntity
8
0
100
AcDbBlockEnd
0
BLOCK
5
1C
330
1B
100
AcDbEntity
8
0
100
AcDbBlockBegin
2
*Paper_Space
70
0
10
0
20
0
30
0
3
*Paper_Space
1

0
ENDBLK
5
1D
330
1F
100
AcDbEntity
8
0
100
AcDbBlockEnd
0
ENDSEC
0
SECTION
2
ENTITIES
0
LINE
5
48
100
AcDbEntity
8
Walls
6
CONTINUOUS
62
256
370
-1
100
AcDbLine
10
10
20
9.75
11
10
21
8.75
0
ARC
5
49
100
AcDbEntity
8
Walls
6
ByLayer
62
256
370
-1
100
AcDbCircle
10
7.515
20
31.51
40
0.8
100
AcDbArc
50
180
51
270
0
LINE
5
4A
100
AcDbEntity
8
Walls
6
ByLayer
62
256
370
-1
100
AcDbLine
10
7.52
20
31.51
11
6.715
21
31.51
0
LINE
5
4B
100
AcDbEntity
8
Walls
6
ByLayer
62
256
370
-1
100
AcDbLine
10
7.55
20
28.94
11
6.54
21
28.94
0
ARC
5
4C
100
AcDbEntity
8
Walls
6
ByLayer
62
256
370
-1
100
AcDbCircle
10
7.55
20
28.94
40
1.01
100
AcDbArc
50
180
51
270
0
LINE
5
4D
100
AcDbEntity
8
Walls
6
ByLayer
62
256
370
-1
100
AcDbLine
10
9.89
20
27.98
11
8.91
21
27.98
0
ARC
5
4E
100
AcDbEntity
8
Walls
6
ByLayer
62
256
370
-1
100
AcDbCircle
10
14.8551137313
20
15.03
40
0.89
100
AcDbArc
50
270
51
0
0
LINE
5
4F
100
AcDbEntity
8
Walls
6
ByLayer
62
256
370
-1
100
AcDbLine
10
14.8551137313
20
15.03
11
15.7451137313
21
15.03
0
ARC
5
50
100
AcDbEntity
8
Walls
6
ByLayer
62
256
370
-1
100
AcDbCircle
10
18.755
20
15.11
40
0.89
100
AcDbArc
50
270
51
0
0
LINE
5
51
100
AcDbEntity
8
Walls
6
ByLayer
62
256
370
-1
100
AcDbLine
10
18.755
20
15.11
11
19.645
21
15.11
0
ARC
5
52
100
AcDbEntity
8
Walls
6
ByLayer
62
256
370
-1
100
AcDbCircle
10
26.87995
20
14.01
40
0.83
100
AcDbArc
50
180
51
270
0
LINE
5
53
100
AcDbEntity
8
Walls
6
ByLayer
62
256
370
-1
100
AcDbLine
10
26.87995
20
14.01
11
26.04995
21
14.01
0
ARC
5
54
100
AcDbEntity
8
Walls
6
ByLayer
62
256
370
-1
100
AcDbCircle
10
52.4135182147
20
14.45
40
0.83
100
AcDbArc
50
270
51
0
0
LINE
5
55
100
AcDbEntity
8
Walls
6
ByLayer
62
256
370
-1
100
AcDbLine
10
52.4135182147
20
14.45
11
53.2435182147
21
14.45
0
LINE
5
56
100
AcDbEntity
8
Walls
6
ByLayer
62
256
370
-1
100
AcDbLine
10
56.4851
20
14.44
11
57.3151
21
14.44
0
ARC
5
57
100
AcDbEntity
8
Walls
6
ByLayer
62
256
370
-1
100
AcDbCircle
10
56.4851
20
14.44
40
0.83
100
AcDbArc
50
270
51
0
0
ARC
5
58
100
AcDbEntity
8
Walls
6
ByLayer
62
256
370
-1
100
AcDbCircle
10
75.3148862687
20
14.46
40
0.83
100
AcDbArc
50
270
51
0
0
LINE
5
59
100
AcDbEntity
8
Walls
6
ByLayer
62
256
370
-1
100
AcDbLine
10
75.3148862687
20
14.46
11
76.1448862687
21
14.46
0
ARC
5
5A
100
AcDbEntity
8
Walls
6
ByLayer
62
256
370
-1
100
AcDbCircle
10
81.1448862687
20
14.99
40
0.83
100
AcDbArc
50
180
51
270
0
LINE
5
5B
100
AcDbEntity
8
Walls
6
ByLayer
62
256
370
-1
100
AcDbLine
10
81.1448862687
20
14.99
11
80.3148862687
21
14.99
0
LINE
5
5C
100
AcDbEntity
8
Walls
6
ByLayer
62
256
370
-1
100
AcDbLine
10
88.5548
20
15.39
11
88.5548
21
14.216484691
0
ARC
5
5D
100
AcDbEntity
8
Walls
6
ByLayer
62
256
370
-1
100
AcDbCircle
10
88.5548
20
15.39
40
1.17351530898
100
AcDbArc
50
180
51
270
0
ARC
5
5E
100
AcDbEntity
8
Walls
6
ByLayer
62
256
370
-1
100
AcDbCircle
10
60.2247862687
20
14.46
40
0.83
100
AcDbArc
50
180
51
270
0
LINE
5
5F
100
AcDbEntity
8
Walls
6
ByLayer
62
256
370
-1
100
AcDbLine
10
60.2247862687
20
14.46
11
59.3947862687
21
14.46
0
ARC
5
60
100
AcDbEntity
8
Walls
6
CONTINUOUS
62
256
370
-1
100
AcDbCircle
10
10.925
20
29.39
40
0.835263314202
100
AcDbArc
50
90
51
148.667042654
0
LINE
5
61
100
AcDbEntity
8
Walls
6
CONTINUOUS
62
256
370
-1
100
AcDbLine
10
10.925
20
29.39
11
10.2115516095
21
29.8243457127
0
ARC
5
62
100
AcDbEntity
8
Walls
6
CONTINUOUS
62
256
370
-1
100
AcDbCircle
10
39.12
20
18.4098842685
40
0.77
100
AcDbArc
50
90
51
180
0
ARC
5
63
100
AcDbEntity
8
Walls
6
CONTINUOUS
62
256
370
-1
100
AcDbCircle
10
37.99
20
32.0502
40
0.95
100
AcDbArc
50
270
51
359.992436083
0
ARC
5
64
100
AcDbEntity
8
Walls
6
CONTINUOUS
62
256
370
-1
100
AcDbCircle
10
78.7699801471
20
18.4098842685
40
0.84
100
AcDbArc
50
90
51
180
0
LINE
5
65
100
AcDbEntity
8
Walls
6
CONTINUOUS
62
256
370
-1
100
AcDbLine
10
78.7699801471
20
18.4098842685
11
78.7699801471
21
19.2498842685
0
ARC
5
66
100
AcDbEntity
8
Walls
6
CONTINUOUS
62
256
370
-1
100
AcDbCircle
10
83.2499801471
20
18.4098842685
40
0.84
100
AcDbArc
50
0
51
90
0
LINE
5
67
100
AcDbEntity
8
Walls
6
CONTINUOUS
62
256
370
-1
100
AcDbLine
10
83.2499801471
20
18.4098842685
11
83.2499801471
21
19.2498842685
0
LINE
5
68
100
AcDbEntity
8
Walls
6
CONTINUOUS
62
256
370
-1
100
AcDbLine
10
80.7149801471
20
18.4098842685
11
80.7149801471
21
19.3598842685
0
ARC
5
69
100
AcDbEntity
8
Walls
6
CONTINUOUS
62
256
370
-1
100
AcDbCircle
10
80.7149801471
20
18.4098842685
40
0.95
100
AcDbArc
50
90
51
180
0
ARC
5
6A
100
AcDbEntity
8
Walls
6
CONTINUOUS
62
256
370
-1
100
AcDbCircle
10
79.15
20
20.19
40
0.685
100
AcDbArc
50
5.943e-13
51
90
0
LINE
5
6B
100
AcDbEntity
8
Walls
6
CONTINUOUS
62
256
370
-1
100
AcDbLine
10
79.15
20
20.19
11
79.15
21
20.875
0
ARC
5
6C
100
AcDbEntity
8
Walls
6
CONTINUOUS
62
256
370
-1
100
AcDbCircle
10
83.225
20
20.715
40
0.725
100
AcDbArc
50
90
51
180
0
LINE
5
6D
100
AcDbEntity
8
Walls
6
CONTINUOUS
62
256
370
-1
100
AcDbLine
10
83.225
20
20.715
11
83.225
21
21.44
0
ARC
5
6E
100
AcDbEntity
8
Walls
6
ByLayer
62
256
370
-1
100
AcDbCircle
10
92.3087141798
20
19.8192064133
40
1.06
100
AcDbArc
50
7.4
51
97.4
0
LINE
5
6F
100
AcDbEntity
8
Walls
6
ByLayer
62
256
370
-1
100
AcDbLine
10
92.3087141798
20
19.8192064133
11
92.1721908474
21
20.8703778454
0
ARC
5
70
100
AcDbEntity
8
Walls
6
ByLayer
62
256
370
-1
100
AcDbCircle
10
99.4117853852
20
21.6795451661
40
0.98
100
AcDbArc
50
7.4
51
97.4
0
LINE
5
71
100
AcDbEntity
8
Walls
6
ByLayer
62
256
370
-1
100
AcDbLine
10
99.4117853852
20
21.6795451661
11
99.2856674552
21
22.6505994381
0
ARC
5
72
100
AcDbEntity
8
Walls
6
ByLayer
62
256
370
-1
100
AcDbCircle
10
101.355460863
20
21.9319845354
40
0.98
100
AcDbArc
50
97.4
51
187.4
0
LINE
5
73
100
AcDbEntity
8
Walls
6
ByLayer
62
256
370
-1
100
AcDbLine
10
101.355460863
20
21.9319845354
11
101.229342933
21
22.9030388074
0
ARC
5
74
100
AcDbEntity
8
Walls
6
ByLayer
62
256
370
-1
100
AcDbCircle
10
107.62529511
20
22.0799611415
40
1.18010051994
100
AcDbArc
50
7.4
51
97.4
0
LINE
5
75
100
AcDbEntity
8
Walls
6
ByLayer
62
256
370
-1
100
AcDbLine
10
107.62529511
20
22.0799611415
11
107.473303359
21
23.2502327958
0
LINE
5
76
100
AcDbEntity
8
Walls
6
ByLayer
62
256
370
-1
100
AcDbLine
10
95.0808198929
20
23.7180704498
11
95.2070395775
21
22.7462327107
0
ARC
5
77
100
AcDbEntity
8
Walls
6
ByLayer
62
256
370
-1
100
AcDbCircle
10
95.0808198929
20
23.7180704498
40
0.98
100
AcDbArc
50
187.4
51
277.4
0
ARC
5
78
100
AcDbEntity
8
Walls
6
CONTINUOUS
62
256
370
-1
100
AcDbCircle
10
8.87
20
15.395
40
1.19
100
AcDbArc
50
180
51
270
0
LINE
5
79
100
AcDbEntity
8
Walls
6
CONTINUOUS
62
256
370
-1
100
AcDbLine
10
8.87
20
15.39
11
8.87
21
14.2
0
LINE
5
7A
100
AcDbEntity
8
Walls
6
CONTINUOUS
62
256
370
-1
100
AcDbLine
10
8.87
20
15.395
11
8.87
21
14.205
0
ARC
5
7B
100
AcDbEntity
8
Walls
6
CONTINUOUS
62
256
370
-1
100
AcDbCircle
10
39.155
20
18.575
40
0.89
100
AcDbArc
50
179.678111905
51
180
0
LINE
5
7C
100
AcDbEntity
8
Walls
6
ByLayer
62
256
370
-1
100
AcDbLine
10
105.074462481
20
25.0160180034
11
105.200682166
21
24.0441802643
0
ARC
5
7D
100
AcDbEntity
8
Walls
6
ByLayer
62
256
370
-1
100
AcDbCircle
10
105.074462481
20
25.0160180034
40
0.98
100
AcDbArc
50
277.4
51
7.40000000001
0
LINE
5
7E
100
AcDbEntity
8
Walls
6
ByLayer
62
256
370
-1
100
AcDbLine
10
97.2952804985
20
20.7391159745
11
98.9464129838
21
20.9535606428
0
LINE
5
7F
100
AcDbEntity
8
Walls
6
CONTINUOUS
62
256
370
-1
100
AcDbLine
10
96.6504318313
20
20.2419212516
11
99.5446383178
21
20.6178130444
0
LINE
5
80
100
AcDbEntity
8
Walls
6
ByLayer
62
256
370
-1
100
AcDbLine
10
12.8
20
18.55
11
34.8
21
18.55
0
LINE
5
81
100
AcDbEntity
8
Walls
6
ByLayer
62
256
370
-1
100
AcDbLine
10
10.117115679
20
8.69
11
88.055
21
8.69
0
LINE
5
82
100
AcDbEntity
8
Walls
6
CONTINUOUS
62
256
370
-1
100
AcDbLine
10
10
20
9.75
11
89.755
21
9.75
0
LINE
5
83
100
AcDbEntity
8
Walls
6
ByLayer
62
256
370
-1
100
AcDbLine
10
12.8
20
36.35
11
12.8
21
18.55
0
LINE
5
84
100
AcDbEntity
8
Walls
6
ByLayer
62
256
370
-1
100
AcDbLine
10
4
20
9.25
11
4
21
36.35
0
LINE
5
85
100
AcDbEntity
8
Walls
6
ByLayer
62
256
370
-1
100
AcDbLine
10
10
20
10.16
11
10
21
15.2500004829
0
LINE
5
86
100
AcDbEntity
8
Walls
6
CONTINUOUS
62
256
370
-1
100
AcDbLine
10
14.6251137313
20
10.16
11
14.6251137313
21
14.14
0
LINE
5
87
100
AcDbEntity
8
Walls
6
CONTINUOUS
62
256
370
-1
100
AcDbLine
10
14.8551137313
20
10.16
11
14.8551137313
21
14.14
0
LINE
5
88
100
AcDbEntity
8
Walls
6
CONTINUOUS
62
256
370
-1
100
AcDbLine
10
3.97
20
9.3
11
3.97
21
6.86
0
LINE
5
89
100
AcDbEntity
8
Walls
6
CONTINUOUS
62
256
370
-1
100
AcDbLine
10
4
20
6.01
11
4
21
6.9098
0
LINE
5
8A
100
AcDbEntity
8
Walls
6
ByLayer
62
256
370
-1
100
AcDbLine
10
4.51
20
5.99
11
4.51
21
6.91
0
LINE
5
8B
100
AcDbEntity
8
Walls
6
ByLayer
62
256
370
-1
100
AcDbLine
10
4
20
5.99
11
4
21
6.9098
0
LINE
5
8C
100
AcDbEntity
8
Walls
6
ByLayer
62
256
370
-1
100
AcDbLine
10
4.51
20
9.25
11
4.51
21
11.99
0
LINE
5
8D
100
AcDbEntity
8
Walls
6
CONTINUOUS
62
256
370
-1
100
AcDbLine
10
7.67
20
12.34
11
7.67
21
12.26
0
LINE
5
8E
100
AcDbEntity
8
Walls
6
ByLayer
62
256
370
-1
100
AcDbLine
10
9.49
20
5.99
11
9.49
21
6.9098
0
LINE
5
8F
100
AcDbEntity
8
Walls
6
ByLayer
62
256
370
-1
100
AcDbLine
10
11.8851558668
20
9.92
11
11.885
21
10.16
0
LINE
5
90
100
AcDbEntity
8
Walls
6
ByLayer
62
256
370
-1
100
AcDbLine
10
9.49
20
8.75
11
9.49
21
11.99
0
LINE
5
91
100
AcDbEntity
8
Walls
6
ByLayer
62
256
370
-1
100
AcDbLine
10
10.9051558668
20
9.92
11
10.905
21
10.16
0
LINE
5
92
100
AcDbEntity
8
Walls
6
CONTINUOUS
62
256
370
-1
100
AcDbLine
10
11.8851558668
20
9.92
11
10.9051558668
21
9.92
0
LINE
5
93
100
AcDbEntity
8
Walls
6
ByLayer
62
256
370
-1
100
AcDbLine
10
10.9652662725
20
9.75
11
10.9651558668
21
9.92
0
LINE
5
94
100
AcDbEntity
8
Walls
6
CONTINUOUS
62
256
370
-1
100
AcDbLine
10
9.995
20
8.75
11
9.49
21
8.75
0
LINE
5
95
100
AcDbEntity
8
Walls
6
ByLayer
62
256
370
-1
100
AcDbLine
10
11.8252662725
20
9.75
11
11.8251558668
21
9.92
0
LINE
5
96
100
AcDbEntity
8
Walls
6
ByLayer
62
256
370
-1
100
AcDbLine
10
4.41
20
22.5
11
9.89
21
22.5
0
LINE
5
97
100
AcDbEntity
8
Walls
6
ByLayer
62
256
370
-1
100
AcDbLine
10
4.41
20
22.3
11
9.81
21
22.3
0
LINE
5
98
100
AcDbEntity
8
Walls
6
ByLayer
62
256
370
-1
100
AcDbLine
10
9.02
20
18.55
11
9.81
21
18.55
0
LINE
5
99
100
AcDbEntity
8
Walls
6
ByLayer
62
256
370
-1
100
AcDbLine
10
8.93
20
15.25
11
9.59
21
15.25
0
LINE
5
9A
100
AcDbEntity
8
Walls
6
ByLayer
62
256
370
-1
100
AcDbLine
10
9.01
20
15.53
11
12.5651137313
21
15.53
0
LINE
5
9B
100
AcDbEntity
8
Walls
6
CONTINUOUS
62
256
370
-1
100
AcDbLine
10
8.090033
20
18.565
11
8.090033
21
18.295
0
LINE
5
9C
100
AcDbEntity
8
Walls
6
CONTINUOUS
62
256
370
-1
100
AcDbLine
10
8.220066
20
18.565
11
8.220066
21
18.295
0
LINE
5
9D
100
AcDbEntity
8
Walls
6
CONTINUOUS
62
256
370
-1
100
AcDbLine
10
8.490066
20
18.565
11
8.490066
21
18.295
0
LINE
5
9E
100
AcDbEntity
8
Walls
6
CONTINUOUS
62
256
370
-1
100
AcDbLine
10
8.890099
20
18.565
11
8.890099
21
18.295
0
LINE
5
9F
100
AcDbEntity
8
Walls
6
CONTINUOUS
62
256
370
-1
100
AcDbLine
10
8.620099
20
18.565
11
8.620099
21
18.295
0
LINE
5
A0
100
AcDbEntity
8
Walls
6
CONTINUOUS
62
256
370
-1
100
AcDbLine
10
7.820033
20
18.565
11
7.820033
21
18.295
0
LINE
5
A1
100
AcDbEntity
8
Walls
6
ByLayer
62
256
370
-1
100
AcDbLine
10
4.41
20
18.14
11
5.65
21
18.14
0
LINE
5
A2
100
AcDbEntity
8
Walls
6
ByLayer
62
256
370
-1
100
AcDbLine
10
4.41
20
15.53
11
5.17
21
15.5300130687
0
LINE
5
A3
100
AcDbEntity
8
Walls
6
ByLayer
62
256
370
-1
100
AcDbLine
10
4.176
20
12.8098362687
11
4.176
21
13.7897637313
0
LINE
5
A4
100
AcDbEntity
8
Walls
6
ByLayer
62
256
370
-1
100
AcDbLine
10
6.27808713497
20
15.53
11
7.54
21
15.53
0
LINE
5
A5
100
AcDbEntity
8
Walls
6
ByLayer
62
256
370
-1
100
AcDbLine
10
6.2
20
15.2500130687
11
7.62
21
15.249987991
0
ARC
5
A6
100
AcDbEntity
8
Walls
6
CONTINUOUS
62
256
370
-1
100
AcDbCircle
10
6.28
20
15.3900130687
40
0.14
100
AcDbArc
50
90
51
180
0
LINE
5
A7
100
AcDbEntity
8
Walls
6
CONTINUOUS
62
256
370
-1
100
AcDbLine
10
6.14
20
15.3900130687
11
6.2
21
15.3900130687
0
LINE
5
A8
100
AcDbEntity
8
Walls
6
CONTINUOUS
62
256
370
-1
100
AcDbLine
10
6.2
20
15.2500130687
11
6.2
21
15.3900130687
0
ARC
5
A9
100
AcDbEntity
8
Walls
6
CONTINUOUS
62
256
370
-1
100
AcDbCircle
10
5.17
20
15.3900130687
40
0.14
100
AcDbArc
50
360
51
90
0
LINE
5
AA
100
AcDbEntity
8
Walls
6
CONTINUOUS
62
256
370
-1
100
AcDbLine
10
5.31
20
15.3900130687
11
5.25
21
15.3900130687
0
LINE
5
AB
100
AcDbEntity
8
Walls
6
ByLayer
62
256
370
-1
100
AcDbLine
10
5.25
20
15.2500130687
11
5.25
21
15.3900130687
0
LINE
5
AC
100
AcDbEntity
8
Walls
6
CONTINUOUS
62
256
370
-1
100
AcDbLine
10
8.93
20
15.25
11
8.93
21
15.39
0
LINE
5
AD
100
AcDbEntity
8
Walls
6
CONTINUOUS
62
256
370
-1
100
AcDbLine
10
8.87
20
15.39
11
8.93
21
15.39
0
ARC
5
AE
100
AcDbEntity
8
Walls
6
CONTINUOUS
62
256
370
-1
100
AcDbCircle
10
9.01
20
15.39
40
0.14
100
AcDbArc
50
90
51
180
0
LINE
5
AF
100
AcDbEntity
8
Walls
6
ByLayer
62
256
370
-1
100
AcDbLine
10
7.62
20
15.249987991
11
7.62
21
15.39
0
LINE
5
B0
100
AcDbEntity
8
Walls
6
CONTINUOUS
62
256
370
-1
100
AcDbLine
10
7.62
20
15.3825
11
7.62
21
15.39
0
ARC
5
B1
100
AcDbEntity
8
Walls
6
CONTINUOUS
62
256
370
-1
100
AcDbCircle
10
7.54
20
15.39
40
0.14
100
AcDbArc
50
360
51
90
0
LINE
5
B2
100
AcDbEntity
8
Walls
6
CONTINUOUS
62
256
370
-1
100
AcDbLine
10
7.68
20
15.39
11
7.62
21
15.39
0
LINE
5
B3
100
AcDbEntity
8
Walls
6
CONTINUOUS
62
256
370
-1
100
AcDbLine
10
7.62
20
15.25
11
7.62
21
15.39
0
LINE
5
B4
100
AcDbEntity
8
Walls
6
CONTINUOUS
62
256
370
-1
100
AcDbLine
10
8.220066
20
18.295
11
8.490066
21
18.295
0
LINE
5
B5
100
AcDbEntity
8
Walls
6
CONTINUOUS
62
256
370
-1
100
AcDbLine
10
8.620099
20
18.295
11
8.890099
21
18.295
0
LINE
5
B6
100
AcDbEntity
8
Walls
6
CONTINUOUS
62
256
370
-1
100
AcDbLine
10
7.820033
20
18.295
11
8.090033
21
18.295
0
LINE
5
B7
100
AcDbEntity
8
Walls
6
ByLayer
62
256
370
-1
100
AcDbLine
10
4.41
20
18.55
11
5.86
21
18.55
0
LINE
5
B8
100
AcDbEntity
8
Walls
6
CONTINUOUS
62
256
370
-1
100
AcDbLine
10
9.02
20
18.55
11
9.02
21
18.67
0
LINE
5
B9
100
AcDbEntity
8
Walls
6
CONTINUOUS
62
256
370
-1
100
AcDbLine
10
8.220066
20
18.565
11
8.490066
21
18.565
0
LINE
5
BA
100
AcDbEntity
8
Walls
6
CONTINUOUS
62
256
370
-1
100
AcDbLine
10
8.620099
20
18.565
11
8.890099
21
18.565
0
LINE
5
BB
100
AcDbEntity
8
Walls
6
ByLayer
62
256
370
-1
100
AcDbLine
10
7.12
20
18.55
11
7.69
21
18.55
0
LINE
5
BC
100
AcDbEntity
8
Walls
6
CONTINUOUS
62
256
370
-1
100
AcDbLine
10
7.69
20
18.55
11
7.69
21
18.67
0
LINE
5
BD
100
AcDbEntity
8
Walls
6
CONTINUOUS
62
256
370
-1
100
AcDbLine
10
7.69
20
18.67
11
9.02
21
18.67
0
LINE
5
BE
100
AcDbEntity
8
Walls
6
CONTINUOUS
62
256
370
-1
100
AcDbLine
10
7.820033
20
18.565
11
8.090033
21
18.565
0
LINE
5
BF
100
AcDbEntity
8
Walls
6
ByLayer
62
256
370
-1
100
AcDbLine
10
10.04
20
27.98
11
10.04
21
18.14
0
LINE
5
C0
100
AcDbEntity
8
Walls
6
ByLayer
62
256
370
-1
100
AcDbLine
10
10
20
15.2500004829
11
12.6451137313
21
15.25
0
LINE
5
C1
100
AcDbEntity
8
Walls
6
ByLayer
62
256
370
-1
100
AcDbLine
10
14.8551137313
20
15.25
11
16.0151137313
21
15.25
0
LINE
5
C2
100
AcDbEntity
8
Walls
6
ByLayer
62
256
370
-1
100
AcDbLine
10
13.9851137313
20
15.53
11
15.9351137313
21
15.53
0
LINE
5
C3
100
AcDbEntity
8
Walls
6
ByLayer
62
256
370
-1
100
AcDbLine
10
13.9051137313
20
15.25
11
14.6251137313
21
15.25
0
LINE
5
C4
100
AcDbEntity
8
Walls
6
ByLayer
62
256
370
-1
100
AcDbLine
10
14.8551137313
20
15.03
11
14.8551137313
21
15.25
0
LINE
5
C5
100
AcDbEntity
8
Walls
6
CONTINUOUS
62
256
370
-1
100
AcDbLine
10
14.6251137313
20
15.03
11
14.6251137313
21
15.25
0
LINE
5
C6
100
AcDbEntity
8
Walls
6
ByLayer
62
256
370
-1
100
AcDbLine
10
14.8551137313
20
14.14
11
14.6251137313
21
14.14
0
LINE
5
C7
100
AcDbEntity
8
Walls
6
ByLayer
62
256
370
-1
100
AcDbLine
10
9.81
20
22.3
11
9.81
21
18.55
0
LINE
5
C8
100
AcDbEntity
8
Walls
6
CONTINUOUS
62
256
370
-1
100
AcDbLine
10
30.985
20
10.16
11
30.985
21
15.25
0
LINE
5
C9
100
AcDbEntity
8
Walls
6
CONTINUOUS
62
256
370
-1
100
AcDbLine
10
31.185
20
10.16
11
31.185
21
15.25
0
LINE
5
CA
100
AcDbEntity
8
Walls
6
CONTINUOUS
62
256
370
-1
100
AcDbLine
10
18.605
20
10.16
11
18.605
21
14.22
0
LINE
5
CB
100
AcDbEntity
8
Walls
6
CONTINUOUS
62
256
370
-1
100
AcDbLine
10
18.755
20
10.16
11
18.755
21
14.22
0
LINE
5
CC
100
AcDbEntity
8
Walls
6
CONTINUOUS
62
256
370
-1
100
AcDbLine
10
22.775
20
10.16
11
22.775
21
15.25
0
LINE
5
CD
100
AcDbEntity
8
Walls
6
CONTINUOUS
62
256
370
-1
100
AcDbLine
10
22.625
20
10.16
11
22.625
21
15.25
0
LINE
5
CE
100
AcDbEntity
8
Walls
6
CONTINUOUS
62
256
370
-1
100
AcDbLine
10
27.1551
20
10.16
11
27.1551
21
13.18
0
LINE
5
CF
100
AcDbEntity
8
Walls
6
CONTINUOUS
62
256
370
-1
100
AcDbLine
10
26.8751
20
10.16
11
26.8751
21
13.18
0
LINE
5
D0
100
AcDbEntity
8
Walls
6
ByLayer
62
256
370
-1
100
AcDbLine
10
24.775
20
15.53
11
27.2351
21
15.53
0
LINE
5
D1
100
AcDbEntity
8
Walls
6
ByLayer
62
256
370
-1
100
AcDbLine
10
24.695
20
15.25
11
26.8751
21
15.25
0
LINE
5
D2
100
AcDbEntity
8
Walls
6
ByLayer
62
256
370
-1
100
AcDbLine
10
21.035
20
15.25
11
22.625
21
15.25
0
LINE
5
D3
100
AcDbEntity
8
Walls
6
ByLayer
62
256
370
-1
100
AcDbLine
10
21.115
20
15.53
11
23.34995
21
15.53
0
LINE
5
D4
100
AcDbEntity
8
Walls
6
ByLayer
62
256
370
-1
100
AcDbLine
10
18.755
20
15.25
11
19.7520139101
21
15.25
0
LINE
5
D5
100
AcDbEntity
8
Walls
6
ByLayer
62
256
370
-1
100
AcDbLine
10
17.3551137313
20
15.53
11
19.675
21
15.53
0
LINE
5
D6
100
AcDbEntity
8
Walls
6
ByLayer
62
256
370
-1
100
AcDbLine
10
17.2751137313
20
15.25
11
18.605
21
15.25
0
LINE
5
D7
100
AcDbEntity
8
Walls
6
ByLayer
62
256
370
-1
100
AcDbLine
10
18.755
20
15.11
11
18.605
21
15.11
0
LINE
5
D8
100
AcDbEntity
8
Walls
6
CONTINUOUS
62
256
370
-1
100
AcDbLine
10
18.755
20
15.11
11
18.755
21
15.25
0
LINE
5
D9
100
AcDbEntity
8
Walls
6
CONTINUOUS
62
256
370
-1
100
AcDbLine
10
18.605
20
15.11
11
18.605
21
15.25
0
LINE
5
DA
100
AcDbEntity
8
Walls
6
ByLayer
62
256
370
-1
100
AcDbLine
10
18.755
20
14.22
11
18.605
21
14.22
0
LINE
5
DB
100
AcDbEntity
8
Walls
6
ByLayer
62
256
370
-1
100
AcDbLine
10
22.775
20
15.25
11
23.435
21
15.25
0
LINE
5
DC
100
AcDbEntity
8
Walls
6
ByLayer
62
256
370
-1
100
AcDbLine
10
28.5751
20
15.25
11
30.985
21
15.25
0
LINE
5
DD
100
AcDbEntity
8
Walls
6
ByLayer
62
256
370
-1
100
AcDbLine
10
28.6551
20
15.53
11
32.005
21
15.53
0
LINE
5
DE
100
AcDbEntity
8
Walls
6
ByLayer
62
256
370
-1
100
AcDbLine
10
27.1551
20
15.25
11
27.3151
21
15.25
0
LINE
5
DF
100
AcDbEntity
8
Walls
6
ByLayer
62
256
370
-1
100
AcDbLine
10
27.1551
20
14.01
11
26.87495
21
14.01
0
LINE
5
E0
100
AcDbEntity
8
Walls
6
ByLayer
62
256
370
-1
100
AcDbLine
10
27.1551
20
13.18
11
26.87495
21
13.18
0
LINE
5
E1
100
AcDbEntity
8
Walls
6
CONTINUOUS
62
256
370
-1
100
AcDbLine
10
26.8751
20
14.01
11
26.8751
21
15.25
0
LINE
5
E2
100
AcDbEntity
8
Walls
6
CONTINUOUS
62
256
370
-1
100
AcDbLine
10
27.1551
20
14.01
11
27.1551
21
15.25
0
LINE
5
E3
100
AcDbEntity
8
Walls
6
ByLayer
62
256
370
-1
100
AcDbLine
10
31.185
20
15.25
11
32.0801
21
15.25
0
LINE
5
E4
100
AcDbEntity
8
Walls
6
ByLayer
62
256
370
-1
100
AcDbLine
10
10.92
20
35.94
11
10.92
21
34.6
0
LINE
5
E5
100
AcDbEntity
8
Walls
6
ByLayer
62
256
370
-1
100
AcDbLine
10
11.04
20
35.94
11
11.04
21
30.225
0
LINE
5
E6
100
AcDbEntity
8
Walls
6
ByLayer
62
256
370
-1
100
AcDbLine
10
8.88
20
34.6
11
10.92
21
34.6
0
LINE
5
E7
100
AcDbEntity
8
Walls
6
ByLayer
62
256
370
-1
100
AcDbLine
10
9
20
34.48
11
10.92
21
34.48
0
LINE
5
E8
100
AcDbEntity
8
Walls
6
ByLayer
62
256
370
-1
100
AcDbLine
10
9
20
32.53
11
10.92
21
32.53
0
LINE
5
E9
100
AcDbEntity
8
Walls
6
ByLayer
62
256
370
-1
100
AcDbLine
10
8.88
20
31.41
11
9
21
31.41
0
LINE
5
EA
100
AcDbEntity
8
Walls
6
ByLayer
62
256
370
-1
100
AcDbLine
10
7.55
20
27.73
11
9.89
21
27.73
0
LINE
5
EB
100
AcDbEntity
8
Walls
6
ByLayer
62
256
370
-1
100
AcDbLine
10
7.27625
20
29.635
11
7.27625
21
29.905
0
LINE
5
EC
100
AcDbEntity
8
Walls
6
ByLayer
62
256
370
-1
100
AcDbLine
10
7.54625
20
29.635
11
7.54625
21
29.905
0
LINE
5
ED
100
AcDbEntity
8
Walls
6
CONTINUOUS
62
256
370
-1
100
AcDbLine
10
7.7
20
28.94
11
7.7
21
30.71
0
LINE
5
EE
100
AcDbEntity
8
Walls
6
ByLayer
62
256
370
-1
100
AcDbLine
10
7.27625
20
29.635
11
7.54625
21
29.635
0
LINE
5
EF
100
AcDbEntity
8
Walls
6
ByLayer
62
256
370
-1
100
AcDbLine
10
7.27625
20
29.51
11
7.54625
21
29.51
0
LINE
5
F0
100
AcDbEntity
8
Walls
6
ByLayer
62
256
370
-1
100
AcDbLine
10
7.27625
20
29.37
11
7.54625
21
29.37
0
LINE
5
F1
100
AcDbEntity
8
Walls
6
ByLayer
62
256
370
-1
100
AcDbLine
10
7.27625
20
29.37
11
7.27625
21
29.51
0
LINE
5
F2
100
AcDbEntity
8
Walls
6
ByLayer
62
256
370
-1
100
AcDbLine
10
7.54625
20
29.37
11
7.54625
21
29.51
0
LINE
5
F3
100
AcDbEntity
8
Walls
6
ByLayer
62
256
370
-1
100
AcDbLine
10
7.54625
20
29.105
11
7.54625
21
29.245
0
LINE
5
F4
100
AcDbEntity
8
Walls
6
ByLayer
62
256
370
-1
100
AcDbLine
10
7.27625
20
29.105
11
7.27625
21
29.245
0
LINE
5
F5
100
AcDbEntity
8
Walls
6
ByLayer
62
256
370
-1
100
AcDbLine
10
7.27625
20
29.105
11
7.54625
21
29.105
0
LINE
5
F6
100
AcDbEntity
8
Walls
6
ByLayer
62
256
370
-1
100
AcDbLine
10
7.27625
20
29.245
11
7.54625
21
29.245
0
LINE
5
F7
100
AcDbEntity
8
Walls
6
CONTINUOUS
62
256
370
-1
100
AcDbLine
10
7.55
20
28.98
11
7.55
21
28.94
0
LINE
5
F8
100
AcDbEntity
8
Walls
6
CONTINUOUS
62
256
370
-1
100
AcDbLine
10
7.14
20
28.98
11
7.55
21
28.98
0
LINE
5
F9
100
AcDbEntity
8
Walls
6
ByLayer
62
256
370
-1
100
AcDbLine
10
7.55
20
27.93
11
7.7
21
27.93
0
LINE
5
FA
100
AcDbEntity
8
Walls
6
CONTINUOUS
62
256
370
-1
100
AcDbLine
10
7.7
20
27.93
11
7.7
21
27.88
0
LINE
5
FB
100
AcDbEntity
8
Walls
6
CONTINUOUS
62
256
370
-1
100
AcDbLine
10
7.55
20
27.93
11
7.55
21
27.73
0
LINE
5
FC
100
AcDbEntity
8
Walls
6
ByLayer
62
256
370
-1
100
AcDbLine
10
4.41
20
32.53
11
7.785
21
32.53
0
LINE
5
FD
100
AcDbEntity
8
Walls
6
ByLayer
62
256
370
-1
100
AcDbLine
10
4.41
20
32.25
11
7.52
21
32.25
0
LINE
5
FE
100
AcDbEntity
8
Walls
6
ByLayer
62
256
370
-1
100
AcDbLine
10
8.88
20
34.6
11
8.88
21
32.53
0
LINE
5
FF
100
AcDbEntity
8
Walls
6
ByLayer
62
256
370
-1
100
AcDbLine
10
9
20
34.48
11
9
21
32.53
0
LINE
5
100
100
AcDbEntity
8
Walls
6
ByLayer
62
256
370
-1
100
AcDbLine
10
8.735
20
32.57
11
8.735
21
32.25
0
LINE
5
101
100
AcDbEntity
8
Walls
6
ByLayer
62
256
370
-1
100
AcDbLine
10
8.735
20
32.53
11
8.88
21
32.53
0
LINE
5
102
100
AcDbEntity
8
Walls
6
ByLayer
62
256
370
-1
100
AcDbLine
10
7.785
20
32.57
11
7.785
21
32.25
0
LINE
5
103
100
AcDbEntity
8
Walls
6
ByLayer
62
256
370
-1
100
AcDbLine
10
7.52
20
31.51
11
7.7
21
31.51
0
LINE
5
104
100
AcDbEntity
8
Walls
6
ByLayer
62
256
370
-1
100
AcDbLine
10
7.52
20
31.55
11
7.52
21
32.25
0
LINE
5
105
100
AcDbEntity
8
Walls
6
CONTINUOUS
62
256
370
-1
100
AcDbLine
10
7.7
20
31.474
11
7.7
21
32.25
0
LINE
5
106
100
AcDbEntity
8
Walls
6
ByLayer
62
256
370
-1
100
AcDbLine
10
7.7
20
32.25
11
8.88
21
32.25
0
LINE
5
107
100
AcDbEntity
8
Walls
6
ByLayer
62
256
370
-1
100
AcDbLine
10
7.515
20
30.67
11
7.515
21
30.71
0
LINE
5
108
100
AcDbEntity
8
Walls
6
ByLayer
62
256
370
-1
100
AcDbLine
10
7.14
20
30.67
11
7.515
21
30.67
0
LINE
5
109
100
AcDbEntity
8
Walls
6
ByLayer
62
256
370
-1
100
AcDbLine
10
7.515
20
30.71
11
7.7
21
30.71
0
LINE
5
10A
100
AcDbEntity
8
Walls
6
ByLayer
62
256
370
-1
100
AcDbLine
10
7.27625
20
30.565
11
7.54625
21
30.565
0
LINE
5
10B
100
AcDbEntity
8
Walls
6
ByLayer
62
256
370
-1
100
AcDbLine
10
7.27625
20
30.425
11
7.54625
21
30.425
0
LINE
5
10C
100
AcDbEntity
8
Walls
6
ByLayer
62
256
370
-1
100
AcDbLine
10
7.27625
20
30.3
11
7.54625
21
30.3
0
LINE
5
10D
100
AcDbEntity
8
Walls
6
ByLayer
62
256
370
-1
100
AcDbLine
10
7.27625
20
30.03
11
7.54625
21
30.03
0
LINE
5
10E
100
AcDbEntity
8
Walls
6
ByLayer
62
256
370
-1
100
AcDbLine
10
7.54625
20
30.425
11
7.54625
21
30.565
0
LINE
5
10F
100
AcDbEntity
8
Walls
6
ByLayer
62
256
370
-1
100
AcDbLine
10
7.27625
20
30.425
11
7.27625
21
30.565
0
LINE
5
110
100
AcDbEntity
8
Walls
6
ByLayer
62
256
370
-1
100
AcDbLine
10
7.27625
20
30.03
11
7.27625
21
30.3
0
LINE
5
111
100
AcDbEntity
8
Walls
6
ByLayer
62
256
370
-1
100
AcDbLine
10
7.54625
20
30.03
11
7.54625
21
30.3
0
LINE
5
112
100
AcDbEntity
8
Walls
6
ByLayer
62
256
370
-1
100
AcDbLine
10
7.27625
20
29.905
11
7.54625
21
29.905
0
LINE
5
113
100
AcDbEntity
8
Walls
6
ByLayer
62
256
370
-1
100
AcDbLine
10
10.04
20
32.25
11
10.04
21
29.28
0
LINE
5
114
100
AcDbEntity
8
Walls
6
ByLayer
62
256
370
-1
100
AcDbLine
10
10.04
20
29.16
11
11.135
21
29.16
0
LINE
5
115
100
AcDbEntity
8
Walls
6
ByLayer
62
256
370
-1
100
AcDbLine
10
11.04
20
29.28
11
11.135
21
29.28
0
LINE
5
116
100
AcDbEntity
8
Walls
6
ByLayer
62
256
370
-1
100
AcDbLine
10
10.04
20
29.28
11
10.92
21
29.28
0
LINE
5
117
100
AcDbEntity
8
Walls
6
ByLayer
62
256
370
-1
100
AcDbLine
10
10.04
20
29.16
11
10.04
21
28.96
0
LINE
5
118
100
AcDbEntity
8
Walls
6
CONTINUOUS
62
256
370
-1
100
AcDbLine
10
10.92
20
29.39
11
11.04
21
29.39
0
LINE
5
119
100
AcDbEntity
8
Walls
6
CONTINUOUS
62
256
370
-1
100
AcDbLine
10
10.92
20
29.28
11
10.92
21
29.39
0
LINE
5
11A
100
AcDbEntity
8
Walls
6
CONTINUOUS
62
256
370
-1
100
AcDbLine
10
11.04
20
29.39
11
11.04
21
29.28
0
LINE
5
11B
100
AcDbEntity
8
Walls
6
ByLayer
62
256
370
-1
100
AcDbLine
10
9.89
20
27.98
11
10.04
21
27.98
0
LINE
5
11C
100
AcDbEntity
8
Walls
6
CONTINUOUS
62
256
370
-1
100
AcDbLine
10
12.295
20
29.28
11
12.295
21
29.16
0
LINE
5
11D
100
AcDbEntity
8
Walls
6
ByLayer
62
256
370
-1
100
AcDbLine
10
12.295
20
29.28
11
12.39
21
29.28
0
LINE
5
11E
100
AcDbEntity
8
Walls
6
ByLayer
62
256
370
-1
100
AcDbLine
10
12.295
20
29.16
11
12.39
21
29.16
0
LINE
5
11F
100
AcDbEntity
8
Walls
6
ByLayer
62
256
370
-1
100
AcDbLine
10
10.92
20
34.48
11
10.92
21
32.53
0
LINE
5
120
100
AcDbEntity
8
Walls
6
CONTINUOUS
62
256
370
-1
100
AcDbLine
10
11.04
20
31.2503801422
11
12.39
21
31.2503801422
0
LINE
5
121
100
AcDbEntity
8
Walls
6
CONTINUOUS
62
256
370
-1
100
AcDbLine
10
11.04
20
31.5503801422
11
12.39
21
31.5503801422
0
LINE
5
122
100
AcDbEntity
8
Walls
6
CONTINUOUS
62
256
370
-1
100
AcDbLine
10
11.04
20
31.8503801422
11
12.39
21
31.8503801422
0
LINE
5
123
100
AcDbEntity
8
Walls
6
CONTINUOUS
62
256
370
-1
100
AcDbLine
10
11.04
20
32.1503801422
11
12.39
21
32.1503801422
0
LINE
5
124
100
AcDbEntity
8
Walls
6
CONTINUOUS
62
256
370
-1
100
AcDbLine
10
11.04
20
32.4503801422
11
12.39
21
32.4503801422
0
LINE
5
125
100
AcDbEntity
8
Walls
6
ByLayer
62
256
370
-1
100
AcDbLine
10
9.04
20
32.25
11
9.88
21
32.25
0
LINE
5
126
100
AcDbEntity
8
Walls
6
CONTINUOUS
62
256
370
-1
100
AcDbLine
10
10.04
20
32.25
11
10.92
21
32.25
0
LINE
5
127
100
AcDbEntity
8
Walls
6
CONTINUOUS
62
256
370
-1
100
AcDbLine
10
10.4775
20
31.4200248307
11
10.4775
21
31.4200248307
0
LINE
5
128
100
AcDbEntity
8
Walls
6
ByLayer
62
256
370
-1
100
AcDbLine
10
9
20
32.25
11
9
21
31.41
0
LINE
5
129
100
AcDbEntity
8
Walls
6
CONTINUOUS
62
256
370
-1
100
AcDbLine
10
10.92
20
30.225
11
11.04
21
30.225
0
LINE
5
12A
100
AcDbEntity
8
Walls
6
ByLayer
62
256
370
-1
100
AcDbLine
10
10.92
20
32.25
11
10.92
21
30.225
0
LINE
5
12B
100
AcDbEntity
8
Walls
6
CONTINUOUS
62
256
370
-1
100
AcDbLine
10
11.04
20
33.3503801422
11
12.39
21
33.3503801422
0
LINE
5
12C
100
AcDbEntity
8
Walls
6
CONTINUOUS
62
256
370
-1
100
AcDbLine
10
11.04
20
33.6503801422
11
12.39
21
33.6503801422
0
LINE
5
12D
100
AcDbEntity
8
Walls
6
CONTINUOUS
62
256
370
-1
100
AcDbLine
10
11.04
20
33.9503801422
11
12.39
21
33.9503801422
0
LINE
5
12E
100
AcDbEntity
8
Walls
6
CONTINUOUS
62
256
370
-1
100
AcDbLine
10
11.04
20
34.2503801422
11
12.39
21
34.2503801422
0
LINE
5
12F
100
AcDbEntity
8
Walls
6
CONTINUOUS
62
256
370
-1
100
AcDbLine
10
11.04
20
32.7503801422
11
12.39
21
32.7503801422
0
LINE
5
130
100
AcDbEntity
8
Walls
6
CONTINUOUS
62
256
370
-1
100
AcDbLine
10
11.04
20
33.0503801422
11
12.39
21
33.0503801422
0
LINE
5
131
100
AcDbEntity
8
Walls
6
ByLayer
62
256
370
-1
100
AcDbLine
10
4
20
36.35
11
12.8
21
36.35
0
LINE
5
132
100
AcDbEntity
8
Walls
6
ByLayer
62
256
370
-1
100
AcDbLine
10
7.23990389421
20
36.16
11
7.24005971152
21
35.94
0
LINE
5
133
100
AcDbEntity
8
Walls
6
ByLayer
62
256
370
-1
100
AcDbLine
10
9.55990619594
20
36.16
11
9.56001137518
21
35.94
0
LINE
5
134
100
AcDbEntity
8
Walls
6
ByLayer
62
256
370
-1
100
AcDbLine
10
93.4387688134
20
23.6459810808
11
92.4599222794
21
31.1826819149
0
LINE
5
135
100
AcDbEntity
8
Walls
6
ByLayer
62
256
370
-1
100
AcDbLine
10
96.1856868051
20
22.9546580833
11
95.0729757922
21
31.5220583119
0
LINE
5
136
100
AcDbEntity
8
Walls
6
ByLayer
62
256
370
-1
100
AcDbLine
10
95.6452371497
20
23.9325512832
11
94.6663906157
21
31.4692521173
0
LINE
5
137
100
AcDbEntity
8
Walls
6
ByLayer
62
256
370
-1
100
AcDbLine
10
43.19
20
22.99
11
43.19
21
21.6801
0
LINE
5
138
100
AcDbEntity
8
Walls
6
ByLayer
62
256
370
-1
100
AcDbLine
10
37.83
20
23.7599745855
11
37.83
21
27.55
0
LINE
5
139
100
AcDbEntity
8
Walls
6
ByLayer
62
256
370
-1
100
AcDbLine
10
34.8
20
18.55
11
34.8
21
36.35
0
LINE
5
13A
100
AcDbEntity
8
Walls
6
ByLayer
62
256
370
-1
100
AcDbLine
10
35.21
20
18.14
11
35.21
21
32.3
0
LINE
5
13B
100
AcDbEntity
8
Walls
6
ByLayer
62
256
370
-1
100
AcDbLine
10
43.6
20
36.35
11
43.6
21
18.55
0
LINE
5
13C
100
AcDbEntity
8
Walls
6
CONTINUOUS
62
256
370
-1
100
AcDbLine
10
65.2548862687
20
15.25
11
68.7148862687
21
15.25
0
LINE
5
13D
100
AcDbEntity
8
Walls
6
ByLayer
62
256
370
-1
100
AcDbLine
10
65.33
20
15.53
11
71.3448862687
21
15.53
0
LINE
5
13E
100
AcDbEntity
8
Walls
6
ByLayer
62
256
370
-1
100
AcDbLine
10
43.6
20
18.55
11
70
21
18.55
0
LINE
5
13F
100
AcDbEntity
8
Walls
6
CONTINUOUS
62
256
370
-1
100
AcDbLine
10
48.255
20
15.25
11
52.265
21
15.25
0
LINE
5
140
100
AcDbEntity
8
Walls
6
ByLayer
62
256
370
-1
100
AcDbLine
10
48.0146
20
15.53
11
54.4751
21
15.53
0
LINE
5
141
100
AcDbEntity
8
Walls
6
CONTINUOUS
62
256
370
-1
100
AcDbLine
10
33.495
20
10.16
11
33.495
21
15.25
0
LINE
5
142
100
AcDbEntity
8
Walls
6
CONTINUOUS
62
256
370
-1
100
AcDbLine
10
33.695
20
10.16
11
33.695
21
15.25
0
LINE
5
143
100
AcDbEntity
8
Walls
6
CONTINUOUS
62
256
370
-1
100
AcDbLine
10
37.2149947318
20
10.16
11
37.2149947318
21
15.25
0
LINE
5
144
100
AcDbEntity
8
Walls
6
CONTINUOUS
62
256
370
-1
100
AcDbLine
10
37.4149947318
20
10.16
11
37.4149947318
21
15.25
0
LINE
5
145
100
AcDbEntity
8
Walls
6
CONTINUOUS
62
256
370
-1
100
AcDbLine
10
39.9449947318
20
10.16
11
39.9449947318
21
15.25
0
LINE
5
146
100
AcDbEntity
8
Walls
6
CONTINUOUS
62
256
370
-1
100
AcDbLine
10
39.7449947318
20
10.16
11
39.7449947318
21
15.25
0
LINE
5
147
100
AcDbEntity
8
Walls
6
CONTINUOUS
62
256
370
-1
100
AcDbLine
10
44.1049947318
20
10.16
11
44.1049947318
21
15.25
0
LINE
5
148
100
AcDbEntity
8
Walls
6
CONTINUOUS
62
256
370
-1
100
AcDbLine
10
48.255
20
10.16
11
48.255
21
15.25
0
LINE
5
149
100
AcDbEntity
8
Walls
6
CONTINUOUS
62
256
370
-1
100
AcDbLine
10
43.8249947318
20
10.16
11
43.8249947318
21
15.25
0
LINE
5
14A
100
AcDbEntity
8
Walls
6
ByLayer
62
256
370
-1
100
AcDbLine
10
38.11
20
21.6801
11
43.19
21
21.6801
0
LINE
5
14B
100
AcDbEntity
8
Walls
6
ByLayer
62
256
370
-1
100
AcDbLine
10
41.2749947318
20
15.25
11
43.8249947318
21
15.25
0
ARC
5
14C
100
AcDbEntity
8
Walls
6
CONTINUOUS
62
256
370
-1
100
AcDbCircle
10
39.39
20
18.4098842685
40
0.27
100
AcDbArc
50
180
51
270
0
ARC
5
14D
100
AcDbEntity
8
Walls
6
CONTINUOUS
62
256
370
-1
100
AcDbCircle
10
38.0800198529
20
18.4098842685
40
0.27
100
AcDbArc
50
268.322366474
51
0
0
LINE
5
14E
100
AcDbEntity
8
Walls
6
ByLayer
62
256
370
-1
100
AcDbLine
10
37.14495
20
15.53
11
38.2649947318
21
15.53
0
LINE
5
14F
100
AcDbEntity
8
Walls
6
ByLayer
62
256
370
-1
100
AcDbLine
10
33.4251
20
15.53
11
35.6999947318
21
15.53
0
LINE
5
150
100
AcDbEntity
8
Walls
6
ByLayer
62
256
370
-1
100
AcDbLine
10
33.695
20
15.25
11
35.7849947318
21
15.25
0
LINE
5
151
100
AcDbEntity
8
Walls
6
ByLayer
62
256
370
-1
100
AcDbLine
10
33.345
20
15.25
11
33.495
21
15.25
0
LINE
5
152
100
AcDbEntity
8
Walls
6
ByLayer
62
256
370
-1
100
AcDbLine
10
37.05995
20
15.25
11
37.2149947318
21
15.25
0
LINE
5
153
100
AcDbEntity
8
Walls
6
ByLayer
62
256
370
-1
100
AcDbLine
10
37.0649947318
20
15.25
11
37.2101
21
15.25
0
LINE
5
154
100
AcDbEntity
8
Walls
6
ByLayer
62
256
370
-1
100
AcDbLine
10
37.4149947318
20
15.25
11
38.3449947318
21
15.25
0
LINE
5
155
100
AcDbEntity
8
Walls
6
ByLayer
62
256
370
-1
100
AcDbLine
10
39.6751
20
15.53
11
39.9329
21
15.53
0
LINE
5
156
100
AcDbEntity
8
Walls
6
CONTINUOUS
62
256
370
-1
100
AcDbLine
10
39.6049947318
20
15.25
11
39.7449947318
21
15.25
0
LINE
5
157
100
AcDbEntity
8
Walls
6
CONTINUOUS
62
256
370
-1
100
AcDbLine
10
39.9449947318
20
15.25
11
40.0149947318
21
15.25
0
LINE
5
158
100
AcDbEntity
8
Walls
6
ByLayer
62
256
370
-1
100
AcDbLine
10
39.3885965049
20
18.1398879163
11
39.96
21
18.14
0
LINE
5
159
100
AcDbEntity
8
Walls
6
ByLayer
62
256
370
-1
100
AcDbLine
10
37.83
20
18.1399147259
11
37.83
21
22.4901
0
LINE
5
15A
100
AcDbEntity
8
Walls
6
CONTINUOUS
62
256
370
-1
100
AcDbLine
10
39.685
20
18.435
11
39.685
21
18.435
0
LINE
5
15B
100
AcDbEntity
8
Walls
6
ByLayer
62
256
370
-1
100
AcDbLine
10
38.29
20
18.55
11
38.29
21
18.4098842685
0
LINE
5
15C
100
AcDbEntity
8
Walls
6
ByLayer
62
256
370
-1
100
AcDbLine
10
39.18
20
18.55
11
39.18
21
18.4098842685
0
LINE
5
15D
100
AcDbEntity
8
Walls
6
CONTINUOUS
62
256
370
-1
100
AcDbLine
10
39.18
20
18.4098842685
11
39.12
21
18.4098842685
0
LINE
5
15E
100
AcDbEntity
8
Walls
6
ByLayer
62
256
370
-1
100
AcDbLine
10
38.29
20
18.55
11
38.11
21
18.55
0
LINE
5
15F
100
AcDbEntity
8
Walls
6
CONTINUOUS
62
256
370
-1
100
AcDbLine
10
41.645033
20
18.295
11
41.645033
21
18.565
0
LINE
5
160
100
AcDbEntity
8
Walls
6
CONTINUOUS
62
256
370
-1
100
AcDbLine
10
41.915033
20
18.295
11
41.915033
21
18.565
0
LINE
5
161
100
AcDbEntity
8
Walls
6
CONTINUOUS
62
256
370
-1
100
AcDbLine
10
42.445099
20
18.295
11
42.445099
21
18.565
0
LINE
5
162
100
AcDbEntity
8
Walls
6
CONTINUOUS
62
256
370
-1
100
AcDbLine
10
42.715099
20
18.295
11
42.715099
21
18.565
0
LINE
5
163
100
AcDbEntity
8
Walls
6
CONTINUOUS
62
256
370
-1
100
AcDbLine
10
42.315066
20
18.295
11
42.315066
21
18.565
0
LINE
5
164
100
AcDbEntity
8
Walls
6
CONTINUOUS
62
256
370
-1
100
AcDbLine
10
42.045066
20
18.295
11
42.045066
21
18.565
0
LINE
5
165
100
AcDbEntity
8
Walls
6
ByLayer
62
256
370
-1
100
AcDbLine
10
41.3529
20
15.53
11
46.595
21
15.53
0
LINE
5
166
100
AcDbEntity
8
Walls
6
ByLayer
62
256
370
-1
100
AcDbLine
10
44.1049947318
20
15.25
11
46.6746
21
15.25
0
LINE
5
167
100
AcDbEntity
8
Walls
6
CONTINUOUS
62
256
370
-1
100
AcDbLine
10
41.645033
20
18.295
11
41.915033
21
18.295
0
LINE
5
168
100
AcDbEntity
8
Walls
6
CONTINUOUS
62
256
370
-1
100
AcDbLine
10
42.445099
20
18.295
11
42.715099
21
18.295
0
LINE
5
169
100
AcDbEntity
8
Walls
6
CONTINUOUS
62
256
370
-1
100
AcDbLine
10
42.045066
20
18.295
11
42.315066
21
18.295
0
LINE
5
16A
100
AcDbEntity
8
Walls
6
CONTINUOUS
62
256
370
-1
100
AcDbLine
10
47.935
20
15.25
11
48.055
21
15.25
0
LINE
5
16B
100
AcDbEntity
8
Walls
6
ByLayer
62
256
370
-1
100
AcDbLine
10
43.19
20
21.5
11
43.19
21
18.69
0
LINE
5
16C
100
AcDbEntity
8
Walls
6
ByLayer
62
256
370
-1
100
AcDbLine
10
41.515
20
18.69
11
41.515
21
18.55
0
LINE
5
16D
100
AcDbEntity
8
Walls
6
CONTINUOUS
62
256
370
-1
100
AcDbLine
10
41.645033
20
18.565
11
41.915033
21
18.565
0
LINE
5
16E
100
AcDbEntity
8
Walls
6
CONTINUOUS
62
256
370
-1
100
AcDbLine
10
42.445099
20
18.565
11
42.715099
21
18.565
0
LINE
5
16F
100
AcDbEntity
8
Walls
6
CONTINUOUS
62
256
370
-1
100
AcDbLine
10
42.045066
20
18.565
11
42.315066
21
18.565
0
LINE
5
170
100
AcDbEntity
8
Walls
6
ByLayer
62
256
370
-1
100
AcDbLine
10
41.515
20
18.69
11
43.19
21
18.69
0
LINE
5
171
100
AcDbEntity
8
Walls
6
CONTINUOUS
62
256
370
-1
100
AcDbLine
10
60.5048862687
20
10.16
11
60.5048862687
21
13.63
0
LINE
5
172
100
AcDbEntity
8
Walls
6
CONTINUOUS
62
256
370
-1
100
AcDbLine
10
60.2248862687
20
10.16
11
60.2248862687
21
13.63
0
LINE
5
173
100
AcDbEntity
8
Walls
6
CONTINUOUS
62
256
370
-1
100
AcDbLine
10
56.4851
20
10.16
11
56.4851
21
13.61
0
LINE
5
174
100
AcDbEntity
8
Walls
6
CONTINUOUS
62
256
370
-1
100
AcDbLine
10
56.3351
20
10.16
11
56.3351
21
13.61
0
LINE
5
175
100
AcDbEntity
8
Walls
6
CONTINUOUS
62
256
370
-1
100
AcDbLine
10
52.265
20
10.16
11
52.265
21
13.6200013227
0
LINE
5
176
100
AcDbEntity
8
Walls
6
CONTINUOUS
62
256
370
-1
100
AcDbLine
10
52.415
20
10.16
11
52.415
21
13.6200013227
0
LINE
5
177
100
AcDbEntity
8
Walls
6
ByLayer
62
256
370
-1
100
AcDbLine
10
52.415
20
15.25
11
54.5551
21
15.25
0
LINE
5
178
100
AcDbEntity
8
Walls
6
ByLayer
62
256
370
-1
100
AcDbLine
10
52.415
20
14.45
11
52.265583687
21
14.45
0
LINE
5
179
100
AcDbEntity
8
Walls
6
ByLayer
62
256
370
-1
100
AcDbLine
10
52.415
20
13.6200013227
11
52.265
21
13.6200013227
0
LINE
5
17A
100
AcDbEntity
8
Walls
6
CONTINUOUS
62
256
370
-1
100
AcDbLine
10
52.265
20
14.45
11
52.265
21
15.25
0
LINE
5
17B
100
AcDbEntity
8
Walls
6
CONTINUOUS
62
256
370
-1
100
AcDbLine
10
52.415
20
14.45
11
52.415
21
15.25
0
LINE
5
17C
100
AcDbEntity
8
Walls
6
CONTINUOUS
62
256
370
-1
100
AcDbLine
10
55.8301
20
15.25
11
56.3351
21
15.25
0
LINE
5
17D
100
AcDbEntity
8
Walls
6
CONTINUOUS
62
256
370
-1
100
AcDbLine
10
55.8151
20
15.25
11
56.3351
21
15.25
0
LINE
5
17E
100
AcDbEntity
8
Walls
6
CONTINUOUS
62
256
370
-1
100
AcDbLine
10
56.3351
20
14.44
11
56.4851
21
14.44
0
LINE
5
17F
100
AcDbEntity
8
Walls
6
CONTINUOUS
62
256
370
-1
100
AcDbLine
10
56.3351
20
13.61
11
56.4851
21
13.61
0
LINE
5
180
100
AcDbEntity
8
Walls
6
CONTINUOUS
62
256
370
-1
100
AcDbLine
10
56.3351
20
14.44
11
56.3351
21
15.25
0
LINE
5
181
100
AcDbEntity
8
Walls
6
CONTINUOUS
62
256
370
-1
100
AcDbLine
10
56.4851
20
14.44
11
56.4851
21
15.25
0
LINE
5
182
100
AcDbEntity
8
Walls
6
ByLayer
62
256
370
-1
100
AcDbLine
10
55.8951
20
15.53
11
57.0148862687
21
15.53
0
LINE
5
183
100
AcDbEntity
8
Walls
6
CONTINUOUS
62
256
370
-1
100
AcDbLine
10
56.4851
20
15.25
11
57.0933932237
21
15.25
0
LINE
5
184
100
AcDbEntity
8
Walls
6
ByLayer
62
256
370
-1
100
AcDbLine
10
58.4748862687
20
15.53
11
63.91215
21
15.53
0
LINE
5
185
100
AcDbEntity
8
Walls
6
ByLayer
62
256
370
-1
100
AcDbLine
10
60.5048862687
20
15.25
11
63.9948862687
21
15.25
0
LINE
5
186
100
AcDbEntity
8
Walls
6
CONTINUOUS
62
256
370
-1
100
AcDbLine
10
58.3948862687
20
15.25
11
60.2248862687
21
15.25
0
LINE
5
187
100
AcDbEntity
8
Walls
6
ByLayer
62
256
370
-1
100
AcDbLine
10
60.22687701
20
13.63
11
60.5000362687
21
13.63
0
LINE
5
188
100
AcDbEntity
8
Walls
6
ByLayer
62
256
370
-1
100
AcDbLine
10
60.22687701
20
14.46
11
60.5000362687
21
14.46
0
LINE
5
189
100
AcDbEntity
8
Walls
6
CONTINUOUS
62
256
370
-1
100
AcDbLine
10
60.2248862687
20
14.46
11
60.5048862687
21
14.46
0
LINE
5
18A
100
AcDbEntity
8
Walls
6
CONTINUOUS
62
256
370
-1
100
AcDbLine
10
60.2248862687
20
13.63
11
60.5048862687
21
13.63
0
LINE
5
18B
100
AcDbEntity
8
Walls
6
CONTINUOUS
62
256
370
-1
100
AcDbLine
10
60.2248862687
20
14.46
11
60.2248862687
21
15.25
0
LINE
5
18C
100
AcDbEntity
8
Walls
6
CONTINUOUS
62
256
370
-1
100
AcDbLine
10
60.5048862687
20
14.46
11
60.5048862687
21
15.25
0
LINE
5
18D
100
AcDbEntity
8
Walls
6
ByLayer
62
256
370
-1
100
AcDbLine
10
78.16985
20
15.53
11
82.21
21
15.53
0
LINE
5
18E
100
AcDbEntity
8
Walls
6
CONTINUOUS
62
256
370
-1
100
AcDbLine
10
82.2948862687
20
15.25
11
81.2948862687
21
15.25
0
LINE
5
18F
100
AcDbEntity
8
Walls
6
CONTINUOUS
62
256
370
-1
100
AcDbLine
10
68.7148862687
20
10.16
11
68.7148862687
21
15.25
0
LINE
5
190
100
AcDbEntity
8
Walls
6
CONTINUOUS
62
256
370
-1
100
AcDbLine
10
68.9948862687
20
10.16
11
68.9948862687
21
15.25
0
LINE
5
191
100
AcDbEntity
8
Walls
6
CONTINUOUS
62
256
370
-1
100
AcDbLine
10
75.3148862687
20
10.16
11
75.3148862687
21
13.63
0
LINE
5
192
100
AcDbEntity
8
Walls
6
CONTINUOUS
62
256
370
-1
100
AcDbLine
10
75.1348862687
20
10.16
11
75.1348862687
21
13.63
0
LINE
5
193
100
AcDbEntity
8
Walls
6
CONTINUOUS
62
256
370
-1
100
AcDbLine
10
81.1448862687
20
10.16
11
81.1448862687
21
14.16
0
LINE
5
194
100
AcDbEntity
8
Walls
6
CONTINUOUS
62
256
370
-1
100
AcDbLine
10
81.2948862687
20
10.16
11
81.2948862687
21
14.16
0
LINE
5
195
100
AcDbEntity
8
Walls
6
ByLayer
62
256
370
-1
100
AcDbLine
10
70
20
24.05
11
77.1
21
24.05
0
LINE
5
196
100
AcDbEntity
8
Walls
6
CONTINUOUS
62
256
370
-1
100
AcDbLine
10
68.9948862687
20
15.25
11
71.4248862687
21
15.25
0
LINE
5
197
100
AcDbEntity
8
Walls
6
ByLayer
62
256
370
-1
100
AcDbLine
10
70
20
18.55
11
70
21
24.05
0
LINE
5
198
100
AcDbEntity
8
Walls
6
ByLayer
62
256
370
-1
100
AcDbLine
10
70.41
20
18.55
11
71.525
21
18.55
0
LINE
5
199
100
AcDbEntity
8
Walls
6
ByLayer
62
256
370
-1
100
AcDbLine
10
81.186666
20
18.285
11
81.186666
21
18.555
0
LINE
5
19A
100
AcDbEntity
8
Walls
6
ByLayer
62
256
370
-1
100
AcDbLine
10
81.326666
20
18.285
11
81.326666
21
18.555
0
LINE
5
19B
100
AcDbEntity
8
Walls
6
ByLayer
62
256
370
-1
100
AcDbLine
10
81.518332
20
18.285
11
81.518332
21
18.555
0
LINE
5
19C
100
AcDbEntity
8
Walls
6
ByLayer
62
256
370
-1
100
AcDbLine
10
81.658332
20
18.285
11
81.658332
21
18.555
0
LINE
5
19D
100
AcDbEntity
8
Walls
6
CONTINUOUS
62
256
370
-1
100
AcDbLine
10
75.3148862687
20
15.25
11
76.8448862687
21
15.25
0
LINE
5
19E
100
AcDbEntity
8
Walls
6
CONTINUOUS
62
256
370
-1
100
AcDbLine
10
75.3148862687
20
14.46
11
75.1348862687
21
14.46
0
LINE
5
19F
100
AcDbEntity
8
Walls
6
CONTINUOUS
62
256
370
-1
100
AcDbLine
10
75.3148862687
20
13.63
11
75.1348862687
21
13.63
0
LINE
5
1A0
100
AcDbEntity
8
Walls
6
CONTINUOUS
62
256
370
-1
100
AcDbLine
10
75.3148862687
20
14.46
11
75.3148862687
21
15.25
0
LINE
5
1A1
100
AcDbEntity
8
Walls
6
CONTINUOUS
62
256
370
-1
100
AcDbLine
10
75.1348862687
20
14.46
11
75.1348862687
21
15.25
0
LINE
5
1A2
100
AcDbEntity
8
Walls
6
CONTINUOUS
62
256
370
-1
100
AcDbLine
10
81.1448862687
20
15.25
11
78.1048862687
21
15.25
0
LINE
5
1A3
100
AcDbEntity
8
Walls
6
CONTINUOUS
62
256
370
-1
100
AcDbLine
10
81.1448862687
20
14.99
11
81.1448862687
21
15.25
0
LINE
5
1A4
100
AcDbEntity
8
Walls
6
CONTINUOUS
62
256
370
-1
100
AcDbLine
10
81.2948862687
20
14.99
11
81.2948862687
21
15.25
0
LINE
5
1A5
100
AcDbEntity
8
Walls
6
ByLayer
62
256
370
-1
100
AcDbLine
10
81.2948862687
20
14.99
11
81.1448862687
21
14.99
0
LINE
5
1A6
100
AcDbEntity
8
Walls
6
ByLayer
62
256
370
-1
100
AcDbLine
10
81.2948862687
20
14.16
11
81.1448862687
21
14.16
0
LINE
5
1A7
100
AcDbEntity
8
Walls
6
ByLayer
62
256
370
-1
100
AcDbLine
10
81.326666
20
18.285
11
81.186666
21
18.285
0
LINE
5
1A8
100
AcDbEntity
8
Walls
6
ByLayer
62
256
370
-1
100
AcDbLine
10
81.658332
20
18.285
11
81.518332
21
18.285
0
LINE
5
1A9
100
AcDbEntity
8
Walls
6
CONTINUOUS
62
256
370
-1
100
AcDbLine
10
77.1
20
21.66
11
79
21
21.66
0
LINE
5
1AA
100
AcDbEntity
8
Walls
6
ByLayer
62
256
370
-1
100
AcDbLine
10
77.1
20
18.55
11
77.87
21
18.55
0
LINE
5
1AB
100
AcDbEntity
8
Walls
6
ByLayer
62
256
370
-1
100
AcDbLine
10
77.1
20
21.49
11
77.1
21
18.55
0
LINE
5
1AC
100
AcDbEntity
8
Walls
6
ByLayer
62
256
370
-1
100
AcDbLine
10
75.575
20
18.55
11
76.69
21
18.55
0
LINE
5
1AD
100
AcDbEntity
8
Walls
6
ByLayer
62
256
370
-1
100
AcDbLine
10
76.98
20
19.41
11
76.84
21
19.41
0
LINE
5
1AE
100
AcDbEntity
8
Walls
6
ByLayer
62
256
370
-1
100
AcDbLine
10
76.98
20
19.53
11
76.98
21
19.8
0
LINE
5
1AF
100
AcDbEntity
8
Walls
6
ByLayer
62
256
370
-1
100
AcDbLine
10
76.84
20
19.53
11
76.84
21
19.8
0
LINE
5
1B0
100
AcDbEntity
8
Walls
6
ByLayer
62
256
370
-1
100
AcDbLine
10
76.98
20
19.53
11
76.84
21
19.53
0
LINE
5
1B1
100
AcDbEntity
8
Walls
6
ByLayer
62
256
370
-1
100
AcDbLine
10
76.98
20
19.8
11
76.84
21
19.8
0
LINE
5
1B2
100
AcDbEntity
8
Walls
6
ByLayer
62
256
370
-1
100
AcDbLine
10
76.98
20
18.75
11
76.84
21
18.75
0
LINE
5
1B3
100
AcDbEntity
8
Walls
6
ByLayer
62
256
370
-1
100
AcDbLine
10
76.98
20
19.02
11
76.84
21
19.02
0
LINE
5
1B4
100
AcDbEntity
8
Walls
6
ByLayer
62
256
370
-1
100
AcDbLine
10
76.98
20
18.75
11
76.98
21
19.02
0
LINE
5
1B5
100
AcDbEntity
8
Walls
6
ByLayer
62
256
370
-1
100
AcDbLine
10
76.84
20
18.75
11
76.84
21
19.02
0
LINE
5
1B6
100
AcDbEntity
8
Walls
6
ByLayer
62
256
370
-1
100
AcDbLine
10
76.98
20
19.14
11
76.84
21
19.14
0
LINE
5
1B7
100
AcDbEntity
8
Walls
6
ByLayer
62
256
370
-1
100
AcDbLine
10
76.84
20
19.14
11
76.84
21
19.41
0
LINE
5
1B8
100
AcDbEntity
8
Walls
6
ByLayer
62
256
370
-1
100
AcDbLine
10
76.98
20
19.14
11
76.98
21
19.41
0
LINE
5
1B9
100
AcDbEntity
8
Walls
6
ByLayer
62
256
370
-1
100
AcDbLine
10
77.1
20
22.64
11
77.1
21
21.66
0
LINE
5
1BA
100
AcDbEntity
8
Walls
6
ByLayer
62
256
370
-1
100
AcDbLine
10
77.1
20
24.05
11
77.1
21
23.05
0
LINE
5
1BB
100
AcDbEntity
8
Walls
6
ByLayer
62
256
370
-1
100
AcDbLine
10
79
20
18.55
11
79.7049602943
21
18.55
0
LINE
5
1BC
100
AcDbEntity
8
Walls
6
CONTINUOUS
62
256
370
-1
100
AcDbLine
10
79
20
20.19
11
79.15
21
20.19
0
LINE
5
1BD
100
AcDbEntity
8
Walls
6
CONTINUOUS
62
256
370
-1
100
AcDbLine
10
79.15
20
20.19
11
79.15
21
20.0400217259
0
LINE
5
1BE
100
AcDbEntity
8
Walls
6
CONTINUOUS
62
256
370
-1
100
AcDbLine
10
79.15
20
20.0400217259
11
79
21
20.0400217259
0
LINE
5
1BF
100
AcDbEntity
8
Walls
6
CONTINUOUS
62
256
370
-1
100
AcDbLine
10
79.835
20
20.19
11
79.835
21
20.0400217259
0
LINE
5
1C0
100
AcDbEntity
8
Walls
6
CONTINUOUS
62
256
370
-1
100
AcDbLine
10
81.56
20
20.0400217259
11
79.835
21
20.0400217259
0
LINE
5
1C1
100
AcDbEntity
8
Walls
6
CONTINUOUS
62
256
370
-1
100
AcDbLine
10
79.835
20
20.19
11
81.56
21
20.19
0
LINE
5
1C2
100
AcDbEntity
8
Walls
6
ByLayer
62
256
370
-1
100
AcDbLine
10
80.775
20
18.55
11
80.96
21
18.55
0
LINE
5
1C3
100
AcDbEntity
8
Walls
6
ByLayer
62
256
370
-1
100
AcDbLine
10
81.326666
20
18.555
11
81.186666
21
18.555
0
LINE
5
1C4
100
AcDbEntity
8
Walls
6
ByLayer
62
256
370
-1
100
AcDbLine
10
81.658332
20
18.555
11
81.518332
21
18.555
0
LINE
5
1C5
100
AcDbEntity
8
Walls
6
CONTINUOUS
62
256
370
-1
100
AcDbLine
10
83.8548862687
20
10.16
11
83.8548862687
21
15.25
0
LINE
5
1C6
100
AcDbEntity
8
Walls
6
CONTINUOUS
62
256
370
-1
100
AcDbLine
10
83.6248862687
20
10.16
11
83.6248862687
21
15.25
0
LINE
5
1C7
100
AcDbEntity
8
Walls
6
CONTINUOUS
62
256
370
-1
100
AcDbLine
10
89.4806806605
20
19.6636727343
11
92.0734161604
21
20.0004102821
0
LINE
5
1C8
100
AcDbEntity
8
Walls
6
CONTINUOUS
62
256
370
-1
100
AcDbLine
10
89.755
20
19.3463610195
11
92.2672452935
21
19.6726447147
0
LINE
5
1C9
100
AcDbEntity
8
Walls
6
CONTINUOUS
62
256
370
-1
100
AcDbLine
10
88.849968677
20
23.05
11
94.0413672121
21
23.7242449481
0
LINE
5
1CA
100
AcDbEntity
8
Walls
6
ByLayer
62
256
370
-1
100
AcDbLine
10
89.755
20
13.1743110395
11
89.755
21
19.3463610195
0
LINE
5
1CB
100
AcDbEntity
8
Walls
6
ByLayer
62
256
370
-1
100
AcDbLine
10
85.35
20
18.285
11
85.35
21
18.555
0
LINE
5
1CC
100
AcDbEntity
8
Walls
6
ByLayer
62
256
370
-1
100
AcDbLine
10
84.8475
20
18.285
11
84.8475
21
18.555
0
LINE
5
1CD
100
AcDbEntity
8
Walls
6
ByLayer
62
256
370
-1
100
AcDbLine
10
84.755
20
18.285
11
84.755
21
18.555
0
LINE
5
1CE
100
AcDbEntity
8
Walls
6
ByLayer
62
256
370
-1
100
AcDbLine
10
84.615
20
18.285
11
84.615
21
18.555
0
LINE
5
1CF
100
AcDbEntity
8
Walls
6
ByLayer
62
256
370
-1
100
AcDbLine
10
84.3825
20
18.285
11
84.3825
21
18.555
0
LINE
5
1D0
100
AcDbEntity
8
Walls
6
ByLayer
62
256
370
-1
100
AcDbLine
10
84.5225
20
18.285
11
84.5225
21
18.555
0
LINE
5
1D1
100
AcDbEntity
8
Walls
6
CONTINUOUS
62
256
370
-1
100
AcDbLine
10
87.3298
20
15.25
11
83.8548862687
21
15.25
0
LINE
5
1D2
100
AcDbEntity
8
Walls
6
CONTINUOUS
62
256
370
-1
100
AcDbLine
10
83.63495
20
15.53
11
87.2448
21
15.53
0
LINE
5
1D3
100
AcDbEntity
8
Walls
6
CONTINUOUS
62
256
370
-1
100
AcDbLine
10
83.6248862687
20
15.25
11
83.5548362687
21
15.25
0
LINE
5
1D4
100
AcDbEntity
8
Walls
6
ByLayer
62
256
370
-1
100
AcDbLine
10
85.35
20
18.285
11
85.21
21
18.285
0
LINE
5
1D5
100
AcDbEntity
8
Walls
6
CONTINUOUS
62
256
370
-1
100
AcDbLine
10
85.1175
20
18.285
11
84.8475
21
18.285
0
LINE
5
1D6
100
AcDbEntity
8
Walls
6
ByLayer
62
256
370
-1
100
AcDbLine
10
84.615
20
18.285
11
84.755
21
18.285
0
LINE
5
1D7
100
AcDbEntity
8
Walls
6
ByLayer
62
256
370
-1
100
AcDbLine
10
84.3825
20
18.285
11
84.5225
21
18.285
0
LINE
5
1D8
100
AcDbEntity
8
Walls
6
ByLayer
62
256
370
-1
100
AcDbLine
10
88.6948
20
15.53
11
89.35
21
15.53
0
LINE
5
1D9
100
AcDbEntity
8
Walls
6
ByLayer
62
256
370
-1
100
AcDbLine
10
88.6098
20
15.25
11
89.35
21
15.25
0
LINE
5
1DA
100
AcDbEntity
8
Walls
6
CONTINUOUS
62
256
370
-1
100
AcDbLine
10
85.58
20
20.5118040218
11
85.58
21
22.64
0
LINE
5
1DB
100
AcDbEntity
8
Walls
6
CONTINUOUS
62
256
370
-1
100
AcDbLine
10
85.28
20
20.715
11
83.225
21
20.715
0
LINE
5
1DC
100
AcDbEntity
8
Walls
6
CONTINUOUS
62
256
370
-1
100
AcDbLine
10
82.5
20
20.715
11
82.5
21
20.515
0
LINE
5
1DD
100
AcDbEntity
8
Walls
6
CONTINUOUS
62
256
370
-1
100
AcDbLine
10
83.225
20
20.715
11
83.225
21
20.515
0
LINE
5
1DE
100
AcDbEntity
8
Walls
6
CONTINUOUS
62
256
370
-1
100
AcDbLine
10
82.5
20
20.715
11
81.76
21
20.715
0
LINE
5
1DF
100
AcDbEntity
8
Walls
6
ByLayer
62
256
370
-1
100
AcDbLine
10
81.76
20
18.55
11
83.19
21
18.55
0
LINE
5
1E0
100
AcDbEntity
8
Walls
6
CONTINUOUS
62
256
370
-1
100
AcDbLine
10
84.22
20
18.67
11
85.58
21
18.67
0
LINE
5
1E1
100
AcDbEntity
8
Walls
6
ByLayer
62
256
370
-1
100
AcDbLine
10
84.15
20
18.55
11
84.22
21
18.55
0
LINE
5
1E2
100
AcDbEntity
8
Walls
6
ByLayer
62
256
370
-1
100
AcDbLine
10
85.35
20
18.555
11
85.21
21
18.555
0
LINE
5
1E3
100
AcDbEntity
8
Walls
6
CONTINUOUS
62
256
370
-1
100
AcDbLine
10
85.1175
20
18.555
11
84.8475
21
18.555
0
LINE
5
1E4
100
AcDbEntity
8
Walls
6
ByLayer
62
256
370
-1
100
AcDbLine
10
84.615
20
18.555
11
84.755
21
18.555
0
LINE
5
1E5
100
AcDbEntity
8
Walls
6
ByLayer
62
256
370
-1
100
AcDbLine
10
84.3825
20
18.555
11
84.5225
21
18.555
0
LINE
5
1E6
100
AcDbEntity
8
Walls
6
ByLayer
62
256
370
-1
100
AcDbLine
10
92.3620195202
20
13.2717818241
11
91.2710701831
21
13.1291984679
0
LINE
5
1E7
100
AcDbEntity
8
Walls
6
ByLayer
62
256
370
-1
100
AcDbLine
10
91.3886160322
20
12.9736947241
11
91.3667147979
21
13.1416988927
0
LINE
5
1E8
100
AcDbEntity
8
Walls
6
ByLayer
62
256
370
-1
100
AcDbLine
10
92.3246391352
20
13.0952628996
11
92.3025283284
21
13.2640065283
0
LINE
5
1E9
100
AcDbEntity
8
Walls
6
ByLayer
62
256
370
-1
100
AcDbLine
10
92.3620195202
20
13.2717818241
11
92.3308777114
21
13.5088591428
0
LINE
5
1EA
100
AcDbEntity
8
Walls
6
CONTINUOUS
62
256
370
-1
100
AcDbLine
10
96.5016811569
20
20.2226019121
11
97.2899931495
21
14.1529357839
0
LINE
5
1EB
100
AcDbEntity
8
Walls
6
CONTINUOUS
62
256
370
-1
100
AcDbLine
10
96.6504318313
20
20.2419212516
11
97.4387438239
21
14.1722551234
0
LINE
5
1EC
100
AcDbEntity
8
Walls
6
CONTINUOUS
62
256
370
-1
100
AcDbLine
10
93.5282928626
20
20.1893657745
11
96.1030861278
21
20.5237730329
0
LINE
5
1ED
100
AcDbEntity
8
Walls
6
CONTINUOUS
62
256
370
-1
100
AcDbLine
10
93.4374172652
20
19.8246235187
11
96.5016811569
21
20.2226019121
0
ARC
5
1EE
100
AcDbEntity
8
Walls
6
CONTINUOUS
62
256
370
-1
100
AcDbCircle
10
93.568136556
20
19.9827768209
40
0.21
100
AcDbArc
50
97.4
51
187.4
0
LINE
5
1EF
100
AcDbEntity
8
Walls
6
CONTINUOUS
62
256
370
-1
100
AcDbLine
10
93.4193858816
20
19.9634574814
11
93.3598856119
21
19.9557297456
0
ARC
5
1F0
100
AcDbEntity
8
Walls
6
CONTINUOUS
62
256
370
-1
100
AcDbCircle
10
92.1004632357
20
19.792159338
40
0.21
100
AcDbArc
50
7.40000000001
51
97.4
0
LINE
5
1F1
100
AcDbEntity
8
Walls
6
CONTINUOUS
62
256
370
-1
100
AcDbLine
10
92.24921391
20
19.8114786775
11
92.3087141798
21
19.8192064133
0
LINE
5
1F2
100
AcDbEntity
8
Walls
6
CONTINUOUS
62
256
370
-1
100
AcDbLine
10
93.3329214781
20
20.063151583
11
93.3330211609
21
20.0631645295
0
LINE
5
1F3
100
AcDbEntity
8
Walls
6
ByLayer
62
256
370
-1
100
AcDbLine
10
91.5394593553
20
23.2278760572
11
91.5175641038
21
23.3964601548
0
LINE
5
1F4
100
AcDbEntity
8
Walls
6
CONTINUOUS
62
256
370
-1
100
AcDbLine
10
95.9916779368
20
21.3815685884
11
96.1030861278
21
20.5237730329
0
LINE
5
1F5
100
AcDbEntity
8
Walls
6
CONTINUOUS
62
256
370
-1
100
AcDbLine
10
96.416874901
20
21.1746083468
11
97.1110447147
21
21.2647652644
0
LINE
5
1F6
100
AcDbEntity
8
Walls
6
CONTINUOUS
62
256
370
-1
100
AcDbLine
10
96.416874901
20
21.1746083468
11
96.4870685011
21
20.6341475633
0
LINE
5
1F7
100
AcDbEntity
8
Walls
6
CONTINUOUS
62
256
370
-1
100
AcDbLine
10
96.4870685011
20
20.6341475633
11
97.1812383148
21
20.7243044809
0
ARC
5
1F8
100
AcDbEntity
8
Walls
6
CONTINUOUS
62
256
370
-1
100
AcDbCircle
10
96.0217377011
20
23.1300025764
40
0.255
100
AcDbArc
50
187.4
51
277.4
0
LINE
5
1F9
100
AcDbEntity
8
Walls
6
ByLayer
62
256
370
-1
100
AcDbLine
10
94.0413672121
20
23.7242449481
11
94.0593985956
21
23.5854109854
0
LINE
5
1FA
100
AcDbEntity
8
Walls
6
ByLayer
62
256
370
-1
100
AcDbLine
10
95.1123720675
20
23.8633441924
11
95.130403451
21
23.7245102297
0
LINE
5
1FB
100
AcDbEntity
8
Walls
6
CONTINUOUS
62
256
370
-1
100
AcDbLine
10
95.134654255
20
23.6141384458
11
95.1347539377
21
23.6141513924
0
ARC
5
1FC
100
AcDbEntity
8
Walls
6
CONTINUOUS
62
256
370
-1
100
AcDbCircle
10
95.3485711067
20
23.7528452609
40
0.27
100
AcDbArc
50
187.4
51
277.4
0
LINE
5
1FD
100
AcDbEntity
8
Walls
6
CONTINUOUS
62
256
370
-1
100
AcDbLine
10
94.0593985956
20
23.5854109854
11
94.1089821537
21
23.5918507652
0
ARC
5
1FE
100
AcDbEntity
8
Walls
6
CONTINUOUS
62
256
370
-1
100
AcDbCircle
10
93.8412309399
20
23.5570759541
40
0.27
100
AcDbArc
50
277.4
51
7.39999999999
0
LINE
5
1FF
100
AcDbEntity
8
Walls
6
CONTINUOUS
62
256
370
-1
100
AcDbLine
10
95.130403451
20
23.7245102297
11
95.0808198929
21
23.7180704498
0
LINE
5
200
100
AcDbEntity
8
Walls
6
CONTINUOUS
62
256
370
-1
100
AcDbLine
10
95.7129184117
20
23.5278980405
11
95.7688615547
21
23.0971596993
0
LINE
5
201
100
AcDbEntity
8
Walls
6
CONTINUOUS
62
256
370
-1
100
AcDbLine
10
95.1024553559
20
23.8620562364
11
95.6452371497
21
23.9325512832
0
LINE
5
202
100
AcDbEntity
8
Walls
6
ByLayer
62
256
370
-1
100
AcDbLine
10
96.3582729046
20
21.6258187257
11
96.2194389418
21
21.6077873422
0
LINE
5
203
100
AcDbEntity
8
Walls
6
CONTINUOUS
62
256
370
-1
100
AcDbLine
10
96.2194389418
20
21.6077873422
11
96.211711206
21
21.6672876119
0
ARC
5
204
100
AcDbEntity
8
Walls
6
CONTINUOUS
62
256
370
-1
100
AcDbCircle
10
96.2445540832
20
21.4144114655
40
0.255
100
AcDbArc
50
97.4
51
187.4
0
LINE
5
205
100
AcDbEntity
8
Walls
6
CONTINUOUS
62
256
370
-1
100
AcDbLine
10
96.0468528424
20
22.9366266998
11
96.0545805782
21
22.87712643
0
LINE
5
206
100
AcDbEntity
8
Walls
6
CONTINUOUS
62
256
370
-1
100
AcDbLine
10
95.9908467319
20
22.767359583
11
95.9908337854
21
22.7674592658
0
LINE
5
207
100
AcDbEntity
8
Walls
6
ByLayer
62
256
370
-1
100
AcDbLine
10
96.1856868051
20
22.9546580833
11
96.0468528424
21
22.9366266998
0
LINE
5
208
100
AcDbEntity
8
Walls
6
CONTINUOUS
62
256
370
-1
100
AcDbLine
10
96.3582729046
20
21.6258187257
11
96.4020634074
21
21.2886505305
0
LINE
5
209
100
AcDbEntity
8
Walls
6
CONTINUOUS
62
256
370
-1
100
AcDbLine
10
96.4020634074
20
21.2886505305
11
97.2102754047
21
21.3936189417
0
LINE
5
20A
100
AcDbEntity
8
Walls
6
ByLayer
62
256
370
-1
100
AcDbLine
10
43.19
20
35.94
11
43.19
21
32.58
0
LINE
5
20B
100
AcDbEntity
8
Walls
6
ByLayer
62
256
370
-1
100
AcDbLine
10
35.21
20
32.58
11
35.21
21
35.94
0
LINE
5
20C
100
AcDbEntity
8
Walls
6
ByLayer
62
256
370
-1
100
AcDbLine
10
38.11
20
32.3002
11
43.19
21
32.3002
0
LINE
5
20D
100
AcDbEntity
8
Walls
6
ByLayer
62
256
370
-1
100
AcDbLine
10
37.26
20
32.58
11
43.19
21
32.58
0
LINE
5
20E
100
AcDbEntity
8
Walls
6
ByLayer
62
256
370
-1
100
AcDbLine
10
37.9625
20
29.6451
11
37.9625
21
29.7851
0
LINE
5
20F
100
AcDbEntity
8
Walls
6
ByLayer
62
256
370
-1
100
AcDbLine
10
38.2325
20
29.6451
11
38.2325
21
29.7851
0
LINE
5
210
100
AcDbEntity
8
Walls
6
ByLayer
62
256
370
-1
100
AcDbLine
10
38.37
20
29.83
11
38.37
21
29.02
0
LINE
5
211
100
AcDbEntity
8
Walls
6
ByLayer
62
256
370
-1
100
AcDbLine
10
37.83
20
28.8198745855
11
37.83
21
30.9402
0
LINE
5
212
100
AcDbEntity
8
Walls
6
ByLayer
62
256
370
-1
100
AcDbLine
10
38.11
20
25.76
11
38.11
21
27.65
0
LINE
5
213
100
AcDbEntity
8
Walls
6
CONTINUOUS
62
256
370
-1
100
AcDbLine
10
38.11
20
25.76
11
38.23
21
25.76
0
LINE
5
214
100
AcDbEntity
8
Walls
6
ByLayer
62
256
370
-1
100
AcDbLine
10
38.0975
20
25.345025
11
37.9575
21
25.345025
0
LINE
5
215
100
AcDbEntity
8
Walls
6
ByLayer
62
256
370
-1
100
AcDbLine
10
38.0975
20
25.615025
11
37.9575
21
25.615025
0
LINE
5
216
100
AcDbEntity
8
Walls
6
ByLayer
62
256
370
-1
100
AcDbLine
10
38.0975
20
25.345025
11
38.0975
21
25.615025
0
LINE
5
217
100
AcDbEntity
8
Walls
6
ByLayer
62
256
370
-1
100
AcDbLine
10
37.9575
20
25.345025
11
37.9575
21
25.615025
0
LINE
5
218
100
AcDbEntity
8
Walls
6
ByLayer
62
256
370
-1
100
AcDbLine
10
38.0975
20
25.20005
11
37.9575
21
25.20005
0
LINE
5
219
100
AcDbEntity
8
Walls
6
CONTINUOUS
62
256
370
-1
100
AcDbLine
10
38.08
20
24.3701
11
38.23
21
24.3701
0
LINE
5
21A
100
AcDbEntity
8
Walls
6
CONTINUOUS
62
256
370
-1
100
AcDbLine
10
38.23
20
24.92
11
38.23
21
24.3701
0
LINE
5
21B
100
AcDbEntity
8
Walls
6
ByLayer
62
256
370
-1
100
AcDbLine
10
38.0975
20
24.93005
11
37.9575
21
24.93005
0
LINE
5
21C
100
AcDbEntity
8
Walls
6
ByLayer
62
256
370
-1
100
AcDbLine
10
37.9575
20
24.515075
11
37.9575
21
24.785075
0
LINE
5
21D
100
AcDbEntity
8
Walls
6
ByLayer
62
256
370
-1
100
AcDbLine
10
38.0975
20
24.515075
11
38.0975
21
24.785075
0
LINE
5
21E
100
AcDbEntity
8
Walls
6
ByLayer
62
256
370
-1
100
AcDbLine
10
38.0975
20
24.515075
11
37.9575
21
24.515075
0
LINE
5
21F
100
AcDbEntity
8
Walls
6
ByLayer
62
256
370
-1
100
AcDbLine
10
38.0975
20
24.785075
11
37.9575
21
24.785075
0
LINE
5
220
100
AcDbEntity
8
Walls
6
CONTINUOUS
62
256
370
-1
100
AcDbLine
10
38.23
20
24.92
11
38.23
21
25.76
0
LINE
5
221
100
AcDbEntity
8
Walls
6
ByLayer
62
256
370
-1
100
AcDbLine
10
38.0975
20
24.93005
11
38.0975
21
25.20005
0
LINE
5
222
100
AcDbEntity
8
Walls
6
ByLayer
62
256
370
-1
100
AcDbLine
10
37.9575
20
24.93005
11
37.9575
21
25.20005
0
LINE
5
223
100
AcDbEntity
8
Walls
6
CONTINUOUS
62
256
370
-1
100
AcDbLine
10
38.11
20
29.02
11
38.37
21
29.02
0
LINE
5
224
100
AcDbEntity
8
Walls
6
ByLayer
62
256
370
-1
100
AcDbLine
10
38.11
20
28.7198745855
11
38.11
21
29.02
0
LINE
5
225
100
AcDbEntity
8
Walls
6
ByLayer
62
256
370
-1
100
AcDbLine
10
37.9625
20
29.2851
11
38.2325
21
29.2851
0
LINE
5
226
100
AcDbEntity
8
Walls
6
ByLayer
62
256
370
-1
100
AcDbLine
10
37.9625
20
29.1451
11
38.2325
21
29.1451
0
LINE
5
227
100
AcDbEntity
8
Walls
6
ByLayer
62
256
370
-1
100
AcDbLine
10
37.9625
20
29.1451
11
37.9625
21
29.2851
0
LINE
5
228
100
AcDbEntity
8
Walls
6
ByLayer
62
256
370
-1
100
AcDbLine
10
38.2325
20
29.1451
11
38.2325
21
29.2851
0
LINE
5
229
100
AcDbEntity
8
Walls
6
ByLayer
62
256
370
-1
100
AcDbLine
10
37.9625
20
29.5351
11
38.2325
21
29.5351
0
LINE
5
22A
100
AcDbEntity
8
Walls
6
ByLayer
62
256
370
-1
100
AcDbLine
10
37.9625
20
29.3951
11
38.2325
21
29.3951
0
LINE
5
22B
100
AcDbEntity
8
Walls
6
ByLayer
62
256
370
-1
100
AcDbLine
10
38.2325
20
29.3951
11
38.2325
21
29.5351
0
LINE
5
22C
100
AcDbEntity
8
Walls
6
ByLayer
62
256
370
-1
100
AcDbLine
10
37.9625
20
29.3951
11
37.9625
21
29.5351
0
LINE
5
22D
100
AcDbEntity
8
Walls
6
ByLayer
62
256
370
-1
100
AcDbLine
10
37.9625
20
29.6451
11
38.2325
21
29.6451
0
LINE
5
22E
100
AcDbEntity
8
Walls
6
ByLayer
62
256
370
-1
100
AcDbLine
10
38.11
20
28.7198745855
11
37.99
21
28.7198745855
0
LINE
5
22F
100
AcDbEntity
8
Walls
6
ByLayer
62
256
370
-1
100
AcDbLine
10
35.52
20
32.3
11
35.52
21
32.58
0
LINE
5
230
100
AcDbEntity
8
Walls
6
ByLayer
62
256
370
-1
100
AcDbLine
10
35.21
20
32.3
11
35.52
21
32.3
0
LINE
5
231
100
AcDbEntity
8
Walls
6
ByLayer
62
256
370
-1
100
AcDbLine
10
35.21
20
31
11
35.21
21
32.29
0
LINE
5
232
100
AcDbEntity
8
Walls
6
ByLayer
62
256
370
-1
100
AcDbLine
10
35.21
20
32.58
11
35.52
21
32.58
0
LINE
5
233
100
AcDbEntity
8
Walls
6
ByLayer
62
256
370
-1
100
AcDbLine
10
37.26
20
32.3
11
37.26
21
32.58
0
LINE
5
234
100
AcDbEntity
8
Walls
6
ByLayer
62
256
370
-1
100
AcDbLine
10
38.11
20
32.1100745855
11
38.11
21
32.3002
0
LINE
5
235
100
AcDbEntity
8
Walls
6
ByLayer
62
256
370
-1
100
AcDbLine
10
37.83
20
32.2100745855
11
37.83
21
32.3
0
LINE
5
236
100
AcDbEntity
8
Walls
6
ByLayer
62
256
370
-1
100
AcDbLine
10
38.11
20
32.1100745855
11
37.99
21
32.1100745855
0
LINE
5
237
100
AcDbEntity
8
Walls
6
CONTINUOUS
62
256
370
-1
100
AcDbLine
10
37.99
20
32.1100745855
11
37.99
21
32.0500745855
0
LINE
5
238
100
AcDbEntity
8
Walls
6
ByLayer
62
256
370
-1
100
AcDbLine
10
37.9625
20
30.9251
11
38.2325
21
30.9251
0
LINE
5
239
100
AcDbEntity
8
Walls
6
CONTINUOUS
62
256
370
-1
100
AcDbLine
10
38.35
20
31.0402
11
38.09
21
31.0402
0
LINE
5
23A
100
AcDbEntity
8
Walls
6
ByLayer
62
256
370
-1
100
AcDbLine
10
38.12
20
31.0402
11
37.99
21
31.0402
0
LINE
5
23B
100
AcDbEntity
8
Walls
6
CONTINUOUS
62
256
370
-1
100
AcDbLine
10
37.99
20
31.0402
11
37.99
21
31.1002
0
ARC
5
23C
100
AcDbEntity
8
Walls
6
CONTINUOUS
62
256
370
-1
100
AcDbCircle
10
37.99
20
30.9402
40
0.16
100
AcDbArc
50
90
51
180
0
LINE
5
23D
100
AcDbEntity
8
Walls
6
CONTINUOUS
62
256
370
-1
100
AcDbLine
10
37.99
20
31.0852
11
37.99
21
31.0852
0
ARC
5
23E
100
AcDbEntity
8
Walls
6
CONTINUOUS
62
256
370
-1
100
AcDbCircle
10
37.99
20
32.2100745855
40
0.16
100
AcDbArc
50
180
51
270
0
LINE
5
23F
100
AcDbEntity
8
Walls
6
ByLayer
62
256
370
-1
100
AcDbLine
10
37.26
20
32.3
11
37.83
21
32.3
0
LINE
5
240
100
AcDbEntity
8
Walls
6
ByLayer
62
256
370
-1
100
AcDbLine
10
37.9625
20
29.8951
11
37.9625
21
30.1651
0
LINE
5
241
100
AcDbEntity
8
Walls
6
ByLayer
62
256
370
-1
100
AcDbLine
10
38.2325
20
29.8951
11
38.2325
21
30.1651
0
LINE
5
242
100
AcDbEntity
8
Walls
6
ByLayer
62
256
370
-1
100
AcDbLine
10
37.9625
20
30.1651
11
38.2325
21
30.1651
0
LINE
5
243
100
AcDbEntity
8
Walls
6
ByLayer
62
256
370
-1
100
AcDbLine
10
37.9625
20
29.8951
11
38.2325
21
29.8951
0
LINE
5
244
100
AcDbEntity
8
Walls
6
ByLayer
62
256
370
-1
100
AcDbLine
10
37.9625
20
29.7851
11
38.2325
21
29.7851
0
LINE
5
245
100
AcDbEntity
8
Walls
6
ByLayer
62
256
370
-1
100
AcDbLine
10
37.9625
20
30.2751
11
38.2325
21
30.2751
0
LINE
5
246
100
AcDbEntity
8
Walls
6
ByLayer
62
256
370
-1
100
AcDbLine
10
37.9625
20
30.5451
11
38.2325
21
30.5451
0
LINE
5
247
100
AcDbEntity
8
Walls
6
ByLayer
62
256
370
-1
100
AcDbLine
10
38.2325
20
30.2751
11
38.2325
21
30.5451
0
LINE
5
248
100
AcDbEntity
8
Walls
6
ByLayer
62
256
370
-1
100
AcDbLine
10
37.9625
20
30.2751
11
37.9625
21
30.5451
0
LINE
5
249
100
AcDbEntity
8
Walls
6
ByLayer
62
256
370
-1
100
AcDbLine
10
37.9625
20
30.6551
11
38.2325
21
30.6551
0
LINE
5
24A
100
AcDbEntity
8
Walls
6
ByLayer
62
256
370
-1
100
AcDbLine
10
38.35
20
29.83
11
38.35
21
31.0402
0
LINE
5
24B
100
AcDbEntity
8
Walls
6
ByLayer
62
256
370
-1
100
AcDbLine
10
37.9625
20
30.6551
11
37.9625
21
30.9251
0
LINE
5
24C
100
AcDbEntity
8
Walls
6
ByLayer
62
256
370
-1
100
AcDbLine
10
38.2325
20
30.6551
11
38.2325
21
30.9251
0
LINE
5
24D
100
AcDbEntity
8
Walls
6
ByLayer
62
256
370
-1
100
AcDbLine
10
43.19
20
30.19
11
43.19
21
27.42
0
LINE
5
24E
100
AcDbEntity
8
Walls
6
ByLayer
62
256
370
-1
100
AcDbLine
10
43.19
20
27.27
11
43.19
21
24.61
0
LINE
5
24F
100
AcDbEntity
8
Walls
6
ByLayer
62
256
370
-1
100
AcDbLine
10
43.19
20
32.3002
11
43.19
21
30.19
0
LINE
5
250
100
AcDbEntity
8
Walls
6
ByLayer
62
256
370
-1
100
AcDbLine
10
34.8
20
36.35
11
43.6
21
36.35
0
LINE
5
251
100
AcDbEntity
8
Walls
6
ByLayer
62
256
370
-1
100
AcDbLine
10
35.21
20
35.94
11
43.19
21
35.94
0
LINE
5
252
100
AcDbEntity
8
Walls
6
ByLayer
62
256
370
-1
100
AcDbLine
10
38.0400107177
20
36.17
11
40.3600107177
21
36.17
0
LINE
5
253
100
AcDbEntity
8
Walls
6
ByLayer
62
256
370
-1
100
AcDbLine
10
38.0401949189
20
36.17
11
38.0408001515
21
35.94
0
LINE
5
254
100
AcDbEntity
8
Walls
6
ByLayer
62
256
370
-1
100
AcDbLine
10
40.2999513689
20
36.35
11
40.3000107177
21
36.17
0
LINE
5
255
100
AcDbEntity
8
Walls
6
ByLayer
62
256
370
-1
100
AcDbLine
10
40.3600337978
20
36.17
11
40.3601096324
21
35.94
0
LINE
5
256
100
AcDbEntity
8
Walls
6
ByLayer
62
256
370
-1
100
AcDbLine
10
95.6675083509
20
25.236278246
11
95.136870493
21
29.321963435
0
LINE
5
257
100
AcDbEntity
8
Walls
6
CONTINUOUS
62
256
370
-1
100
AcDbLine
10
95.8856760066
20
25.2646132772
11
95.6675083509
21
25.236278246
0
LINE
5
258
100
AcDbEntity
8
Walls
6
CONTINUOUS
62
256
370
-1
100
AcDbLine
10
95.6597806151
20
25.2957785157
11
95.4713630943
21
25.2713073524
0
LINE
5
259
100
AcDbEntity
8
Walls
6
CONTINUOUS
62
256
370
-1
100
AcDbLine
10
91.7161689076
20
31.0860852175
11
94.6663906157
21
31.4692521173
0
LINE
5
25A
100
AcDbEntity
8
Walls
6
ByLayer
62
256
370
-1
100
AcDbLine
10
91.7161689076
20
31.0860852175
11
91.5345671164
21
32.4843415564
0
LINE
5
25B
100
AcDbEntity
8
Walls
6
ByLayer
62
256
370
-1
100
AcDbLine
10
104.148806239
20
23.9888867238
11
103.036095226
21
32.5562869524
0
ARC
5
25C
100
AcDbEntity
8
Walls
6
CONTINUOUS
62
256
370
-1
100
AcDbCircle
10
104.260593127
20
24.2151690514
40
0.27
100
AcDbArc
50
277.4
51
7.40000000001
0
LINE
5
25D
100
AcDbEntity
8
Walls
6
ByLayer
62
256
370
-1
100
AcDbLine
10
116.059428789
20
13.4793531632
11
113.729384423
21
12.8637288866
0
LINE
5
25E
100
AcDbEntity
8
Walls
6
ByLayer
62
256
370
-1
100
AcDbLine
10
114.139293883
20
13.3736251115
11
112.810720889
21
18.297535529
0
LINE
5
25F
100
AcDbEntity
8
Walls
6
ByLayer
62
256
370
-1
100
AcDbLine
10
104.856773112
20
21.7211823984
11
107.625194274
21
22.0807375299
0
LINE
5
260
100
AcDbEntity
8
Walls
6
CONTINUOUS
62
256
370
-1
100
AcDbLine
10
101.498230508
20
20.8715403696
11
107.678000469
21
21.6741523534
0
LINE
5
261
100
AcDbEntity
8
Walls
6
CONTINUOUS
62
256
370
-1
100
AcDbLine
10
101.900880003
20
22.0028221135
11
101.355460863
21
21.9319845354
0
LINE
5
262
100
AcDbEntity
8
Walls
6
CONTINUOUS
62
256
370
-1
100
AcDbLine
10
99.0505384559
20
20.9670841805
11
98.9784129218
21
21.5224200314
0
LINE
5
263
100
AcDbEntity
8
Walls
6
CONTINUOUS
62
256
370
-1
100
AcDbLine
10
99.3976233627
20
21.0121626393
11
99.3254978286
21
21.5674984902
0
LINE
5
264
100
AcDbEntity
8
Walls
6
CONTINUOUS
62
256
370
-1
100
AcDbLine
10
99.5495966736
20
20.6184570223
11
99.4117853852
21
21.6795451661
0
LINE
5
265
100
AcDbEntity
8
Walls
6
CONTINUOUS
62
256
370
-1
100
AcDbLine
10
101.493272152
20
20.8708963916
11
101.355460863
21
21.9319845354
0
LINE
5
266
100
AcDbEntity
8
Walls
6
CONTINUOUS
62
256
370
-1
100
AcDbLine
10
98.9513713397
20
20.9542046208
11
98.8663662459
21
21.608707588
0
LINE
5
267
100
AcDbEntity
8
Walls
6
CONTINUOUS
62
256
370
-1
100
AcDbLine
10
99.0505384559
20
20.9670841805
11
99.3976233627
21
21.0121626393
0
LINE
5
268
100
AcDbEntity
8
Walls
6
CONTINUOUS
62
256
370
-1
100
AcDbLine
10
98.9784129218
20
21.5224200314
11
99.3254978286
21
21.5674984902
0
LINE
5
269
100
AcDbEntity
8
Walls
6
CONTINUOUS
62
256
370
-1
100
AcDbLine
10
98.8663662459
20
21.608707588
11
99.4117853852
21
21.6795451661
0
LINE
5
26A
100
AcDbEntity
8
Walls
6
CONTINUOUS
62
256
370
-1
100
AcDbLine
10
101.539633073
20
21.2903611279
11
101.467507539
21
21.8456969788
0
LINE
5
26B
100
AcDbEntity
8
Walls
6
CONTINUOUS
62
256
370
-1
100
AcDbLine
10
101.814592446
20
21.8907754376
11
101.467507539
21
21.8456969788
0
LINE
5
26C
100
AcDbEntity
8
Walls
6
CONTINUOUS
62
256
370
-1
100
AcDbLine
10
101.88671798
20
21.3354395867
11
101.814592446
21
21.8907754376
0
LINE
5
26D
100
AcDbEntity
8
Walls
6
CONTINUOUS
62
256
370
-1
100
AcDbLine
10
101.539633073
20
21.2903611279
11
101.88671798
21
21.3354395867
0
LINE
5
26E
100
AcDbEntity
8
Walls
6
ByLayer
62
256
370
-1
100
AcDbLine
10
103.756018121
20
21.5782192862
11
104.450187935
21
21.6683762038
0
LINE
5
26F
100
AcDbEntity
8
Walls
6
CONTINUOUS
62
256
370
-1
100
AcDbLine
10
103.756018121
20
21.5782192862
11
104.445229579
21
21.6677322258
0
LINE
5
270
100
AcDbEntity
8
Walls
6
CONTINUOUS
62
256
370
-1
100
AcDbLine
10
104.365182841
20
22.322879171
11
103.556970844
21
22.2179107598
0
LINE
5
271
100
AcDbEntity
8
Walls
6
CONTINUOUS
62
256
370
-1
100
AcDbLine
10
104.379994335
20
22.2088369873
11
103.685824521
21
22.1186800697
0
LINE
5
272
100
AcDbEntity
8
Walls
6
ByLayer
62
256
370
-1
100
AcDbLine
10
101.985885097
20
21.3483191463
11
103.641975938
21
21.5634077926
0
LINE
5
273
100
AcDbEntity
8
Walls
6
CONTINUOUS
62
256
370
-1
100
AcDbLine
10
101.985885097
20
21.3483191463
11
101.900880003
21
22.0028221135
0
LINE
5
274
100
AcDbEntity
8
Walls
6
CONTINUOUS
62
256
370
-1
100
AcDbLine
10
103.641975938
20
21.5634077926
11
103.556970844
21
22.2179107598
0
LINE
5
275
100
AcDbEntity
8
Walls
6
CONTINUOUS
62
256
370
-1
100
AcDbLine
10
103.756018121
20
21.5782192862
11
103.685824521
21
22.1186800697
0
LINE
5
276
100
AcDbEntity
8
Walls
6
ByLayer
62
256
370
-1
100
AcDbLine
10
104.365182841
20
22.322879171
11
104.316240515
21
22.6997142127
0
LINE
5
277
100
AcDbEntity
8
Walls
6
ByLayer
62
256
370
-1
100
AcDbLine
10
104.856773112
20
21.7211823984
11
104.749872766
21
22.5442694632
0
LINE
5
278
100
AcDbEntity
8
Walls
6
CONTINUOUS
62
256
370
-1
100
AcDbLine
10
104.455074477
20
22.7177455962
11
104.447346742
21
22.777245866
0
ARC
5
279
100
AcDbEntity
8
Walls
6
CONTINUOUS
62
256
370
-1
100
AcDbCircle
10
104.482121553
20
22.5094946521
40
0.27
100
AcDbArc
50
7.4
51
97.4
0
LINE
5
27A
100
AcDbEntity
8
Walls
6
ByLayer
62
256
370
-1
100
AcDbLine
10
104.316240515
20
22.6997142127
11
104.455074477
21
22.7177455962
0
LINE
5
27B
100
AcDbEntity
8
Walls
6
ByLayer
62
256
370
-1
100
AcDbLine
10
113.505909456
20
18.4851118004
11
112.810720889
21
18.297535529
0
LINE
5
27C
100
AcDbEntity
8
Walls
6
ByLayer
62
256
370
-1
100
AcDbLine
10
113.729384423
20
12.8637288866
11
112.960271083
21
15.77470604
0
LINE
5
27D
100
AcDbEntity
8
Walls
6
ByLayer
62
256
370
-1
100
AcDbLine
10
108.795465929
20
22.2327292804
11
111.648928547
21
22.6033293686
0
LINE
5
27E
100
AcDbEntity
8
Walls
6
CONTINUOUS
62
256
370
-1
100
AcDbLine
10
108.848272123
20
21.8261441039
11
111.278034708
21
22.1417151657
0
LINE
5
27F
100
AcDbEntity
8
Walls
6
ByLayer
62
256
370
-1
100
AcDbLine
10
107.678101304
20
21.6733759649
11
107.62529511
21
22.0799611415
0
LINE
5
280
100
AcDbEntity
8
Walls
6
ByLayer
62
256
370
-1
100
AcDbLine
10
108.848272123
20
21.8261441039
11
108.795465929
21
22.2327292804
0
LINE
5
281
100
AcDbEntity
8
Walls
6
ByLayer
62
256
370
-1
100
AcDbLine
10
112.741687194
20
18.5533857762
11
111.648928547
21
22.6033293686
0
LINE
5
282
100
AcDbEntity
8
Walls
6
ByLayer
62
256
370
-1
100
AcDbLine
10
113.436875762
20
18.7409620476
11
112.741687194
21
18.5533857762
0
LINE
5
283
100
AcDbEntity
8
Walls
6
ByLayer
62
256
370
-1
100
AcDbLine
10
116.041178418
20
13.8867929431
11
114.139293883
21
13.3736251115
0
LINE
5
284
100
AcDbEntity
8
Walls
6
ByLayer
62
256
370
-1
100
AcDbLine
10
114.441325404
20
26.8141783131
11
111.294042709
21
25.9649762686
0
LINE
5
285
100
AcDbEntity
8
Walls
6
ByLayer
62
256
370
-1
100
AcDbLine
10
114.550099684
20
26.4499382523
11
111.368344712
21
25.5914348738
0
LINE
5
286
100
AcDbEntity
8
Walls
6
CONTINUOUS
62
256
370
-1
100
AcDbLine
10
103.442680403
20
32.609093147
11
106.392902111
21
32.9922600468
0
LINE
5
287
100
AcDbEntity
8
Walls
6
ByLayer
62
256
370
-1
100
AcDbLine
10
106.627995273
20
25.3589625153
11
105.649148739
21
32.8956633494
0
LINE
5
288
100
AcDbEntity
8
Walls
6
ByLayer
62
256
370
-1
100
AcDbLine
10
104.066963096
20
26.327176949
11
103.536325238
21
30.412862138
0
LINE
5
289
100
AcDbEntity
8
Walls
6
ByLayer
62
256
370
-1
100
AcDbLine
10
104.421526937
20
25.0723923129
11
103.442680403
21
32.609093147
0
LINE
5
28A
100
AcDbEntity
8
Walls
6
CONTINUOUS
62
256
370
-1
100
AcDbLine
10
103.848795441
20
26.2988419178
11
104.066963096
21
26.327176949
0
LINE
5
28B
100
AcDbEntity
8
Walls
6
ByLayer
62
256
370
-1
100
AcDbLine
10
104.52834434
20
24.2499438625
11
104.470469263
21
24.6955572712
0
LINE
5
28C
100
AcDbEntity
8
Walls
6
CONTINUOUS
62
256
370
-1
100
AcDbLine
10
104.059235361
20
26.3866772187
11
104.247652881
21
26.4111483821
0
ARC
5
28D
100
AcDbEntity
8
Walls
6
CONTINUOUS
62
256
370
-1
100
AcDbCircle
10
104.836461402
20
24.9851070602
40
0.24
100
AcDbArc
50
277.4
51
7.39999999999
0
LINE
5
28E
100
AcDbEntity
8
Walls
6
ByLayer
62
256
370
-1
100
AcDbLine
10
105.00684754
20
25.1484121863
11
105.024878923
21
25.0095782236
0
LINE
5
28F
100
AcDbEntity
8
Walls
6
CONTINUOUS
62
256
370
-1
100
AcDbLine
10
105.024878923
20
25.0095782236
11
105.074462481
21
25.0160180034
0
LINE
5
290
100
AcDbEntity
8
Walls
6
CONTINUOUS
62
256
370
-1
100
AcDbLine
10
105.10846342
20
24.9095100875
11
105.108363737
21
24.9094971409
0
LINE
5
291
100
AcDbEntity
8
Walls
6
CONTINUOUS
62
256
370
-1
100
AcDbLine
10
105.00684754
20
25.1484121863
11
104.421526937
21
25.0723923129
0
LINE
5
292
100
AcDbEntity
8
Walls
6
CONTINUOUS
62
256
370
-1
100
AcDbLine
10
104.867372345
20
24.7471059812
11
104.470469263
21
24.6955572712
0
LINE
5
293
100
AcDbEntity
8
Walls
6
CONTINUOUS
62
256
370
-1
100
AcDbLine
10
103.318157583
20
30.3845271068
11
103.536325238
21
30.412862138
0
LINE
5
294
100
AcDbEntity
8
Walls
6
CONTINUOUS
62
256
370
-1
100
AcDbLine
10
103.544052974
20
30.3533618683
11
103.732470495
21
30.3778330316
0
LINE
5
295
100
AcDbEntity
8
Walls
6
ByLayer
62
256
370
-1
100
AcDbLine
10
108.578644916
20
25.4459228376
11
110.185152199
21
25.6545717041
0
LINE
5
296
100
AcDbEntity
8
Walls
6
CONTINUOUS
62
256
370
-1
100
AcDbLine
10
111.294042709
20
25.9649762686
11
106.077852395
21
25.2875114306
0
LINE
5
297
100
AcDbEntity
8
Walls
6
ByLayer
62
256
370
-1
100
AcDbLine
10
106.077852395
20
25.2875114306
11
106.095883779
21
25.1486774679
0
LINE
5
298
100
AcDbEntity
8
Walls
6
CONTINUOUS
62
256
370
-1
100
AcDbLine
10
106.095883779
20
25.1486774679
11
106.04630022
21
25.142237688
0
ARC
5
299
100
AcDbEntity
8
Walls
6
CONTINUOUS
62
256
370
-1
100
AcDbCircle
10
106.284301299
20
25.1731486312
40
0.24
100
AcDbArc
50
187.4
51
277.4
0
LINE
5
29A
100
AcDbEntity
8
Walls
6
ByLayer
62
256
370
-1
100
AcDbLine
10
108.578326533
20
25.4458814869
11
108.606156178
21
25.2326892194
0
LINE
5
29B
100
AcDbEntity
8
Walls
6
ByLayer
62
256
370
-1
100
AcDbLine
10
108.616840086
20
25.6172683568
11
108.638145185
21
25.4536505734
0
LINE
5
29C
100
AcDbEntity
8
Walls
6
ByLayer
62
256
370
-1
100
AcDbLine
10
110.184811621
20
25.6545274708
11
110.212573097
21
25.4413263496
0
LINE
5
29D
100
AcDbEntity
8
Walls
6
ByLayer
62
256
370
-1
100
AcDbLine
10
110.104346829
20
25.8104617517
11
110.125651929
21
25.6468439683
0
LINE
5
29E
100
AcDbEntity
8
Walls
6
ByLayer
62
256
370
-1
100
AcDbLine
10
106.392902111
20
32.9922600468
11
106.21130032
21
34.3905163858
0
LINE
5
29F
100
AcDbEntity
8
Walls
6
ByLayer
62
256
370
-1
100
AcDbLine
10
88.055
20
8.69
11
88.055
21
9.75
0
LINE
5
2A0
100
AcDbEntity
8
Walls
6
ByLayer
62
256
370
-1
100
AcDbLine
10
85.58
20
18.67
11
85.58
21
18.14
0
LINE
5
2A1
100
AcDbEntity
8
Walls
6
ByLayer
62
256
370
-1
100
AcDbLine
10
38.0800198529
20
18.1398842685
11
37.83
21
18.1399147259
0
LINE
5
2A2
100
AcDbEntity
8
Walls
6
CONTINUOUS
62
256
370
-1
100
AcDbLine
10
111.368344712
20
25.5914348738
11
106.315212243
21
24.9351475522
0
LINE
5
2A3
100
AcDbEntity
8
Walls
6
CONTINUOUS
62
256
370
-1
100
AcDbLine
10
82.5
20
20.515
11
81.76
21
20.515
0
LINE
5
2A4
100
AcDbEntity
8
Walls
6
CONTINUOUS
62
256
370
-1
100
AcDbLine
10
85.58
20
20.515
11
83.225
21
20.515
0
LINE
5
2A5
100
AcDbEntity
8
Walls
6
CONTINUOUS
62
256
370
-1
100
AcDbLine
10
11.135
20
29.28
11
11.135
21
29.16
0
LINE
5
2A6
100
AcDbEntity
8
Walls
6
ByLayer
62
256
370
-1
100
AcDbLine
10
39.295
20
18.575
11
39.295
21
18.575
0
LINE
5
2A7
100
AcDbEntity
8
Walls
6
CONTINUOUS
62
256
370
-1
100
AcDbLine
10
3.97
20
9.3
11
4
21
9.3
0
LINE
5
2A8
100
AcDbEntity
8
Walls
6
CONTINUOUS
62
256
370
-1
100
AcDbLine
10
3.97
20
6.86
11
4
21
6.86
0
LINE
5
2A9
100
AcDbEntity
8
Walls
6
CONTINUOUS
62
256
370
-1
100
AcDbLine
10
4
20
6.91
11
4.51
21
6.91
0
LINE
5
2AA
100
AcDbEntity
8
Walls
6
CONTINUOUS
62
256
370
-1
100
AcDbLine
10
4
20
9.25
11
4.51
21
9.25
0
LINE
5
2AB
100
AcDbEntity
8
Walls
6
CONTINUOUS
62
256
370
-1
100
AcDbLine
10
4.49
20
5.96
11
9.51
21
5.96
0
LINE
5
2AC
100
AcDbEntity
8
Walls
6
CONTINUOUS
62
256
370
-1
100
AcDbLine
10
4.51
20
6.26
11
9.49
21
6.26
0
LINE
5
2AD
100
AcDbEntity
8
Walls
6
ByLayer
62
256
370
-1
100
AcDbLine
10
4.49
20
5.99
11
4.49
21
5.96
0
LINE
5
2AE
100
AcDbEntity
8
Walls
6
CONTINUOUS
62
256
370
-1
100
AcDbLine
10
10
20
6.9098
11
9.49
21
6.9098
0
LINE
5
2AF
100
AcDbEntity
8
Walls
6
CONTINUOUS
62
256
370
-1
100
AcDbLine
10
10
20
8.75
11
9.49
21
8.75
0
LINE
5
2B0
100
AcDbEntity
8
Walls
6
ByLayer
62
256
370
-1
100
AcDbLine
10
9.49
20
5.99
11
10
21
5.99
0
LINE
5
2B1
100
AcDbEntity
8
Walls
6
ByLayer
62
256
370
-1
100
AcDbLine
10
4
20
5.99
11
4.51
21
5.99
0
LINE
5
2B2
100
AcDbEntity
8
Walls
6
ByLayer
62
256
370
-1
100
AcDbLine
10
9.51
20
5.99
11
9.51
21
5.96
0
LINE
5
2B3
100
AcDbEntity
8
Walls
6
CONTINUOUS
62
256
370
-1
100
AcDbLine
10
71.67
20
20.21
11
71.67
21
22.19
0
LINE
5
2B4
100
AcDbEntity
8
Walls
6
CONTINUOUS
62
256
370
-1
100
AcDbLine
10
71.62
20
20.21
11
71.62
21
22.3
0
LINE
5
2B5
100
AcDbEntity
8
Walls
6
CONTINUOUS
62
256
370
-1
100
AcDbLine
10
75.09
20
20.21
11
75.09
21
21.96
0
LINE
5
2B6
100
AcDbEntity
8
Walls
6
CONTINUOUS
62
256
370
-1
100
AcDbLine
10
75.04
20
20.21
11
75.04
21
21.94
0
LINE
5
2B7
100
AcDbEntity
8
Walls
6
ByLayer
62
256
370
-1
100
AcDbLine
10
76.69
20
20.405
11
75.09
21
20.405
0
LINE
5
2B8
100
AcDbEntity
8
Walls
6
ByLayer
62
256
370
-1
100
AcDbLine
10
76.69
20
20.71
11
75.09
21
20.71
0
LINE
5
2B9
100
AcDbEntity
8
Walls
6
ByLayer
62
256
370
-1
100
AcDbLine
10
76.69
20
21.015
11
75.09
21
21.015
0
LINE
5
2BA
100
AcDbEntity
8
Walls
6
ByLayer
62
256
370
-1
100
AcDbLine
10
76.69
20
21.32
11
75.09
21
21.32
0
LINE
5
2BB
100
AcDbEntity
8
Walls
6
CONTINUOUS
62
256
370
-1
100
AcDbLine
10
70.41
20
20.31
11
71.62
21
20.31
0
LINE
5
2BC
100
AcDbEntity
8
Walls
6
CONTINUOUS
62
256
370
-1
100
AcDbLine
10
70.41
20
20.59
11
71.62
21
20.59
0
LINE
5
2BD
100
AcDbEntity
8
Walls
6
CONTINUOUS
62
256
370
-1
100
AcDbLine
10
70.41
20
20.87
11
71.62
21
20.87
0
LINE
5
2BE
100
AcDbEntity
8
Walls
6
CONTINUOUS
62
256
370
-1
100
AcDbLine
10
70.41
20
21.15
11
71.62
21
21.15
0
LINE
5
2BF
100
AcDbEntity
8
Walls
6
CONTINUOUS
62
256
370
-1
100
AcDbLine
10
70.41
20
21.43
11
71.62
21
21.43
0
LINE
5
2C0
100
AcDbEntity
8
Walls
6
CONTINUOUS
62
256
370
-1
100
AcDbLine
10
71.72
20
20.16
11
74.99
21
20.16
0
LINE
5
2C1
100
AcDbEntity
8
Walls
6
CONTINUOUS
62
256
370
-1
100
AcDbLine
10
71.72
20
20.11
11
74.99
21
20.11
0
ARC
5
2C2
100
AcDbEntity
8
Walls
6
ByLayer
62
256
370
-1
100
AcDbCircle
10
71.72
20
20.21
40
0.05
100
AcDbArc
50
180
51
270
0
ARC
5
2C3
100
AcDbEntity
8
Walls
6
ByLayer
62
256
370
-1
100
AcDbCircle
10
71.72
20
20.21
40
0.1
100
AcDbArc
50
180
51
270
0
ARC
5
2C4
100
AcDbEntity
8
Walls
6
CONTINUOUS
62
256
370
-1
100
AcDbCircle
10
74.99
20
20.21
40
0.1
100
AcDbArc
50
270
51
8.142e-13
0
ARC
5
2C5
100
AcDbEntity
8
Walls
6
CONTINUOUS
62
256
370
-1
100
AcDbCircle
10
74.99
20
20.21
40
0.05
100
AcDbArc
50
270
51
0
0
LINE
5
2C6
100
AcDbEntity
8
Walls
6
ByLayer
62
256
370
-1
100
AcDbLine
10
76.69
20
21.625
11
75.09
21
21.625
0
LINE
5
2C7
100
AcDbEntity
8
Walls
6
ByLayer
62
256
370
-1
100
AcDbLine
10
76.69
20
21.93
11
75.09
21
21.93
0
LINE
5
2C8
100
AcDbEntity
8
Walls
6
CONTINUOUS
62
256
370
-1
100
AcDbLine
10
70.41
20
21.71
11
71.62
21
21.71
0
LINE
5
2C9
100
AcDbEntity
8
Walls
6
CONTINUOUS
62
256
370
-1
100
AcDbLine
10
70.41
20
21.99
11
71.62
21
21.99
0
LINE
5
2CA
100
AcDbEntity
8
Walls
6
CONTINUOUS
62
256
370
-1
100
AcDbLine
10
71.56
20
22.255
11
71.62
21
22.255
0
LINE
5
2CB
100
AcDbEntity
8
Walls
6
CONTINUOUS
62
256
370
-1
100
AcDbLine
10
71.56
20
22.19
11
71.62
21
22.19
0
LINE
5
2CC
100
AcDbEntity
8
Walls
6
CONTINUOUS
62
256
370
-1
100
AcDbLine
10
72.2857692308
20
21.99
11
74.99
21
21.99
0
LINE
5
2CD
100
AcDbEntity
8
Walls
6
CONTINUOUS
62
256
370
-1
100
AcDbLine
10
72.3146153846
20
22.04
11
74.99
21
22.04
0
LINE
5
2CE
100
AcDbEntity
8
Walls
6
ByLayer
62
256
370
-1
100
AcDbLine
10
72.7250599982
20
22.7514373303
11
72.7250599982
21
22.04
0
LINE
5
2CF
100
AcDbEntity
8
Walls
6
CONTINUOUS
62
256
370
-1
100
AcDbLine
10
72.3306228673
20
22.19
11
73.1671613288
21
23.64
0
LINE
5
2D0
100
AcDbEntity
8
Walls
6
CONTINUOUS
62
256
370
-1
100
AcDbLine
10
72.2857692308
20
21.99
11
73.2376923077
21
23.64
0
LINE
5
2D1
100
AcDbEntity
8
Walls
6
ByLayer
62
256
370
-1
100
AcDbLine
10
73.6400599982
20
23.64
11
73.6400599982
21
22.04
0
LINE
5
2D2
100
AcDbEntity
8
Walls
6
ByLayer
62
256
370
-1
100
AcDbLine
10
73.3350599982
20
23.64
11
73.3350599982
21
22.04
0
LINE
5
2D3
100
AcDbEntity
8
Walls
6
ByLayer
62
256
370
-1
100
AcDbLine
10
73.0300599982
20
23.280103997
11
73.0300599982
21
22.04
0
LINE
5
2D4
100
AcDbEntity
8
Walls
6
CONTINUOUS
62
256
370
-1
100
AcDbLine
10
72.05
20
23.64
11
72.05
21
22.3
0
LINE
5
2D5
100
AcDbEntity
8
Walls
6
CONTINUOUS
62
256
370
-1
100
AcDbLine
10
72.33
20
23.64
11
72.33
21
22.3
0
LINE
5
2D6
100
AcDbEntity
8
Walls
6
CONTINUOUS
62
256
370
-1
100
AcDbLine
10
72.61
20
23.64
11
72.61
21
22.6829203633
0
LINE
5
2D7
100
AcDbEntity
8
Walls
6
ByLayer
62
256
370
-1
100
AcDbLine
10
71.62
20
22.3
11
72.3940844058
21
22.3
0
LINE
5
2D8
100
AcDbEntity
8
Walls
6
ByLayer
62
256
370
-1
100
AcDbLine
10
71.67
20
22.19
11
72.3306228673
21
22.19
0
LINE
5
2D9
100
AcDbEntity
8
Walls
6
ByLayer
62
256
370
-1
100
AcDbLine
10
72.4200599982
20
22.2227706636
11
72.4200599982
21
22.04
0
LINE
5
2DA
100
AcDbEntity
8
Walls
6
ByLayer
62
256
370
-1
100
AcDbLine
10
74.8600599982
20
23.64
11
74.8600599982
21
22.04
0
LINE
5
2DB
100
AcDbEntity
8
Walls
6
ByLayer
62
256
370
-1
100
AcDbLine
10
74.5550599982
20
23.64
11
74.5550599982
21
22.04
0
LINE
5
2DC
100
AcDbEntity
8
Walls
6
ByLayer
62
256
370
-1
100
AcDbLine
10
74.2500599982
20
23.64
11
74.2500599982
21
22.04
0
LINE
5
2DD
100
AcDbEntity
8
Walls
6
ByLayer
62
256
370
-1
100
AcDbLine
10
73.9450599982
20
23.64
11
73.9450599982
21
22.04
0
ARC
5
2DE
100
AcDbEntity
8
Walls
6
CONTINUOUS
62
256
370
-1
100
AcDbCircle
10
74.99
20
21.94
40
0.1
100
AcDbArc
50
8.142e-13
51
90
0
ARC
5
2DF
100
AcDbEntity
8
Walls
6
CONTINUOUS
62
256
370
-1
100
AcDbCircle
10
74.99
20
21.94
40
0.05
100
AcDbArc
50
0
51
90
0
LINE
5
2E0
100
AcDbEntity
8
Walls
6
CONTINUOUS
62
256
370
-1
100
AcDbLine
10
70.47
20
22.19
11
70.41
21
22.19
0
LINE
5
2E1
100
AcDbEntity
8
Walls
6
CONTINUOUS
62
256
370
-1
100
AcDbLine
10
70.47
20
22.255
11
70.41
21
22.255
0
LINE
5
2E2
100
AcDbEntity
8
Walls
6
CONTINUOUS
62
256
370
-1
100
AcDbLine
10
72.89
20
23.64
11
72.89
21
23.1682536967
0
LINE
5
2E3
100
AcDbEntity
8
Walls
6
CONTINUOUS
62
256
370
-1
100
AcDbLine
10
37.2624949683
20
34.26
11
37.2624949683
21
35.94
0
LINE
5
2E4
100
AcDbEntity
8
Walls
6
CONTINUOUS
62
256
370
-1
100
AcDbLine
10
37.2124949683
20
34.26
11
37.2124949683
21
35.94
0
LINE
5
2E5
100
AcDbEntity
8
Walls
6
CONTINUOUS
62
256
370
-1
100
AcDbLine
10
39.4975
20
35.94
11
39.4975
21
34.41
0
LINE
5
2E6
100
AcDbEntity
8
Walls
6
CONTINUOUS
62
256
370
-1
100
AcDbLine
10
39.1975
20
35.94
11
39.1975
21
34.41
0
LINE
5
2E7
100
AcDbEntity
8
Walls
6
CONTINUOUS
62
256
370
-1
100
AcDbLine
10
38.8975
20
35.94
11
38.8975
21
34.41
0
LINE
5
2E8
100
AcDbEntity
8
Walls
6
CONTINUOUS
62
256
370
-1
100
AcDbLine
10
38.5975
20
35.94
11
38.5975
21
34.41
0
LINE
5
2E9
100
AcDbEntity
8
Walls
6
CONTINUOUS
62
256
370
-1
100
AcDbLine
10
38.2975
20
35.94
11
38.2975
21
34.41
0
LINE
5
2EA
100
AcDbEntity
8
Walls
6
CONTINUOUS
62
256
370
-1
100
AcDbLine
10
37.9975
20
35.94
11
37.9975
21
34.41
0
LINE
5
2EB
100
AcDbEntity
8
Walls
6
CONTINUOUS
62
256
370
-1
100
AcDbLine
10
37.6975
20
35.94
11
37.6975
21
34.41
0
LINE
5
2EC
100
AcDbEntity
8
Walls
6
CONTINUOUS
62
256
370
-1
100
AcDbLine
10
40.6975
20
35.94
11
40.6975
21
34.41
0
LINE
5
2ED
100
AcDbEntity
8
Walls
6
CONTINUOUS
62
256
370
-1
100
AcDbLine
10
40.3975
20
35.94
11
40.3975
21
34.41
0
LINE
5
2EE
100
AcDbEntity
8
Walls
6
CONTINUOUS
62
256
370
-1
100
AcDbLine
10
40.0975
20
35.94
11
40.0975
21
34.41
0
LINE
5
2EF
100
AcDbEntity
8
Walls
6
CONTINUOUS
62
256
370
-1
100
AcDbLine
10
39.7975
20
35.93
11
39.7975
21
34.41
0
LINE
5
2F0
100
AcDbEntity
8
Walls
6
ByLayer
62
256
370
-1
100
AcDbLine
10
40.6975
20
34.36
11
37.3624949683
21
34.36
0
LINE
5
2F1
100
AcDbEntity
8
Walls
6
ByLayer
62
256
370
-1
100
AcDbLine
10
40.6975
20
34.41
11
37.3624949683
21
34.41
0
LINE
5
2F2
100
AcDbEntity
8
Walls
6
ByLayer
62
256
370
-1
100
AcDbLine
10
40.6975
20
34.11
11
37.3624949683
21
34.11
0
LINE
5
2F3
100
AcDbEntity
8
Walls
6
ByLayer
62
256
370
-1
100
AcDbLine
10
40.6975
20
34.16
11
37.3624949683
21
34.16
0
LINE
5
2F4
100
AcDbEntity
8
Walls
6
CONTINUOUS
62
256
370
-1
100
AcDbLine
10
37.6975
20
32.58
11
37.6975
21
34.11
0
ARC
5
2F5
100
AcDbEntity
8
Walls
6
ByLayer
62
256
370
-1
100
AcDbCircle
10
37.3624949683
20
34.26
40
0.15
100
AcDbArc
50
180
51
270
0
ARC
5
2F6
100
AcDbEntity
8
Walls
6
ByLayer
62
256
370
-1
100
AcDbCircle
10
37.3624949683
20
34.26
40
0.1
100
AcDbArc
50
180
51
270
0
ARC
5
2F7
100
AcDbEntity
8
Walls
6
ByLayer
62
256
370
-1
100
AcDbCircle
10
37.3624949683
20
34.26
40
0.15
100
AcDbArc
50
90
51
120
0
ARC
5
2F8
100
AcDbEntity
8
Walls
6
ByLayer
62
256
370
-1
100
AcDbCircle
10
37.3624949683
20
34.26
40
0.1
100
AcDbArc
50
90
51
120
0
LINE
5
2F9
100
AcDbEntity
8
Walls
6
CONTINUOUS
62
256
370
-1
100
AcDbLine
10
40.6975
20
32.58
11
40.6975
21
34.11
0
LINE
5
2FA
100
AcDbEntity
8
Walls
6
CONTINUOUS
62
256
370
-1
100
AcDbLine
10
37.9975
20
32.58
11
37.9975
21
34.11
0
LINE
5
2FB
100
AcDbEntity
8
Walls
6
CONTINUOUS
62
256
370
-1
100
AcDbLine
10
38.2975
20
32.58
11
38.2975
21
34.11
0
LINE
5
2FC
100
AcDbEntity
8
Walls
6
CONTINUOUS
62
256
370
-1
100
AcDbLine
10
38.5975
20
32.58
11
38.5975
21
34.11
0
LINE
5
2FD
100
AcDbEntity
8
Walls
6
CONTINUOUS
62
256
370
-1
100
AcDbLine
10
38.8975
20
32.58
11
38.8975
21
34.11
0
LINE
5
2FE
100
AcDbEntity
8
Walls
6
CONTINUOUS
62
256
370
-1
100
AcDbLine
10
39.1975
20
32.58
11
39.1975
21
34.11
0
LINE
5
2FF
100
AcDbEntity
8
Walls
6
CONTINUOUS
62
256
370
-1
100
AcDbLine
10
39.4975
20
32.58
11
39.4975
21
34.11
0
LINE
5
300
100
AcDbEntity
8
Walls
6
CONTINUOUS
62
256
370
-1
100
AcDbLine
10
39.7975
20
32.58
11
39.7975
21
34.11
0
LINE
5
301
100
AcDbEntity
8
Walls
6
CONTINUOUS
62
256
370
-1
100
AcDbLine
10
40.0975
20
32.58
11
40.0975
21
34.11
0
LINE
5
302
100
AcDbEntity
8
Walls
6
CONTINUOUS
62
256
370
-1
100
AcDbLine
10
40.3975
20
32.58
11
40.3975
21
34.11
0
LINE
5
303
100
AcDbEntity
8
Walls
6
CONTINUOUS
62
256
370
-1
100
AcDbLine
10
39.1975
20
35.1425
11
39.1975
21
34.41
0
ARC
5
304
100
AcDbEntity
8
Walls
6
ByLayer
62
256
370
-1
100
AcDbCircle
10
40.6975
20
34.26
40
0.1
100
AcDbArc
50
270
51
90
0
ARC
5
305
100
AcDbEntity
8
Walls
6
ByLayer
62
256
370
-1
100
AcDbCircle
10
40.6975
20
34.26
40
0.15
100
AcDbArc
50
270
51
90
0
LINE
5
306
100
AcDbEntity
8
Walls
6
ByLayer
62
256
370
-1
100
AcDbLine
10
10.92
20
30.59
11
10.04
21
30.59
0
LINE
5
307
100
AcDbEntity
8
Walls
6
ByLayer
62
256
370
-1
100
AcDbLine
10
10.92
20
30.29
11
10.04
21
30.29
0
LINE
5
308
100
AcDbEntity
8
Walls
6
CONTINUOUS
62
256
370
-1
100
AcDbLine
10
10.92
20
31.79
11
10.0889203633
21
31.79
0
LINE
5
309
100
AcDbEntity
8
Walls
6
ByLayer
62
256
370
-1
100
AcDbLine
10
10.4866666667
20
31.49
11
10.04
21
31.49
0
LINE
5
30A
100
AcDbEntity
8
Walls
6
ByLayer
62
256
370
-1
100
AcDbLine
10
10.92
20
31.19
11
10.04
21
31.19
0
LINE
5
30B
100
AcDbEntity
8
Walls
6
ByLayer
62
256
370
-1
100
AcDbLine
10
10.92
20
30.89
11
10.04
21
30.89
0
LINE
5
30C
100
AcDbEntity
8
Walls
6
CONTINUOUS
62
256
370
-1
100
AcDbLine
10
10.92
20
32.09
11
10.04
21
32.09
0
LINE
5
30D
100
AcDbEntity
8
Walls
6
CONTINUOUS
62
256
370
-1
100
AcDbLine
10
10.92
20
31.49
11
10.6089203633
21
31.49
0
LINE
5
30E
100
AcDbEntity
8
Walls
6
ByLayer
62
256
370
-1
100
AcDbLine
10
39.18
20
18.55
11
40.17
21
18.55
0
LINE
5
30F
100
AcDbEntity
8
Walls
6
ByLayer
62
256
370
-1
100
AcDbLine
10
10
20
6.91
11
10
21
5.99
0
LINE
5
310
100
AcDbEntity
8
Walls
6
ByLayer
62
256
370
-1
100
AcDbLine
10
4.41
20
12.4
11
4.41
21
15.25
0
LINE
5
311
100
AcDbEntity
8
Walls
6
ByLayer
62
256
370
-1
100
AcDbLine
10
4.41
20
32.53
11
4.41
21
35.94
0
LINE
5
312
100
AcDbEntity
8
Walls
6
ByLayer
62
256
370
-1
100
AcDbLine
10
4.41
20
30.08
11
4.41
21
32.25
0
LINE
5
313
100
AcDbEntity
8
Walls
6
ByLayer
62
256
370
-1
100
AcDbLine
10
4.41
20
24.61
11
4.41
21
30.08
0
LINE
5
314
100
AcDbEntity
8
Walls
6
ByLayer
62
256
370
-1
100
AcDbLine
10
4.41
20
22.5
11
4.41
21
24.61
0
LINE
5
315
100
AcDbEntity
8
Walls
6
ByLayer
62
256
370
-1
100
AcDbLine
10
4.41
20
15.53
11
4.41
21
18.14
0
LINE
5
316
100
AcDbEntity
8
Walls
6
ByLayer
62
256
370
-1
100
AcDbLine
10
4.41
20
18.55
11
4.41
21
22.3
0
LINE
5
317
100
AcDbEntity
8
Walls
6
ByLayer
62
256
370
-1
100
AcDbLine
10
12.39
20
35.94
11
12.39
21
29.28
0
LINE
5
318
100
AcDbEntity
8
Walls
6
ByLayer
62
256
370
-1
100
AcDbLine
10
12.39
20
29.16
11
12.39
21
18.14
0
LINE
5
319
100
AcDbEntity
8
Walls
6
ByLayer
62
256
370
-1
100
AcDbLine
10
4.41
20
35.94
11
10.92
21
35.94
0
LINE
5
31A
100
AcDbEntity
8
Walls
6
ByLayer
62
256
370
-1
100
AcDbLine
10
11.04
20
35.94
11
12.39
21
35.94
0
ARC
5
31B
100
AcDbEntity
8
Walls
6
ByLayer
62
256
370
-1
100
AcDbCircle
10
5.65
20
18.41
40
0.27
100
AcDbArc
50
270
51
0
0
ARC
5
31C
100
AcDbEntity
8
Walls
6
CONTINUOUS
62
256
370
-1
100
AcDbCircle
10
7.33
20
18.41
40
0.27
100
AcDbArc
50
180
51
270
0
LINE
5
31D
100
AcDbEntity
8
Walls
6
CONTINUOUS
62
256
370
-1
100
AcDbLine
10
7.12
20
18.41
11
7.06
21
18.41
0
LINE
5
31E
100
AcDbEntity
8
Walls
6
ByLayer
62
256
370
-1
100
AcDbLine
10
5.86
20
18.41
11
5.92
21
18.41
0
LINE
5
31F
100
AcDbEntity
8
Walls
6
ByLayer
62
256
370
-1
100
AcDbLine
10
5.86
20
18.55
11
5.86
21
18.41
0
LINE
5
320
100
AcDbEntity
8
Walls
6
ByLayer
62
256
370
-1
100
AcDbLine
10
7.12
20
18.55
11
7.12
21
18.41
0
LINE
5
321
100
AcDbEntity
8
Walls
6
ByLayer
62
256
370
-1
100
AcDbLine
10
39.12
20
18.4098842685
11
39.12
21
19.1798842685
0
LINE
5
322
100
AcDbEntity
8
Walls
6
ByLayer
62
256
370
-1
100
AcDbLine
10
38.3500198529
20
18.4098842685
11
38.29
21
18.4098842685
0
LINE
5
323
100
AcDbEntity
8
Walls
6
ByLayer
62
256
370
-1
100
AcDbLine
10
47.1082540022
20
18.14
11
71.735
21
18.14
0
ARC
5
324
100
AcDbEntity
8
Walls
6
CONTINUOUS
62
256
370
-1
100
AcDbCircle
10
77.6600198529
20
18.4098842685
40
0.27
100
AcDbArc
50
268.322366474
51
0
0
LINE
5
325
100
AcDbEntity
8
Walls
6
ByLayer
62
256
370
-1
100
AcDbLine
10
77.87
20
18.55
11
77.87
21
18.4098842685
0
LINE
5
326
100
AcDbEntity
8
Walls
6
ByLayer
62
256
370
-1
100
AcDbLine
10
77.9300198529
20
18.4098842685
11
77.87
21
18.4098842685
0
LINE
5
327
100
AcDbEntity
8
Walls
6
ByLayer
62
256
370
-1
100
AcDbLine
10
78.7699801471
20
18.4098842685
11
78.83
21
18.4098842685
0
LINE
5
328
100
AcDbEntity
8
Walls
6
ByLayer
62
256
370
-1
100
AcDbLine
10
78.83
20
18.55
11
78.83
21
18.4098842685
0
ARC
5
329
100
AcDbEntity
8
Walls
6
CONTINUOUS
62
256
370
-1
100
AcDbCircle
10
79.0399801471
20
18.4098842685
40
0.27
100
AcDbArc
50
180
51
271.677633526
0
LINE
5
32A
100
AcDbEntity
8
Walls
6
ByLayer
62
256
370
-1
100
AcDbLine
10
79.0478846793
20
18.14
11
79.5028846794
21
18.14
0
ARC
5
32B
100
AcDbEntity
8
Walls
6
CONTINUOUS
62
256
370
-1
100
AcDbCircle
10
79.4949801471
20
18.4098842685
40
0.27
100
AcDbArc
50
268.322366474
51
0
0
LINE
5
32C
100
AcDbEntity
8
Walls
6
ByLayer
62
256
370
-1
100
AcDbLine
10
79.7049602943
20
18.55
11
79.7049602943
21
18.4098842685
0
LINE
5
32D
100
AcDbEntity
8
Walls
6
ByLayer
62
256
370
-1
100
AcDbLine
10
79.7649801471
20
18.4098842685
11
79.7049602943
21
18.4098842685
0
ARC
5
32E
100
AcDbEntity
8
Walls
6
CONTINUOUS
62
256
370
-1
100
AcDbCircle
10
80.9849801471
20
18.4098842685
40
0.27
100
AcDbArc
50
180
51
271.677633526
0
LINE
5
32F
100
AcDbEntity
8
Walls
6
ByLayer
62
256
370
-1
100
AcDbLine
10
80.775
20
18.55
11
80.775
21
18.4098842685
0
LINE
5
330
100
AcDbEntity
8
Walls
6
ByLayer
62
256
370
-1
100
AcDbLine
10
80.7149801471
20
18.4098842685
11
80.775
21
18.4098842685
0
LINE
5
331
100
AcDbEntity
8
Walls
6
ByLayer
62
256
370
-1
100
AcDbLine
10
80.9928846793
20
18.14
11
82.987924385
21
18.14
0
ARC
5
332
100
AcDbEntity
8
Walls
6
CONTINUOUS
62
256
370
-1
100
AcDbCircle
10
82.9800198529
20
18.4098842685
40
0.27
100
AcDbArc
50
268.322366474
51
0
0
LINE
5
333
100
AcDbEntity
8
Walls
6
ByLayer
62
256
370
-1
100
AcDbLine
10
83.2500198529
20
18.4098842685
11
83.19
21
18.4098842685
0
LINE
5
334
100
AcDbEntity
8
Walls
6
ByLayer
62
256
370
-1
100
AcDbLine
10
83.19
20
18.55
11
83.19
21
18.4098842685
0
ARC
5
335
100
AcDbEntity
8
Walls
6
CONTINUOUS
62
256
370
-1
100
AcDbCircle
10
84.3599801471
20
18.4098842685
40
0.27
100
AcDbArc
50
180
51
271.677633526
0
LINE
5
336
100
AcDbEntity
8
Walls
6
ByLayer
62
256
370
-1
100
AcDbLine
10
84.15
20
18.55
11
84.15
21
18.4098842685
0
LINE
5
337
100
AcDbEntity
8
Walls
6
ByLayer
62
256
370
-1
100
AcDbLine
10
84.0899801471
20
18.4098842685
11
84.15
21
18.4098842685
0
LINE
5
338
100
AcDbEntity
8
Walls
6
ByLayer
62
256
370
-1
100
AcDbLine
10
84.3678846793
20
18.14
11
85.58
21
18.14
0
LINE
5
339
100
AcDbEntity
8
Walls
6
ByLayer
62
256
370
-1
100
AcDbLine
10
70.41
20
18.55
11
70.41
21
23.64
0
LINE
5
33A
100
AcDbEntity
8
Walls
6
ByLayer
62
256
370
-1
100
AcDbLine
10
70.41
20
23.64
11
73.1671613288
21
23.64
0
LINE
5
33B
100
AcDbEntity
8
Walls
6
ByLayer
62
256
370
-1
100
AcDbLine
10
73.2376923077
20
23.64
11
76.69
21
23.64
0
LINE
5
33C
100
AcDbEntity
8
Walls
6
ByLayer
62
256
370
-1
100
AcDbLine
10
76.69
20
23.64
11
76.69
21
18.55
0
LINE
5
33D
100
AcDbEntity
8
Walls
6
ByLayer
62
256
370
-1
100
AcDbLine
10
88.849968677
20
23.05
11
77.1
21
23.05
0
LINE
5
33E
100
AcDbEntity
8
Walls
6
ByLayer
62
256
370
-1
100
AcDbLine
10
81.56
20
22.64
11
77.1
21
22.64
0
LINE
5
33F
100
AcDbEntity
8
Walls
6
ByLayer
62
256
370
-1
100
AcDbLine
10
85.28
20
22.64
11
81.76
21
22.64
0
LINE
5
340
100
AcDbEntity
8
Walls
6
ByLayer
62
256
370
-1
100
AcDbLine
10
88.8764821877
20
22.64
11
85.58
21
22.64
0
LINE
5
341
100
AcDbEntity
8
Walls
6
CONTINUOUS
62
256
370
-1
100
AcDbLine
10
88.8764821877
20
22.64
11
93.876005751
21
23.2893247403
0
LINE
5
342
100
AcDbEntity
8
Walls
6
ByLayer
62
256
370
-1
100
AcDbLine
10
85.12
20
22.64
11
85.12
21
21.6625
0
LINE
5
343
100
AcDbEntity
8
Walls
6
ByLayer
62
256
370
-1
100
AcDbLine
10
85.12
20
22.64
11
85.12
21
21.6925
0
LINE
5
344
100
AcDbEntity
8
Walls
6
ByLayer
62
256
370
-1
100
AcDbLine
10
85.28
20
22.64
11
85.28
21
20.715
0
LINE
5
345
100
AcDbEntity
8
Walls
6
ByLayer
62
256
370
-1
100
AcDbLine
10
81.56
20
22.64
11
81.56
21
20.19
0
LINE
5
346
100
AcDbEntity
8
Walls
6
ByLayer
62
256
370
-1
100
AcDbLine
10
81.4
20
22.64
11
81.4
21
21.45
0
LINE
5
347
100
AcDbEntity
8
Walls
6
ByLayer
62
256
370
-1
100
AcDbLine
10
81.4
20
20.0400217259
11
81.4
21
18.67
0
LINE
5
348
100
AcDbEntity
8
Walls
6
ByLayer
62
256
370
-1
100
AcDbLine
10
81.76
20
22.64
11
81.76
21
20.715
0
LINE
5
349
100
AcDbEntity
8
Walls
6
ByLayer
62
256
370
-1
100
AcDbLine
10
79
20
21.66
11
79
21
20.19
0
LINE
5
34A
100
AcDbEntity
8
Walls
6
ByLayer
62
256
370
-1
100
AcDbLine
10
78.83
20
21.49
11
78.83
21
18.55
0
LINE
5
34B
100
AcDbEntity
8
Walls
6
CONTINUOUS
62
256
370
-1
100
AcDbLine
10
77.1
20
21.49
11
78.83
21
21.49
0
LINE
5
34C
100
AcDbEntity
8
Walls
6
ByLayer
62
256
370
-1
100
AcDbLine
10
79
20
20.0400217259
11
79
21
18.55
0
LINE
5
34D
100
AcDbEntity
8
Walls
6
ByLayer
62
256
370
-1
100
AcDbLine
10
89.76
20
12.7615169223
11
112.960271083
21
15.77470604
0
LINE
5
34E
100
AcDbEntity
8
Walls
6
ByLayer
62
256
370
-1
100
AcDbLine
10
89.76
20
9.75
11
89.76
21
12.7615169223
0
LINE
5
34F
100
AcDbEntity
8
Walls
6
ByLayer
62
256
370
-1
100
AcDbLine
10
10
20
9.75
11
89.76
21
9.75
0
LINE
5
350
100
AcDbEntity
8
Walls
6
ByLayer
62
256
370
-1
100
AcDbLine
10
112.854658694
20
16.1744328894
11
97.4387438239
21
14.1722551234
0
LINE
5
351
100
AcDbEntity
8
Walls
6
ByLayer
62
256
370
-1
100
AcDbLine
10
91.2710701831
20
13.1291984679
11
91.2398129398
21
13.3671545703
0
LINE
5
352
100
AcDbEntity
8
Walls
6
ByLayer
62
256
370
-1
100
AcDbLine
10
94.7420303099
20
13.5808912559
11
93.6510809728
21
13.4383078996
0
LINE
5
353
100
AcDbEntity
8
Walls
6
ByLayer
62
256
370
-1
100
AcDbLine
10
93.7686268219
20
13.2828041559
11
93.7467255877
21
13.4508083245
0
LINE
5
354
100
AcDbEntity
8
Walls
6
ByLayer
62
256
370
-1
100
AcDbLine
10
93.6510809728
20
13.4383078996
11
93.6198237296
21
13.6762640021
0
LINE
5
355
100
AcDbEntity
8
Walls
6
ByLayer
62
256
370
-1
100
AcDbLine
10
94.7046499249
20
13.4043723314
11
94.6825391181
21
13.5731159601
0
LINE
5
356
100
AcDbEntity
8
Walls
6
ByLayer
62
256
370
-1
100
AcDbLine
10
94.7420303099
20
13.5808912559
11
94.7108885011
21
13.8179685746
0
LINE
5
357
100
AcDbEntity
8
Walls
6
ByLayer
62
256
370
-1
100
AcDbLine
10
97.1220410996
20
13.8900006877
11
96.0310917626
21
13.7474173314
0
LINE
5
358
100
AcDbEntity
8
Walls
6
ByLayer
62
256
370
-1
100
AcDbLine
10
96.1486376117
20
13.5919135876
11
96.1267363774
21
13.7599177563
0
LINE
5
359
100
AcDbEntity
8
Walls
6
ByLayer
62
256
370
-1
100
AcDbLine
10
96.0310917626
20
13.7474173314
11
95.9998345193
21
13.9853734339
0
LINE
5
35A
100
AcDbEntity
8
Walls
6
ByLayer
62
256
370
-1
100
AcDbLine
10
97.0846607146
20
13.7134817632
11
97.0625499078
21
13.8822253919
0
LINE
5
35B
100
AcDbEntity
8
Walls
6
ByLayer
62
256
370
-1
100
AcDbLine
10
97.1220410996
20
13.8900006877
11
97.0908992909
21
14.1270780064
0
LINE
5
35C
100
AcDbEntity
8
Walls
6
ByLayer
62
256
370
-1
100
AcDbLine
10
99.5020518893
20
14.1991101194
11
98.4111025523
21
14.0565267632
0
LINE
5
35D
100
AcDbEntity
8
Walls
6
ByLayer
62
256
370
-1
100
AcDbLine
10
98.5286484014
20
13.9010230194
11
98.5067471671
21
14.0690271881
0
LINE
5
35E
100
AcDbEntity
8
Walls
6
ByLayer
62
256
370
-1
100
AcDbLine
10
98.4111025523
20
14.0565267632
11
98.379845309
21
14.2944828657
0
LINE
5
35F
100
AcDbEntity
8
Walls
6
ByLayer
62
256
370
-1
100
AcDbLine
10
99.4646715043
20
14.022591195
11
99.4425606976
21
14.1913348236
0
LINE
5
360
100
AcDbEntity
8
Walls
6
ByLayer
62
256
370
-1
100
AcDbLine
10
99.5020518893
20
14.1991101194
11
99.4709100806
21
14.4361874382
0
LINE
5
361
100
AcDbEntity
8
Walls
6
ByLayer
62
256
370
-1
100
AcDbLine
10
101.882062679
20
14.5082195512
11
100.791113342
21
14.365636195
0
LINE
5
362
100
AcDbEntity
8
Walls
6
ByLayer
62
256
370
-1
100
AcDbLine
10
100.908659191
20
14.2101324512
11
100.886757957
21
14.3781366198
0
LINE
5
363
100
AcDbEntity
8
Walls
6
ByLayer
62
256
370
-1
100
AcDbLine
10
100.791113342
20
14.365636195
11
100.759856099
21
14.6035922974
0
LINE
5
364
100
AcDbEntity
8
Walls
6
ByLayer
62
256
370
-1
100
AcDbLine
10
101.844682294
20
14.3317006268
11
101.822571487
21
14.5004442554
0
LINE
5
365
100
AcDbEntity
8
Walls
6
ByLayer
62
256
370
-1
100
AcDbLine
10
101.882062679
20
14.5082195512
11
101.85092087
21
14.74529687
0
LINE
5
366
100
AcDbEntity
8
Walls
6
ByLayer
62
256
370
-1
100
AcDbLine
10
104.262073469
20
14.817328983
11
103.171124132
21
14.6747456268
0
LINE
5
367
100
AcDbEntity
8
Walls
6
ByLayer
62
256
370
-1
100
AcDbLine
10
103.288669981
20
14.519241883
11
103.266768747
21
14.6872460516
0
LINE
5
368
100
AcDbEntity
8
Walls
6
ByLayer
62
256
370
-1
100
AcDbLine
10
103.171124132
20
14.6747456268
11
103.139866888
21
14.9127017292
0
LINE
5
369
100
AcDbEntity
8
Walls
6
ByLayer
62
256
370
-1
100
AcDbLine
10
104.224693084
20
14.6408100585
11
104.202582277
21
14.8095536872
0
LINE
5
36A
100
AcDbEntity
8
Walls
6
ByLayer
62
256
370
-1
100
AcDbLine
10
104.262073469
20
14.817328983
11
104.23093166
21
15.0544063018
0
LINE
5
36B
100
AcDbEntity
8
Walls
6
ByLayer
62
256
370
-1
100
AcDbLine
10
106.642084258
20
15.1264384148
11
105.551134921
21
14.9838550586
0
LINE
5
36C
100
AcDbEntity
8
Walls
6
ByLayer
62
256
370
-1
100
AcDbLine
10
105.668680771
20
14.8283513148
11
105.646779536
21
14.9963554834
0
LINE
5
36D
100
AcDbEntity
8
Walls
6
ByLayer
62
256
370
-1
100
AcDbLine
10
105.551134921
20
14.9838550586
11
105.519877678
21
15.221811161
0
LINE
5
36E
100
AcDbEntity
8
Walls
6
ByLayer
62
256
370
-1
100
AcDbLine
10
106.604703873
20
14.9499194903
11
106.582593067
21
15.118663119
0
LINE
5
36F
100
AcDbEntity
8
Walls
6
ByLayer
62
256
370
-1
100
AcDbLine
10
106.642084258
20
15.1264384148
11
106.61094245
21
15.3635157336
0
LINE
5
370
100
AcDbEntity
8
Walls
6
ByLayer
62
256
370
-1
100
AcDbLine
10
109.022095048
20
15.4355478466
11
107.931145711
21
15.2929644904
0
LINE
5
371
100
AcDbEntity
8
Walls
6
ByLayer
62
256
370
-1
100
AcDbLine
10
108.04869156
20
15.1374607466
11
108.026790326
21
15.3054649152
0
LINE
5
372
100
AcDbEntity
8
Walls
6
ByLayer
62
256
370
-1
100
AcDbLine
10
107.931145711
20
15.2929644904
11
107.899888468
21
15.5309205928
0
LINE
5
373
100
AcDbEntity
8
Walls
6
ByLayer
62
256
370
-1
100
AcDbLine
10
108.984714663
20
15.2590289221
11
108.962603856
21
15.4277725508
0
LINE
5
374
100
AcDbEntity
8
Walls
6
ByLayer
62
256
370
-1
100
AcDbLine
10
109.022095048
20
15.4355478466
11
108.990953239
21
15.6726251653
0
LINE
5
375
100
AcDbEntity
8
Walls
6
ByLayer
62
256
370
-1
100
AcDbLine
10
111.402105838
20
15.7446572784
11
110.311156501
21
15.6020739222
0
LINE
5
376
100
AcDbEntity
8
Walls
6
ByLayer
62
256
370
-1
100
AcDbLine
10
110.42870235
20
15.4465701784
11
110.406801116
21
15.614574347
0
LINE
5
377
100
AcDbEntity
8
Walls
6
ByLayer
62
256
370
-1
100
AcDbLine
10
110.311156501
20
15.6020739222
11
110.279899258
21
15.8400300246
0
LINE
5
378
100
AcDbEntity
8
Walls
6
ByLayer
62
256
370
-1
100
AcDbLine
10
111.364725453
20
15.5681383539
11
111.342614646
21
15.7368819826
0
LINE
5
379
100
AcDbEntity
8
Walls
6
ByLayer
62
256
370
-1
100
AcDbLine
10
111.402105838
20
15.7446572784
11
111.370964029
21
15.9817345971
0
LINE
5
37A
100
AcDbEntity
8
Walls
6
ByLayer
62
256
370
-1
100
AcDbLine
10
10
20
10.16
11
12.785
21
10.16
0
LINE
5
37B
100
AcDbEntity
8
Walls
6
ByLayer
62
256
370
-1
100
AcDbLine
10
89.35
20
15.525
11
89.35
21
19.5149220599
0
LINE
5
37C
100
AcDbEntity
8
Walls
6
ByLayer
62
256
370
-1
100
AcDbLine
10
89.35
20
10.16
11
89.35
21
15.245
0
LINE
5
37D
100
AcDbEntity
8
Walls
6
ByLayer
62
256
370
-1
100
AcDbLine
10
7.32
20
18.14
11
10.04
21
18.14
0
LINE
5
37E
100
AcDbEntity
8
Walls
6
ByLayer
62
256
370
-1
100
AcDbLine
10
87.3749947318
20
10.16
11
89.35
21
10.16
0
LINE
5
37F
100
AcDbEntity
8
Walls
6
ByLayer
62
256
370
-1
100
AcDbLine
10
83.8548862687
20
10.16
11
85.9449947318
21
10.16
0
LINE
5
380
100
AcDbEntity
8
Walls
6
ByLayer
62
256
370
-1
100
AcDbLine
10
83.2149947318
20
10.16
11
83.6248862687
21
10.16
0
LINE
5
381
100
AcDbEntity
8
Walls
6
ByLayer
62
256
370
-1
100
AcDbLine
10
81.2948862687
20
10.16
11
81.7849947318
21
10.16
0
LINE
5
382
100
AcDbEntity
8
Walls
6
ByLayer
62
256
370
-1
100
AcDbLine
10
79.0549947318
20
10.16
11
79.6948862687
21
10.16
0
LINE
5
383
100
AcDbEntity
8
Walls
6
ByLayer
62
256
370
-1
100
AcDbLine
10
76.9848862687
20
10.16
11
77.6249947318
21
10.16
0
LINE
5
384
100
AcDbEntity
8
Walls
6
ByLayer
62
256
370
-1
100
AcDbLine
10
74.9048862687
20
10.16
11
75.1348862687
21
10.16
0
LINE
5
385
100
AcDbEntity
8
Walls
6
ByLayer
62
256
370
-1
100
AcDbLine
10
75.3148862687
20
10.16
11
75.5348862687
21
10.16
0
LINE
5
386
100
AcDbEntity
8
Walls
6
ByLayer
62
256
370
-1
100
AcDbLine
10
60.5048862687
20
10.16
11
60.8548862687
21
10.16
0
LINE
5
387
100
AcDbEntity
8
Walls
6
ByLayer
62
256
370
-1
100
AcDbLine
10
62.3048862687
20
10.16
11
65.0249947318
21
10.16
0
LINE
5
388
100
AcDbEntity
8
Walls
6
ByLayer
62
256
370
-1
100
AcDbLine
10
48.2551137313
20
10.16
11
50.4649947318
21
10.16
0
LINE
5
389
100
AcDbEntity
8
Walls
6
ByLayer
62
256
370
-1
100
AcDbLine
10
45.5349947318
20
10.16
11
48.055
21
10.16
0
LINE
5
38A
100
AcDbEntity
8
Walls
6
ByLayer
62
256
370
-1
100
AcDbLine
10
41.3749947318
20
10.16
11
43.8249947318
21
10.16
0
LINE
5
38B
100
AcDbEntity
8
Walls
6
ByLayer
62
256
370
-1
100
AcDbLine
10
37.4149947318
20
10.16
11
39.7449947318
21
10.16
0
LINE
5
38C
100
AcDbEntity
8
Walls
6
ByLayer
62
256
370
-1
100
AcDbLine
10
33.695
20
10.16
11
35.7849947318
21
10.16
0
LINE
5
38D
100
AcDbEntity
8
Walls
6
ByLayer
62
256
370
-1
100
AcDbLine
10
33.0549947318
20
10.16
11
33.495
21
10.16
0
LINE
5
38E
100
AcDbEntity
8
Walls
6
ByLayer
62
256
370
-1
100
AcDbLine
10
31.185
20
10.16
11
31.6249947318
21
10.16
0
LINE
5
38F
100
AcDbEntity
8
Walls
6
ByLayer
62
256
370
-1
100
AcDbLine
10
28.7749947318
20
10.16
11
29.535
21
10.16
0
LINE
5
390
100
AcDbEntity
8
Walls
6
ByLayer
62
256
370
-1
100
AcDbLine
10
24.6149947318
20
10.16
11
26.8751
21
10.16
0
LINE
5
391
100
AcDbEntity
8
Walls
6
ByLayer
62
256
370
-1
100
AcDbLine
10
18.375
20
10.16
11
18.605
21
10.16
0
LINE
5
392
100
AcDbEntity
8
Walls
6
ByLayer
62
256
370
-1
100
AcDbLine
10
14.215
20
10.16
11
14.6251137313
21
10.16
0
LINE
5
393
100
AcDbEntity
8
Walls
6
ByLayer
62
256
370
-1
100
AcDbLine
10
16.3051137313
20
10.16
11
16.945
21
10.16
0
LINE
5
394
100
AcDbEntity
8
Walls
6
ByLayer
62
256
370
-1
100
AcDbLine
10
27.1551
20
10.16
11
27.3449947318
21
10.16
0
LINE
5
395
100
AcDbEntity
8
Walls
6
ByLayer
62
256
370
-1
100
AcDbLine
10
22.775
20
10.16
11
23.1849947318
21
10.16
0
LINE
5
396
100
AcDbEntity
8
Walls
6
ByLayer
62
256
370
-1
100
AcDbLine
10
18.755
20
10.16
11
22.625
21
10.16
0
LINE
5
397
100
AcDbEntity
8
Walls
6
CONTINUOUS
62
256
370
-1
100
AcDbLine
10
48.055
20
10.16
11
48.055
21
15.25
0
LINE
5
398
100
AcDbEntity
8
Walls
6
ByLayer
62
256
370
-1
100
AcDbLine
10
56.4851
20
10.16
11
56.7049947318
21
10.16
0
LINE
5
399
100
AcDbEntity
8
Walls
6
ByLayer
62
256
370
-1
100
AcDbLine
10
58.1349947318
20
10.16
11
60.2248862687
21
10.16
0
LINE
5
39A
100
AcDbEntity
8
Walls
6
ByLayer
62
256
370
-1
100
AcDbLine
10
52.415
20
10.16
11
56.3351
21
10.16
0
LINE
5
39B
100
AcDbEntity
8
Walls
6
ByLayer
62
256
370
-1
100
AcDbLine
10
51.8949947318
20
10.16
11
52.265
21
10.16
0
LINE
5
39C
100
AcDbEntity
8
Walls
6
ByLayer
62
256
370
-1
100
AcDbLine
10
66.4549947318
20
10.16
11
68.7148862687
21
10.16
0
LINE
5
39D
100
AcDbEntity
8
Walls
6
ByLayer
62
256
370
-1
100
AcDbLine
10
68.9948862687
20
10.16
11
74.309559935
21
10.16
0
LINE
5
39E
100
AcDbEntity
8
Walls
6
ByLayer
62
256
370
-1
100
AcDbLine
10
9.59
20
12.4
11
9.59
21
15.25
0
ARC
5
39F
100
AcDbEntity
8
Walls
6
ByLayer
62
256
370
-1
100
AcDbCircle
10
37.0099947318
20
15.39
40
1.17351530898
100
AcDbArc
50
180
51
270
0
LINE
5
3A0
100
AcDbEntity
8
Walls
6
ByLayer
62
256
370
-1
100
AcDbLine
10
37.0099947318
20
15.39
11
37.0099947318
21
14.216484691
0
LINE
5
3A1
100
AcDbEntity
8
Walls
6
ByLayer
62
256
370
-1
100
AcDbLine
10
4.41
20
15.25
11
5.25
21
15.25
0
LINE
5
3A2
100
AcDbEntity
8
Walls
6
CONTINUOUS
62
256
370
-1
100
AcDbLine
10
8.93
20
12.34
11
8.93
21
12.26
0
LINE
5
3A3
100
AcDbEntity
8
Walls
6
ByLayer
62
256
370
-1
100
AcDbLine
10
8.87004237073
20
12.26
11
8.87004237073
21
13.4
0
ARC
5
3A4
100
AcDbEntity
8
Walls
6
ByLayer
62
256
370
-1
100
AcDbCircle
10
8.87004237073
20
12.26
40
1.14
100
AcDbArc
50
90
51
180
0
LINE
5
3A5
100
AcDbEntity
8
Walls
6
ByLayer
62
256
370
-1
100
AcDbLine
10
7.67
20
12.26
11
8.93
21
12.26
0
LINE
5
3A6
100
AcDbEntity
8
Walls
6
CONTINUOUS
62
256
370
-1
100
AcDbLine
10
8.87
20
11.99
11
8.87
21
12.26
0
LINE
5
3A7
100
AcDbEntity
8
Walls
6
ByLayer
62
256
370
-1
100
AcDbLine
10
14.6251137313
20
15.03
11
14.8551137313
21
15.03
0
LINE
5
3A8
100
AcDbEntity
8
Walls
6
ByLayer
62
256
370
-1
100
AcDbLine
10
38.9399999917
20
32.0500745855
11
37.99
21
32.0500745855
0
LINE
5
3A9
100
AcDbEntity
8
Walls
6
ByLayer
62
256
370
-1
100
AcDbLine
10
38.11
20
27.65
11
37.99
21
27.65
0
LINE
5
3AA
100
AcDbEntity
8
Walls
6
CONTINUOUS
62
256
370
-1
100
AcDbLine
10
37.99
20
27.65
11
37.99
21
27.71
0
ARC
5
3AB
100
AcDbEntity
8
Walls
6
CONTINUOUS
62
256
370
-1
100
AcDbCircle
10
37.99
20
27.55
40
0.16
100
AcDbArc
50
90
51
180
0
LINE
5
3AC
100
AcDbEntity
8
Walls
6
ByLayer
62
256
370
-1
100
AcDbLine
10
38.9399999917
20
27.71
11
37.99
21
27.71
0
ARC
5
3AD
100
AcDbEntity
8
Walls
6
CONTINUOUS
62
256
370
-1
100
AcDbCircle
10
37.99
20
27.7098745855
40
0.95
100
AcDbArc
50
0.00756391719983
51
90
0
LINE
5
3AE
100
AcDbEntity
8
Walls
6
CONTINUOUS
62
256
370
-1
100
AcDbLine
10
37.99
20
28.7198745855
11
37.99
21
28.6598745855
0
LINE
5
3AF
100
AcDbEntity
8
Walls
6
CONTINUOUS
62
256
370
-1
100
AcDbLine
10
37.99
20
28.6748745855
11
37.99
21
28.6748745855
0
ARC
5
3B0
100
AcDbEntity
8
Walls
6
CONTINUOUS
62
256
370
-1
100
AcDbCircle
10
37.99
20
28.8198745855
40
0.16
100
AcDbArc
50
180
51
270
0
LINE
5
3B1
100
AcDbEntity
8
Walls
6
ByLayer
62
256
370
-1
100
AcDbLine
10
38.11
20
22.5901
11
37.99
21
22.5901
0
LINE
5
3B2
100
AcDbEntity
8
Walls
6
CONTINUOUS
62
256
370
-1
100
AcDbLine
10
37.99
20
22.5901
11
37.99
21
22.6501
0
ARC
5
3B3
100
AcDbEntity
8
Walls
6
CONTINUOUS
62
256
370
-1
100
AcDbCircle
10
37.99
20
22.4901
40
0.16
100
AcDbArc
50
90
51
180
0
LINE
5
3B4
100
AcDbEntity
8
Walls
6
ByLayer
62
256
370
-1
100
AcDbLine
10
38.9399999917
20
22.6501
11
37.99
21
22.6501
0
ARC
5
3B5
100
AcDbEntity
8
Walls
6
CONTINUOUS
62
256
370
-1
100
AcDbCircle
10
37.99
20
22.6499745855
40
0.95
100
AcDbArc
50
0.00756391719983
51
90
0
LINE
5
3B6
100
AcDbEntity
8
Walls
6
CONTINUOUS
62
256
370
-1
100
AcDbLine
10
37.99
20
23.6599745855
11
37.99
21
23.5999745855
0
LINE
5
3B7
100
AcDbEntity
8
Walls
6
CONTINUOUS
62
256
370
-1
100
AcDbLine
10
37.99
20
23.6149745855
11
37.99
21
23.6149745855
0
ARC
5
3B8
100
AcDbEntity
8
Walls
6
CONTINUOUS
62
256
370
-1
100
AcDbCircle
10
37.99
20
23.7599745855
40
0.16
100
AcDbArc
50
180
51
270
0
LINE
5
3B9
100
AcDbEntity
8
Walls
6
ByLayer
62
256
370
-1
100
AcDbLine
10
37.99
20
23.6599745855
11
38.08
21
23.6599745855
0
LINE
5
3BA
100
AcDbEntity
8
Walls
6
ByLayer
62
256
370
-1
100
AcDbLine
10
38.11
20
22.5901
11
38.11
21
21.6801
0
LINE
5
3BB
100
AcDbEntity
8
Walls
6
ByLayer
62
256
370
-1
100
AcDbLine
10
43.19
20
21.5
11
38.11
21
21.5
0
LINE
5
3BC
100
AcDbEntity
8
Walls
6
ByLayer
62
256
370
-1
100
AcDbLine
10
38.1000700665
20
36.35
11
38.1000107177
21
36.17
0
LINE
5
3BD
100
AcDbEntity
8
Walls
6
ByLayer
62
256
370
-1
100
AcDbLine
10
7.06
20
18.41
11
7.06
21
19.5499561395
0
ARC
5
3BE
100
AcDbEntity
8
Walls
6
ByLayer
62
256
370
-1
100
AcDbCircle
10
7.06
20
18.41
40
1.14
100
AcDbArc
50
90
51
180
0
LINE
5
3BF
100
AcDbEntity
8
Walls
6
ByLayer
62
256
370
-1
100
AcDbLine
10
7.14
20
28.98
11
7.14
21
30.67
0
LINE
5
3C0
100
AcDbEntity
8
Walls
6
ByLayer
62
256
370
-1
100
AcDbLine
10
7.55
20
28.94
11
7.7
21
28.94
0
LINE
5
3C1
100
AcDbEntity
8
Walls
6
ByLayer
62
256
370
-1
100
AcDbLine
10
8.735
20
32.53
11
8.735
21
33.48
0
ARC
5
3C2
100
AcDbEntity
8
Walls
6
ByLayer
62
256
370
-1
100
AcDbCircle
10
8.735
20
32.53
40
0.95
100
AcDbArc
50
90
51
180
0
LINE
5
3C3
100
AcDbEntity
8
Walls
6
ByLayer
62
256
370
-1
100
AcDbLine
10
7.23990389421
20
36.16
11
9.55990619594
21
36.16
0
LINE
5
3C4
100
AcDbEntity
8
Walls
6
ByLayer
62
256
370
-1
100
AcDbLine
10
7.29976933976
20
36.35
11
7.29990390926
21
36.16
0
LINE
5
3C5
100
AcDbEntity
8
Walls
6
ByLayer
62
256
370
-1
100
AcDbLine
10
9.49981535247
20
36.35
11
9.49990618909
21
36.16
0
LINE
5
3C6
100
AcDbEntity
8
Walls
6
ByLayer
62
256
370
-1
100
AcDbLine
10
7.7
20
27.88
11
9.89
21
27.88
0
LINE
5
3C7
100
AcDbEntity
8
Walls
6
ByLayer
62
256
370
-1
100
AcDbLine
10
8.88
20
32.25
11
8.88
21
31.41
0
LINE
5
3C8
100
AcDbEntity
8
Walls
6
ByLayer
62
256
370
-1
100
AcDbLine
10
9.89
20
32.25
11
9.89
21
28.96
0
LINE
5
3C9
100
AcDbEntity
8
Walls
6
ByLayer
62
256
370
-1
100
AcDbLine
10
9.89
20
27.98
11
9.89
21
27.88
0
LINE
5
3CA
100
AcDbEntity
8
Walls
6
ByLayer
62
256
370
-1
100
AcDbLine
10
9.89
20
27.73
11
9.89
21
22.5
0
LINE
5
3CB
100
AcDbEntity
8
Walls
6
ByLayer
62
256
370
-1
100
AcDbLine
10
10.04
20
28.96
11
9.89
21
28.96
0
ARC
5
3CC
100
AcDbEntity
8
Walls
6
ByLayer
62
256
370
-1
100
AcDbCircle
10
9.89
20
27.98
40
0.98
100
AcDbArc
50
90
51
180
0
LINE
5
3CD
100
AcDbEntity
8
Walls
6
ByLayer
62
256
370
-1
100
AcDbLine
10
4.51
20
11.99
11
7.73
21
11.99
0
LINE
5
3CE
100
AcDbEntity
8
Walls
6
ByLayer
62
256
370
-1
100
AcDbLine
10
4.41
20
12.4
11
7.61
21
12.4
0
LINE
5
3CF
100
AcDbEntity
8
Walls
6
ByLayer
62
256
370
-1
100
AcDbLine
10
4.176
20
13.7897637313
11
4.41
21
13.7897637313
0
LINE
5
3D0
100
AcDbEntity
8
Walls
6
ByLayer
62
256
370
-1
100
AcDbLine
10
4.176
20
12.8098362687
11
4.41
21
12.8098362687
0
LINE
5
3D1
100
AcDbEntity
8
Walls
6
ByLayer
62
256
370
-1
100
AcDbLine
10
4.176
20
12.8698362687
11
4
21
12.8698362687
0
LINE
5
3D2
100
AcDbEntity
8
Walls
6
ByLayer
62
256
370
-1
100
AcDbLine
10
4.176
20
13.7297637313
11
4
21
13.7297637313
0
LINE
5
3D3
100
AcDbEntity
8
Walls
6
CONTINUOUS
62
256
370
-1
100
AcDbLine
10
7.73
20
11.99
11
7.73
21
12.26
0
ARC
5
3D4
100
AcDbEntity
8
Walls
6
ByLayer
62
256
370
-1
100
AcDbCircle
10
7.61
20
12.34
40
0.06
100
AcDbArc
50
0
51
90
0
ARC
5
3D5
100
AcDbEntity
8
Walls
6
ByLayer
62
256
370
-1
100
AcDbCircle
10
8.99
20
12.34
40
0.06
100
AcDbArc
50
90
51
180
0
LINE
5
3D6
100
AcDbEntity
8
Walls
6
ByLayer
62
256
370
-1
100
AcDbLine
10
8.99
20
12.4
11
9.59
21
12.4
0
LINE
5
3D7
100
AcDbEntity
8
Walls
6
ByLayer
62
256
370
-1
100
AcDbLine
10
8.87
20
11.99
11
9.49
21
11.99
0
LINE
5
3D8
100
AcDbEntity
8
Walls
6
CONTINUOUS
62
256
370
-1
100
AcDbLine
10
38.08
20
24.3701
11
38.08
21
23.6599745855
0
LINE
5
3D9
100
AcDbEntity
8
Walls
6
ByLayer
62
256
370
-1
100
AcDbLine
10
38.11
20
21.5
11
38.11
21
18.55
0
ARC
5
3DA
100
AcDbEntity
8
Walls
6
ByLayer
62
256
370
-1
100
AcDbCircle
10
89.5
20
19.5149220599
40
0.15
100
AcDbArc
50
97.4
51
180
0
LINE
5
3DB
100
AcDbEntity
8
Walls
6
CONTINUOUS
62
256
370
-1
100
AcDbLine
10
71.735
20
18.28
11
71.735
21
18.14
0
LINE
5
3DC
100
AcDbEntity
8
Walls
6
CONTINUOUS
62
256
370
-1
100
AcDbLine
10
75.365
20
18.28
11
75.365
21
18.14
0
ARC
5
3DD
100
AcDbEntity
8
Walls
6
ByLayer
62
256
370
-1
100
AcDbCircle
10
71.525
20
18.28
40
0.27
100
AcDbArc
50
360
51
90
0
ARC
5
3DE
100
AcDbEntity
8
Walls
6
ByLayer
62
256
370
-1
100
AcDbCircle
10
75.575
20
18.28
40
0.27
100
AcDbArc
50
90
51
180
0
LINE
5
3DF
100
AcDbEntity
8
Walls
6
ByLayer
62
256
370
-1
100
AcDbLine
10
71.795
20
18.28
11
71.735
21
18.28
0
LINE
5
3E0
100
AcDbEntity
8
Walls
6
CONTINUOUS
62
256
370
-1
100
AcDbLine
10
75.305
20
18.28
11
75.365
21
18.28
0
LINE
5
3E1
100
AcDbEntity
8
Walls
6
ByLayer
62
256
370
-1
100
AcDbLine
10
80.96
20
18.67
11
81.56
21
18.67
0
LINE
5
3E2
100
AcDbEntity
8
Walls
6
ByLayer
62
256
370
-1
100
AcDbLine
10
80.96
20
18.67
11
80.96
21
18.55
0
LINE
5
3E3
100
AcDbEntity
8
Walls
6
ByLayer
62
256
370
-1
100
AcDbLine
10
81.76
20
20.515
11
81.76
21
18.55
0
LINE
5
3E4
100
AcDbEntity
8
Walls
6
ByLayer
62
256
370
-1
100
AcDbLine
10
81.56
20
20.0400217259
11
81.56
21
18.67
0
LINE
5
3E5
100
AcDbEntity
8
Walls
6
ByLayer
62
256
370
-1
100
AcDbLine
10
84.22
20
18.67
11
84.22
21
18.55
0
LINE
5
3E6
100
AcDbEntity
8
Walls
6
CONTINUOUS
62
256
370
-1
100
AcDbLine
10
97.1812383148
20
20.7243044809
11
97.1110447147
21
21.2647652644
0
LINE
5
3E7
100
AcDbEntity
8
Walls
6
CONTINUOUS
62
256
370
-1
100
AcDbLine
10
97.2952804985
20
20.7391159745
11
97.2102754047
21
21.3936189417
0
LINE
5
3E8
100
AcDbEntity
8
Walls
6
ByLayer
62
256
370
-1
100
AcDbLine
10
104.379994335
20
22.2088369873
11
104.450187935
21
21.6683762038
0
LINE
5
3E9
100
AcDbEntity
8
Walls
6
CONTINUOUS
62
256
370
-1
100
AcDbLine
10
93.4193858816
20
19.9634574814
11
93.4374172652
21
19.8246235187
0
LINE
5
3EA
100
AcDbEntity
8
Walls
6
CONTINUOUS
62
256
370
-1
100
AcDbLine
10
92.24921391
20
19.8114786775
11
92.2672452935
21
19.6726447147
0
LINE
5
3EB
100
AcDbEntity
8
Walls
6
ByLayer
62
256
370
-1
100
AcDbLine
10
97.2899931495
20
14.1529357839
11
89.755
21
13.1743110395
0
LINE
5
3EC
100
AcDbEntity
8
Walls
6
CONTINUOUS
62
256
370
-1
100
AcDbLine
10
95.3833459178
20
23.4850940471
11
95.7129184117
21
23.5278980405
0
LINE
5
3ED
100
AcDbEntity
8
Walls
6
ByLayer
62
256
370
-1
100
AcDbLine
10
94.1089821537
20
23.5918507652
11
95.0808198929
21
23.7180704498
0
LINE
5
3EE
100
AcDbEntity
8
Walls
6
CONTINUOUS
62
256
370
-1
100
AcDbLine
10
104.295367938
20
23.9474178376
11
104.287640202
21
24.0069181073
0
LINE
5
3EF
100
AcDbEntity
8
Walls
6
ByLayer
62
256
370
-1
100
AcDbLine
10
104.148806239
20
23.9888867238
11
104.287640202
21
24.0069181073
0
LINE
5
3F0
100
AcDbEntity
8
Walls
6
CONTINUOUS
62
256
370
-1
100
AcDbLine
10
4.27
20
9.25
11
4.27
21
6.91
0
LINE
5
3F1
100
AcDbEntity
8
Walls
6
CONTINUOUS
62
256
370
-1
100
AcDbLine
10
10.03
20
8.8
11
10.03
21
6.86
0
LINE
5
3F2
100
AcDbEntity
8
Walls
6
CONTINUOUS
62
256
370
-1
100
AcDbLine
10
10.03
20
8.8
11
10
21
8.8
0
LINE
5
3F3
100
AcDbEntity
8
Walls
6
CONTINUOUS
62
256
370
-1
100
AcDbLine
10
10.03
20
6.86
11
10
21
6.86
0
LINE
5
3F4
100
AcDbEntity
8
Walls
6
CONTINUOUS
62
256
370
-1
100
AcDbLine
10
9.73
20
8.75
11
9.73
21
6.91
0
LINE
5
3F5
100
AcDbEntity
8
Walls
6
ByLayer
62
256
370
-1
100
AcDbLine
10
7.7
20
32.056
11
8.88
21
32.056
0
LINE
5
3F6
100
AcDbEntity
8
Walls
6
ByLayer
62
256
370
-1
100
AcDbLine
10
7.7
20
31.862
11
8.88
21
31.862
0
LINE
5
3F7
100
AcDbEntity
8
Walls
6
ByLayer
62
256
370
-1
100
AcDbLine
10
7.7
20
31.668
11
8.88
21
31.668
0
LINE
5
3F8
100
AcDbEntity
8
Walls
6
ByLayer
62
256
370
-1
100
AcDbLine
10
7.7
20
31.474
11
8.88
21
31.474
0
LINE
5
3F9
100
AcDbEntity
8
Walls
6
ByLayer
62
256
370
-1
100
AcDbLine
10
12.39
20
18.14
11
35.21
21
18.14
0
LINE
5
3FA
100
AcDbEntity
8
Walls
6
ByLayer
62
256
370
-1
100
AcDbLine
10
38.37
20
29.83
11
38.35
21
29.83
0
LINE
5
3FB
100
AcDbEntity
8
Walls
6
ByLayer
62
256
370
-1
100
AcDbLine
10
41.455
20
18.14
11
45.4882540022
21
18.14
0
LINE
5
3FC
100
AcDbEntity
8
Walls
6
ByLayer
62
256
370
-1
100
AcDbLine
10
58.455
20
15.53
11
59.6491509826
21
15.53
0
LINE
5
3FD
100
AcDbEntity
8
Walls
6
ByLayer
62
256
370
-1
100
AcDbLine
10
72.8048862687
20
15.53
11
76.7648862687
21
15.53
0
LINE
5
3FE
100
AcDbEntity
8
Walls
6
CONTINUOUS
62
256
370
-1
100
AcDbLine
10
72.7248862687
20
15.25
11
75.1348862687
21
15.25
0
LINE
5
3FF
100
AcDbEntity
8
Walls
6
ByLayer
62
256
370
-1
100
AcDbLine
10
75.365
20
18.14
11
77.667924385
21
18.14
0
LINE
5
400
100
AcDbEntity
8
Walls
6
ByLayer
62
256
370
-1
100
AcDbLine
10
70.47
20
22.19
11
70.47
21
22.255
0
LINE
5
401
100
AcDbEntity
8
Walls
6
CONTINUOUS
62
256
370
-1
100
AcDbLine
10
71.56
20
22.19
11
71.56
21
22.255
0
LINE
5
402
100
AcDbEntity
8
Walls
6
ByLayer
62
256
370
-1
100
AcDbLine
10
70.47
20
22.255
11
70.47
21
23.345
0
ARC
5
403
100
AcDbEntity
8
Walls
6
ByLayer
62
256
370
-1
100
AcDbCircle
10
70.47
20
22.255
40
1.09
100
AcDbArc
50
360
51
90
0
LINE
5
404
100
AcDbEntity
8
Walls
6
ByLayer
62
256
370
-1
100
AcDbLine
10
85.58
20
20.5118040218
11
85.58
21
18.67
0
LINE
5
405
100
AcDbEntity
8
Walls
6
ByLayer
62
256
370
-1
100
AcDbLine
10
81.4
20
21.45
11
81.4
21
20.19
0
LINE
5
406
100
AcDbEntity
8
Walls
6
ByLayer
62
256
370
-1
100
AcDbLine
10
85.12
20
21.6625
11
85.12
21
20.715
0
ARC
5
407
100
AcDbEntity
8
Walls
6
CONTINUOUS
62
256
370
-1
100
AcDbCircle
10
79.849968677
20
22.915
40
0.75
100
AcDbArc
50
182.674774488
51
270
0
LINE
5
408
100
AcDbEntity
8
Walls
6
ByLayer
62
256
370
-1
100
AcDbLine
10
111.278034708
20
22.1417151657
11
112.854658694
21
16.1744328894
0
LINE
5
409
100
AcDbEntity
8
Walls
6
CONTINUOUS
62
256
370
-1
100
AcDbLine
10
8.88
20
31.41
11
8.88
21
30.45
0
LINE
5
40A
100
AcDbEntity
8
Walls
6
CONTINUOUS
62
256
370
-1
100
AcDbLine
10
8.88
20
30.45
11
9.88
21
30.45
0
LINE
5
40B
100
AcDbEntity
8
Walls
6
CONTINUOUS
62
256
370
-1
100
AcDbLine
10
9
20
31.41
11
9
21
30.45
0
ARC
5
40C
100
AcDbEntity
8
Walls
6
CONTINUOUS
62
256
370
-1
100
AcDbCircle
10
80.7099801471
20
19.3598711105
40
0.005
100
AcDbArc
50
0
51
90.3015581265
0
LINE
5
40D
100
AcDbEntity
8
Walls
6
ByLayer
62
256
370
-1
100
AcDbLine
10
105.074462481
20
25.0160180034
11
106.04630022
21
25.142237688
0
LINE
5
40E
100
AcDbEntity
8
Walls
6
ByLayer
62
256
370
-1
100
AcDbLine
10
92.053204462
20
31.6743938397
11
94.1753807495
21
31.9500164164
0
LINE
5
40F
100
AcDbEntity
8
Walls
6
ByLayer
62
256
370
-1
100
AcDbLine
10
91.941152293
20
32.537147751
11
92.053204462
21
31.6743938397
0
LINE
5
410
100
AcDbEntity
8
Walls
6
ByLayer
62
256
370
-1
100
AcDbLine
10
94.4599970454
20
32.8642885663
11
94.5553057869
21
32.1304519062
0
LINE
5
411
100
AcDbEntity
8
Walls
6
ByLayer
62
256
370
-1
100
AcDbLine
10
92.9258750849
20
31.7877339647
11
92.9786812795
21
31.3811487882
0
LINE
5
412
100
AcDbEntity
8
Walls
6
ByLayer
62
256
370
-1
100
AcDbLine
10
94.0365467868
20
31.9319850329
11
94.0893529814
21
31.5253998563
0
LINE
5
413
100
AcDbEntity
8
Walls
6
ByLayer
62
256
370
-1
100
AcDbLine
10
94.0298527116
20
31.5176721205
11
94.0465961392
21
31.3887548694
0
LINE
5
414
100
AcDbEntity
8
Walls
6
ByLayer
62
256
370
-1
100
AcDbLine
10
93.0381815492
20
31.3888765239
11
93.0549249768
21
31.2599592728
0
LINE
5
415
100
AcDbEntity
8
Walls
6
ByLayer
62
256
370
-1
100
AcDbLine
10
92.9786812795
20
31.3811487882
11
94.0893529814
21
31.5253998563
0
LINE
5
416
100
AcDbEntity
8
Walls
6
ByLayer
62
256
370
-1
100
AcDbLine
10
97.3953436861
20
33.2455235322
11
97.5769454773
21
31.8472671932
0
LINE
5
417
100
AcDbEntity
8
Walls
6
ByLayer
62
256
370
-1
100
AcDbLine
10
103.593288451
20
34.0504960108
11
103.70534062
21
33.1877420995
0
LINE
5
418
100
AcDbEntity
8
Walls
6
ByLayer
62
256
370
-1
100
AcDbLine
10
100.35052375
20
33.62933441
11
100.532125541
21
32.231078071
0
LINE
5
419
100
AcDbEntity
8
Walls
6
ByLayer
62
256
370
-1
100
AcDbLine
10
105.804715143
20
34.3377101912
11
105.916767312
21
33.4749562799
0
LINE
5
41A
100
AcDbEntity
8
Walls
6
ByLayer
62
256
370
-1
100
AcDbLine
10
96.9788417979
20
33.1914293816
11
97.0741505394
21
32.4575927215
0
LINE
5
41B
100
AcDbEntity
8
Walls
6
ByLayer
62
256
370
-1
100
AcDbLine
10
102.907177975
20
32.5395435248
11
103.036095226
21
32.5562869524
0
LINE
5
41C
100
AcDbEntity
8
Walls
6
ByLayer
62
256
370
-1
100
AcDbLine
10
96.7786501915
20
31.743586738
11
97.5769454773
21
31.8472671932
0
LINE
5
41D
100
AcDbEntity
8
Walls
6
ByLayer
62
256
370
-1
100
AcDbLine
10
100.532125541
20
32.231078071
11
101.330420827
21
32.3347585263
0
LINE
5
41E
100
AcDbEntity
8
Walls
6
ByLayer
62
256
370
-1
100
AcDbLine
10
102.751467944
20
33.1949475119
11
103.093594495
21
33.2393819927
0
LINE
5
41F
100
AcDbEntity
8
Walls
6
ByLayer
62
256
370
-1
100
AcDbLine
10
96.6229401605
20
32.398990725
11
97.0741505394
21
32.4575927215
0
LINE
5
420
100
AcDbEntity
8
Walls
6
CONTINUOUS
62
256
370
5
100
AcDbLine
10
95.185016975
20
32.21223711
11
96.6229401605
21
32.398990725
0
LINE
5
421
100
AcDbEntity
8
Walls
6
CONTINUOUS
62
256
370
-1
100
AcDbLine
10
94.7278809001
20
32.3545452579
11
96.8599738992
21
32.6314557906
0
LINE
5
422
100
AcDbEntity
8
Walls
6
CONTINUOUS
62
256
370
-1
100
AcDbLine
10
95.0769968123
20
32.9444228448
11
94.7278809001
21
32.3545452579
0
LINE
5
423
100
AcDbEntity
8
Walls
6
CONTINUOUS
62
256
370
-1
100
AcDbLine
10
96.3717587427
20
33.1125830591
11
96.8599738992
21
32.6314557906
0
LINE
5
424
100
AcDbEntity
8
Walls
6
CONTINUOUS
62
256
370
-1
100
AcDbLine
10
94.6583312779
20
32.8900476856
11
94.7278809001
21
32.3545452579
0
LINE
5
425
100
AcDbEntity
8
Walls
6
ByLayer
62
256
370
-1
100
AcDbLine
10
96.716316968
20
31.6800291323
11
96.6229401605
21
32.398990725
0
LINE
5
426
100
AcDbEntity
8
Walls
6
ByLayer
62
256
370
-1
100
AcDbLine
10
95.2783937825
20
31.4932755173
11
95.185016975
21
32.21223711
0
ARC
5
427
100
AcDbEntity
8
Walls
6
ByLayer
62
256
370
-1
100
AcDbCircle
10
95.185016975
20
32.21223711
40
0.725
100
AcDbArc
50
277.4
51
7.4
0
LINE
5
428
100
AcDbEntity
8
Walls
6
ByLayer
62
256
370
-1
100
AcDbLine
10
96.7786501915
20
31.743586738
11
96.6229401605
21
32.398990725
0
ARC
5
429
100
AcDbEntity
8
Walls
6
ByLayer
62
256
370
-1
100
AcDbCircle
10
96.6229401605
20
32.398990725
40
0.725
100
AcDbArc
50
187.4
51
277.4
0
LINE
5
42A
100
AcDbEntity
8
Walls
6
ByLayer
62
256
370
-1
100
AcDbLine
10
95.2018930434
20
31.5388017394
11
95.185016975
21
32.21223711
0
LINE
5
42B
100
AcDbEntity
8
Walls
6
CONTINUOUS
62
256
370
-1
100
AcDbLine
10
101.313544759
20
33.0081938968
11
102.751467944
21
33.1949475119
0
LINE
5
42C
100
AcDbEntity
8
Walls
6
ByLayer
62
256
370
-1
100
AcDbLine
10
101.330420827
20
32.3347585263
11
101.313544759
21
33.0081938968
0
LINE
5
42D
100
AcDbEntity
8
Walls
6
ByLayer
62
256
370
-1
100
AcDbLine
10
102.907177975
20
32.5395435248
11
102.751467944
21
33.1949475119
0
LINE
5
42E
100
AcDbEntity
8
Walls
6
ByLayer
62
256
370
-1
100
AcDbLine
10
100.86233438
20
32.9495919004
11
101.313544759
21
33.0081938968
0
LINE
5
42F
100
AcDbEntity
8
Walls
6
ByLayer
62
256
370
-1
100
AcDbLine
10
103.70534062
20
33.1877420995
11
105.916767312
21
33.4749562799
0
LINE
5
430
100
AcDbEntity
8
Walls
6
ByLayer
62
256
370
-1
100
AcDbLine
10
94.5553057869
20
32.1304519062
11
95.185016975
21
32.21223711
0
LINE
5
431
100
AcDbEntity
8
Walls
6
CONTINUOUS
62
256
370
-1
100
AcDbLine
10
96.790424277
20
33.1669582183
11
96.8599738992
21
32.6314557906
0
LINE
5
432
100
AcDbEntity
8
Walls
6
ByLayer
62
256
370
-1
100
AcDbLine
10
95.0729757922
20
31.5220583119
11
95.2018930434
21
31.5388017394
0
LINE
5
433
100
AcDbEntity
8
Walls
6
ByLayer
62
256
370
-1
100
AcDbLine
10
94.0633285805
20
32.8127703277
11
94.1753807495
21
31.9500164164
0
LINE
5
434
100
AcDbEntity
8
Walls
6
ByLayer
62
256
370
-1
100
AcDbLine
10
100.86233438
20
32.9495919004
11
100.767025638
21
33.6834285606
0
LINE
5
435
100
AcDbEntity
8
Walls
6
ByLayer
62
256
370
-1
100
AcDbLine
10
102.998285754
20
33.9732186529
11
103.093594495
21
33.2393819927
0
LINE
5
436
100
AcDbEntity
8
Walls
6
ByLayer
62
256
370
-1
100
AcDbLine
10
7.27625
20
30.425
11
7.54625
21
30.565
0
LINE
5
437
100
AcDbEntity
8
Walls
6
ByLayer
62
256
370
-1
100
AcDbLine
10
7.27625
20
30.03
11
7.54625
21
30.3
0
LINE
5
438
100
AcDbEntity
8
Walls
6
ByLayer
62
256
370
-1
100
AcDbLine
10
7.27625
20
29.635
11
7.54625
21
29.905
0
LINE
5
439
100
AcDbEntity
8
Walls
6
ByLayer
62
256
370
-1
100
AcDbLine
10
7.27625
20
29.37
11
7.54625
21
29.51
0
LINE
5
43A
100
AcDbEntity
8
Walls
6
ByLayer
62
256
370
-1
100
AcDbLine
10
7.27625
20
29.105
11
7.54625
21
29.245
0
HATCH
5
43B
100
AcDbEntity
8
Walls
6
ByLayer
62
256
370
-1
100
AcDbHatch
10
0
20
0
30
0
210
0
220
0
230
1
2
SOLID
70
1
71
0
91
5
92
0
93
3
72
1
10
7.54625
20
30.565
11
7.27625
21
30.425
72
1
10
7.27625
20
30.425
11
7.54625
21
30.425
72
1
10
7.54625
20
30.425
11
7.54625
21
30.565
97
0
92
0
93
3
72
1
10
7.54625
20
30.3
11
7.27625
21
30.03
72
1
10
7.27625
20
30.03
11
7.54625
21
30.03
72
1
10
7.54625
20
30.03
11
7.54625
21
30.3
97
0
92
0
93
3
72
1
10
7.54625
20
29.905
11
7.27625
21
29.635
72
1
10
7.27625
20
29.635
11
7.54625
21
29.635
72
1
10
7.54625
20
29.635
11
7.54625
21
29.905
97
0
92
0
93
3
72
1
10
7.54625
20
29.51
11
7.27625
21
29.37
72
1
10
7.27625
20
29.37
11
7.54625
21
29.37
72
1
10
7.54625
20
29.37
11
7.54625
21
29.51
97
0
92
0
93
3
72
1
10
7.54625
20
29.245
11
7.27625
21
29.105
72
1
10
7.27625
20
29.105
11
7.54625
21
29.105
72
1
10
7.54625
20
29.105
11
7.54625
21
29.245
97
0
75
0
76
1
98
0
0
LINE
5
43C
100
AcDbEntity
8
Walls
6
ByLayer
62
256
370
-1
100
AcDbLine
10
7.820033
20
18.295
11
8.090033
21
18.565
0
LINE
5
43D
100
AcDbEntity
8
Walls
6
ByLayer
62
256
370
-1
100
AcDbLine
10
8.220066
20
18.295
11
8.490066
21
18.565
0
LINE
5
43E
100
AcDbEntity
8
Walls
6
ByLayer
62
256
370
-1
100
AcDbLine
10
8.620099
20
18.295
11
8.890099
21
18.565
0
HATCH
5
43F
100
AcDbEntity
8
Walls
6
ByLayer
62
256
370
-1
100
AcDbHatch
10
0
20
0
30
0
210
0
220
0
230
1
2
SOLID
70
1
71
0
91
3
92
0
93
3
72
1
10
8.890099
20
18.565
11
8.620099
21
18.295
72
1
10
8.620099
20
18.295
11
8.890099
21
18.295
72
1
10
8.890099
20
18.295
11
8.890099
21
18.565
97
0
92
0
93
3
72
1
10
8.490066
20
18.565
11
8.220066
21
18.295
72
1
10
8.220066
20
18.295
11
8.490066
21
18.295
72
1
10
8.490066
20
18.295
11
8.490066
21
18.565
97
0
92
0
93
3
72
1
10
8.090033
20
18.565
11
7.820033
21
18.295
72
1
10
7.820033
20
18.295
11
8.090033
21
18.295
72
1
10
8.090033
20
18.295
11
8.090033
21
18.565
97
0
75
0
76
1
98
0
0
LINE
5
440
100
AcDbEntity
8
Walls
6
ByLayer
62
256
370
-1
100
AcDbLine
10
37.9625
20
30.6551
11
38.2325
21
30.9251
0
LINE
5
441
100
AcDbEntity
8
Walls
6
ByLayer
62
256
370
-1
100
AcDbLine
10
37.9625
20
30.2751
11
38.2325
21
30.5451
0
LINE
5
442
100
AcDbEntity
8
Walls
6
ByLayer
62
256
370
-1
100
AcDbLine
10
37.9625
20
29.8951
11
38.2325
21
30.1651
0
LINE
5
443
100
AcDbEntity
8
Walls
6
ByLayer
62
256
370
-1
100
AcDbLine
10
37.9625
20
29.6451
11
38.2325
21
29.7851
0
LINE
5
444
100
AcDbEntity
8
Walls
6
ByLayer
62
256
370
-1
100
AcDbLine
10
37.9625
20
29.3951
11
38.2325
21
29.5351
0
LINE
5
445
100
AcDbEntity
8
Walls
6
ByLayer
62
256
370
-1
100
AcDbLine
10
37.9625
20
29.1451
11
38.2325
21
29.2851
0
HATCH
5
446
100
AcDbEntity
8
Walls
6
ByLayer
62
256
370
-1
100
AcDbHatch
10
0
20
0
30
0
210
0
220
0
230
1
2
SOLID
70
1
71
0
91
6
92
0
93
3
72
1
10
38.2325
20
29.2851
11
37.9625
21
29.1451
72
1
10
37.9625
20
29.1451
11
38.2325
21
29.1451
72
1
10
38.2325
20
29.1451
11
38.2325
21
29.2851
97
0
92
0
93
3
72
1
10
38.2325
20
29.5351
11
37.9625
21
29.3951
72
1
10
37.9625
20
29.3951
11
38.2325
21
29.3951
72
1
10
38.2325
20
29.3951
11
38.2325
21
29.5351
97
0
92
0
93
3
72
1
10
38.2325
20
29.7851
11
37.9625
21
29.6451
72
1
10
37.9625
20
29.6451
11
38.2325
21
29.6451
72
1
10
38.2325
20
29.6451
11
38.2325
21
29.7851
97
0
92
0
93
3
72
1
10
38.2325
20
30.1651
11
37.9625
21
29.8951
72
1
10
37.9625
20
29.8951
11
38.2325
21
29.8951
72
1
10
38.2325
20
29.8951
11
38.2325
21
30.1651
97
0
92
0
93
3
72
1
10
38.2325
20
30.5451
11
37.9625
21
30.2751
72
1
10
37.9625
20
30.2751
11
38.2325
21
30.2751
72
1
10
38.2325
20
30.2751
11
38.2325
21
30.5451
97
0
92
0
93
3
72
1
10
38.2325
20
30.9251
11
37.9625
21
30.6551
72
1
10
37.9625
20
30.6551
11
38.2325
21
30.6551
72
1
10
38.2325
20
30.6551
11
38.2325
21
30.9251
97
0
75
0
76
1
98
0
0
LINE
5
447
100
AcDbEntity
8
Walls
6
ByLayer
62
256
370
-1
100
AcDbLine
10
37.9575
20
25.345025
11
38.0975
21
25.615025
0
LINE
5
448
100
AcDbEntity
8
Walls
6
ByLayer
62
256
370
-1
100
AcDbLine
10
37.9575
20
24.93005
11
38.0975
21
25.20005
0
LINE
5
449
100
AcDbEntity
8
Walls
6
ByLayer
62
256
370
-1
100
AcDbLine
10
37.9575
20
24.515075
11
38.0975
21
24.785075
0
HATCH
5
44A
100
AcDbEntity
8
Walls
6
ByLayer
62
256
370
-1
100
AcDbHatch
10
0
20
0
30
0
210
0
220
0
230
1
2
SOLID
70
1
71
0
91
3
92
0
93
3
72
1
10
38.0975
20
24.785075
11
37.9575
21
24.515075
72
1
10
37.9575
20
24.515075
11
38.0975
21
24.515075
72
1
10
38.0975
20
24.515075
11
38.0975
21
24.785075
97
0
92
0
93
3
72
1
10
38.0975
20
25.20005
11
37.9575
21
24.93005
72
1
10
37.9575
20
24.93005
11
38.0975
21
24.93005
72
1
10
38.0975
20
24.93005
11
38.0975
21
25.20005
97
0
92
0
93
3
72
1
10
38.0975
20
25.615025
11
37.9575
21
25.345025
72
1
10
37.9575
20
25.345025
11
38.0975
21
25.345025
72
1
10
38.0975
20
25.345025
11
38.0975
21
25.615025
97
0
75
0
76
1
98
0
0
LINE
5
44B
100
AcDbEntity
8
Walls
6
ByLayer
62
256
370
-1
100
AcDbLine
10
41.645033
20
18.295
11
41.915033
21
18.565
0
LINE
5
44C
100
AcDbEntity
8
Walls
6
ByLayer
62
256
370
-1
100
AcDbLine
10
42.045066
20
18.295
11
42.315066
21
18.565
0
LINE
5
44D
100
AcDbEntity
8
Walls
6
ByLayer
62
256
370
-1
100
AcDbLine
10
42.445099
20
18.295
11
42.715099
21
18.565
0
HATCH
5
44E
100
AcDbEntity
8
Walls
6
ByLayer
62
256
370
-1
100
AcDbHatch
10
0
20
0
30
0
210
0
220
0
230
1
2
SOLID
70
1
71
0
91
3
92
0
93
3
72
1
10
42.715099
20
18.565
11
42.445099
21
18.295
72
1
10
42.445099
20
18.295
11
42.715099
21
18.295
72
1
10
42.715099
20
18.295
11
42.715099
21
18.565
97
0
92
0
93
3
72
1
10
42.315066
20
18.565
11
42.045066
21
18.295
72
1
10
42.045066
20
18.295
11
42.315066
21
18.295
72
1
10
42.315066
20
18.295
11
42.315066
21
18.565
97
0
92
0
93
3
72
1
10
41.915033
20
18.565
11
41.645033
21
18.295
72
1
10
41.645033
20
18.295
11
41.915033
21
18.295
72
1
10
41.915033
20
18.295
11
41.915033
21
18.565
97
0
75
0
76
1
98
0
0
LINE
5
44F
100
AcDbEntity
8
Walls
6
ByLayer
62
256
370
-1
100
AcDbLine
10
76.84
20
19.53
11
76.98
21
19.8
0
LINE
5
450
100
AcDbEntity
8
Walls
6
ByLayer
62
256
370
-1
100
AcDbLine
10
76.84
20
19.14
11
76.98
21
19.41
0
LINE
5
451
100
AcDbEntity
8
Walls
6
ByLayer
62
256
370
-1
100
AcDbLine
10
76.84
20
18.75
11
76.98
21
19.02
0
LINE
5
452
100
AcDbEntity
8
Walls
6
ByLayer
62
256
370
-1
100
AcDbLine
10
81.186666
20
18.285
11
81.326666
21
18.555
0
LINE
5
453
100
AcDbEntity
8
Walls
6
ByLayer
62
256
370
-1
100
AcDbLine
10
81.518332
20
18.285
11
81.658332
21
18.555
0
HATCH
5
454
100
AcDbEntity
8
Walls
6
ByLayer
62
256
370
-1
100
AcDbHatch
10
0
20
0
30
0
210
0
220
0
230
1
2
SOLID
70
1
71
0
91
2
92
0
93
3
72
1
10
81.658332
20
18.555
11
81.518332
21
18.285
72
1
10
81.518332
20
18.285
11
81.658332
21
18.285
72
1
10
81.658332
20
18.285
11
81.658332
21
18.555
97
0
92
0
93
3
72
1
10
81.326666
20
18.555
11
81.186666
21
18.285
72
1
10
81.186666
20
18.285
11
81.326666
21
18.285
72
1
10
81.326666
20
18.285
11
81.326666
21
18.555
97
0
75
0
76
1
98
0
0
HATCH
5
455
100
AcDbEntity
8
Walls
6
ByLayer
62
256
370
-1
100
AcDbHatch
10
0
20
0
30
0
210
0
220
0
230
1
2
SOLID
70
1
71
0
91
3
92
0
93
3
72
1
10
76.98
20
19.02
11
76.84
21
18.75
72
1
10
76.84
20
18.75
11
76.98
21
18.75
72
1
10
76.98
20
18.75
11
76.98
21
19.02
97
0
92
0
93
3
72
1
10
76.98
20
19.41
11
76.84
21
19.14
72
1
10
76.84
20
19.14
11
76.98
21
19.14
72
1
10
76.98
20
19.14
11
76.98
21
19.41
97
0
92
0
93
3
72
1
10
76.98
20
19.8
11
76.84
21
19.53
72
1
10
76.84
20
19.53
11
76.98
21
19.53
72
1
10
76.98
20
19.53
11
76.98
21
19.8
97
0
75
0
76
1
98
0
0
LINE
5
456
100
AcDbEntity
8
Walls
6
ByLayer
62
256
370
-1
100
AcDbLine
10
84.3825
20
18.285
11
84.5225
21
18.555
0
LINE
5
457
100
AcDbEntity
8
Walls
6
ByLayer
62
256
370
-1
100
AcDbLine
10
84.615
20
18.285
11
84.755
21
18.555
0
LINE
5
458
100
AcDbEntity
8
Walls
6
ByLayer
62
256
370
-1
100
AcDbLine
10
85.21
20
18.285
11
85.35
21
18.55
0
HATCH
5
459
100
AcDbEntity
8
Walls
6
ByLayer
62
256
370
-1
100
AcDbHatch
10
0
20
0
30
0
210
0
220
0
230
1
2
SOLID
70
1
71
0
91
3
92
0
93
3
72
1
10
85.35
20
18.55
11
85.21
21
18.285
72
1
10
85.21
20
18.285
11
85.35
21
18.285
72
1
10
85.35
20
18.285
11
85.35
21
18.55
97
0
92
0
93
3
72
1
10
84.755
20
18.555
11
84.615
21
18.285
72
1
10
84.615
20
18.285
11
84.755
21
18.285
72
1
10
84.755
20
18.285
11
84.755
21
18.555
97
0
92
0
93
3
72
1
10
84.5225
20
18.555
11
84.3825
21
18.285
72
1
10
84.3825
20
18.285
11
84.5225
21
18.285
72
1
10
84.5225
20
18.285
11
84.5225
21
18.555
97
0
75
0
76
1
98
0
0
LINE
5
45A
100
AcDbEntity
8
Walls
6
CONTINUOUS
62
256
370
-1
100
AcDbLine
10
79.849968677
20
22.88
11
79.849968677
21
22.165
0
LINE
5
45B
100
AcDbEntity
8
Walls
6
CONTINUOUS
62
256
370
-1
100
AcDbLine
10
108.887653975
20
21.8312589134
11
109.039632779
21
20.6610869418
0
LINE
5
45C
100
AcDbEntity
8
Walls
6
CONTINUOUS
62
256
370
-1
100
AcDbLine
10
108.722298007
20
20.6198723509
11
109.202704545
21
16.920946904
0
LINE
5
45D
100
AcDbEntity
8
Walls
6
CONTINUOUS
62
256
370
-1
100
AcDbLine
10
109.202704545
20
16.920946904
11
109.520039317
21
16.9621614949
0
LINE
5
45E
100
AcDbEntity
8
Walls
6
CONTINUOUS
62
256
370
-1
100
AcDbLine
10
108.722298007
20
20.6198723509
11
109.039632779
21
20.6610869418
0
LINE
5
45F
100
AcDbEntity
8
Walls
6
CONTINUOUS
62
256
370
-1
100
AcDbLine
10
109.520039317
20
16.9621614949
11
109.675965968
21
15.7615927852
0
LINE
5
460
100
AcDbEntity
8
Walls
6
ByLayer
62
256
370
-1
100
AcDbLine
10
85.1175
20
18.285
11
85.1175
21
18.555
0
HATCH
5
461
100
AcDbEntity
8
Walls
6
ByLayer
62
256
370
-1
100
AcDbHatch
10
0
20
0
30
0
210
0
220
0
230
1
2
SOLID
70
1
71
0
91
1
92
0
93
3
72
1
10
85.1175
20
18.555
11
84.8475
21
18.285
72
1
10
84.8475
20
18.285
11
85.1175
21
18.285
72
1
10
85.1175
20
18.285
11
85.1175
21
18.555
97
0
75
0
76
1
98
0
0
LINE
5
462
100
AcDbEntity
8
Walls
6
ByLayer
62
256
370
-1
100
AcDbLine
10
85.21
20
18.285
11
85.21
21
18.555
0
LINE
5
463
100
AcDbEntity
8
Walls
6
CONTINUOUS
62
256
370
-1
100
AcDbLine
10
43.43
20
31.7
11
43.19
21
31.7
0
LINE
5
464
100
AcDbEntity
8
Walls
6
CONTINUOUS
62
256
370
-1
100
AcDbLine
10
43.43
20
30.3
11
43.19
21
30.3
0
LINE
5
465
100
AcDbEntity
8
Walls
6
ByLayer
62
256
370
-1
100
AcDbLine
10
84.8475
20
18.285
11
85.1175
21
18.555
0
HATCH
5
466
100
AcDbEntity
8
Walls
6
ByLayer
62
256
370
-1
100
AcDbHatch
10
0
20
0
30
0
210
0
220
0
230
1
2
SOLID
70
1
71
0
91
1
92
0
93
3
72
1
10
85.1175
20
18.555
11
84.8475
21
18.285
72
1
10
84.8475
20
18.285
11
85.1175
21
18.285
72
1
10
85.1175
20
18.285
11
85.1175
21
18.555
97
0
75
0
76
1
98
0
0
MTEXT
5
467
100
AcDbEntity
8
Walls
6
ByLayer
62
256
370
-1
100
AcDbMText
10
38.3367161977
20
18.8227240974
30
0
40
0.3
41
0.633333333333
71
1
72
5
1
T30
7
standard
210
0
220
0
230
1
50
0
73
1
44
1
0
LINE
5
468
100
AcDbEntity
8
Walls
6
CONTINUOUS
62
256
370
-1
100
AcDbLine
10
95.3550381487
20
29.3502984663
11
95.136870493
21
29.321963435
0
LINE
5
469
100
AcDbEntity
8
Walls
6
CONTINUOUS
62
256
370
-1
100
AcDbLine
10
95.1445982288
20
29.2624631653
11
94.956180708
21
29.2379920019
0
ENDSEC
0
SECTION
2
OBJECTS
0
DICTIONARY
5
C
330
0
100
AcDbDictionary
281
1
3
ACAD_GROUP
350
D
0
DICTIONARY
5
D
330
C
100
AcDbDictionary
281
1
0
ENDSEC
0
EOF
